<svg xmlns="http://www.w3.org/2000/svg" width="10.8in" height="3in" viewBox="0 0 780.1 217.8"><path fill="#fff" d="M69.2 33.6c-.2 1.2.7-.4 0 .8a.6.6 0 0 1 0-.8z"/><path fill="#fff" d="M73.4 153.8c.3 2.4-.4 5-.5 7.7a36.5 36.5 0 0 0 .5 8c.1.6-.8-.1-.6 1.2a36.2 36.2 0 0 1 1 8.8 40 40 0 0 1-1.1 9.5l-.2-.4c-.3 1.1.4 2.5 0 3.6s-.2-.4-.4-.2-.2 2.2.1 2.7-.6.3-1 .9l.4.8a4.5 4.5 0 0 1-.3 3.3 27.5 27.5 0 0 0-1.4 3.6c-.1-.2 0-.4-.2-.3a9.3 9.3 0 0 1-1.5 2.9 26.8 26.8 0 0 1-5 5.2 8.2 8.2 0 0 1-3.3 1.7c.2-.2.2-.6-.1-.8s-1.6.9-2.9.9-2.2.3-3.5.1h.1a1.8 1.8 0 0 1-1.2.3 1.2 1.2 0 0 0-1.1.5l-.8-.3c-.3.9-1.6-.1-2.5.5v.2c-.8.3-1.3 0-2.1.1h.2c-1.9.3-2.9-.2-2.9.4s1.8-.2.8-1a64.4 64.4 0 0 1-9.2.4 33.6 33.6 0 0 1-9.1-1.5c-.6-.4-1-.7-1-1s-2.1-.9-2.7-.9-.2-.5-.4-.7a1.7 1.7 0 0 0-1.1-.5 1.4 1.4 0 0 1-1.1-.7c.5.2.7.2.8-.1a8.7 8.7 0 0 1-3-2.2c.2.1.5.3.6.1s-1.5-1.9-2.4-2.7h.6c-.7-1.8-1 0-1.6-1.5.3.3.4.1.5.1-1.4-.9-2.4-3.2-3.2-4.6h.2c-.8-1.5-1.1-3.3-1.9-4.9s.9 0 .3-1.7c-.7.3-1.1-2.8-1.6-1.5-.2-.7-.4-1.6-.6-2.5a21 21 0 0 0-.7-2.3c.4.6.7-.9 1.1.3l.3-1c.3.1.1.9.4.6a10.4 10.4 0 0 1-.6-2.8 11 11 0 0 1-1.6-4c.4.8.8-.6.9 0a21.4 21.4 0 0 0-1.7-2.3c-.1-.6.6-.2.2-1.1s-.4-.3-.6-.5-.8-2.4-.2-2.8.4.9.5.2-.6-1.1-.9-2.2h.1c-.1-.8-.9-2.1-1.1-1.2s.4-.3.4.5a2.8 2.8 0 0 1-.7-1.2 8.7 8.7 0 0 1-.4-1.8c.2.4.4.3.6.4a16.3 16.3 0 0 1-1.4-5c-.3 0 .7.6.5.9a8.5 8.5 0 0 0-.3-3.3 7.1 7.1 0 0 1-.3-2.9c.1.3-.5.2-.4.2s.4-1.1.1-1.8-.2-.9-.4-1.6.1-.2.2.4a19.7 19.7 0 0 1-.8-7.4c-.2.1-.8-1.4-.8-1.9l.5.2c.3-.5-.1-1.8.3-1.9s.6 4.4.1 2.8-.8-2.1-.2-1.8-.6-2.1-.1-3.1.6.9.6 0-.2-.4-.4-1.7l-.2-.8c-.4-.1.1-1.3-.4-.8s-.2-2.2.5-2l.6.2c0-.7-.6-1.1-.9-1.6s.2-.3.3-.2 0-1.5-.7-2.3-.1-3.5.4-4.1a7.2 7.2 0 0 1-.5-3.2c.1.2.1.6.3.6s0-1-.1-1.7.5-1.5.8-2.4-.7-.7-1-.8-.4-3.1.5-4.3c.1.4.3 1.6.6.7s-.4-2 .2-3.5l-.8.3c.5-.6-.1-2.3.6-2.1s.5-1.8-.2-1.7a14.6 14.6 0 0 0 .7-4 5.9 5.9 0 0 1 .9-3.3c-.1-.3 0-1.3-.4-1.1s.3.8 0 1a.4.4 0 0 0-.3-.4c.2-.8.2-1.4.8-.7.4-1.8-1.2-1.8-.9-4 .3.1.4-.1.4-.7l-.5-1.2c.1-1.4.7-.8 1.2-.9s-.1-1.7-.4-2.1l.6-.9c-.5.7-.3-.6-.4-1v.8c.2-.1.1-1 0-1.5s-.4 1-.5 1.5-.2-1-.4-1.5.3-1.2.4-1.8-.5-.8-.4-1 0-1.1.4-.6-.2.5 0 .9.6-.4.3-1.4-1 .2-.7-1.2c.1.4.3.4.5.7l.2-1.3h-.8c.1-.2.1-.1.2-.1s-.2-2-.7-2.2a12.7 12.7 0 0 1 .3-2 3.8 3.8 0 0 0-.2-2.5h.1a5.3 5.3 0 0 0-.2-2c.4-1.1 1.7-.3 1.2-1.5s-.6-1.8-1-1.4c.6-2.1.2-4.1 1-5.7s-.3-.1-.3-.7c.4-2.7-.3-5.7.6-7.9.2.8.4.1.7 0s.4-.8-.3-1-.6 0-.8.8a14.3 14.3 0 0 1 .1-5.1c-.2.5-.3.1-.4-.3s.7-1.1.5-2.1h-.3l.4-.6c-.1-.4-.8-.4-.4-1.3l.4-.3c-.3-1-.8-2.4-.4-3.5l.6-.9c0-.5-.3-1.3-.5-.5.5-1.8.7-3 1.2-3.5a17.1 17.1 0 0 1-.1-5.6 51 51 0 0 1 .9-5.7l.3.2c.5-.9-.4-.6-.1-1.3s.8-.6.9.2c.6-1.3-.1-1.9.1-2.9s0 .8-.4.5.9-1.9.4-2.3.6.1.8.4 0-.6 0-1 .6.3.7 1 .3 1.3.8.9l.2-.8c.8-.5 0 2.2.8.4s-.5-1.9-1-1.3a1.7 1.7 0 0 0-.1-1.2c-.2-.3-.4-.7.1-1.7s.1.2-.1.6-.3.9 0 .8.6-1.9 1.2-2.6-.8-.3-.5-.9 0 .9 1-.4.6-1.7-.4-.9.2-.8.5-1.1.8-.6.8-1.1 0 1.9 1.2.9c-.6-.2.8-1.9-.3-1.8.5-.4.9-.1.8.4s.9-2.3 1.8-1.7v-.6l1.3-.3 1.3-1.2c.5-.4.9-.6 1.1-.2s2.1-1 1.2-1.2-1.2 1-2.2.7c1.1 0 1.6-1 2.3-1.5l.2.2.4-.2h.4c.2-.1.4-.3.5-.5s0 .4.3.4l.2-.6c1.2-.7.6.7 1.9 0l-.9.7c.2-.2.8.1 1.4-.3s.4-1.2.5-1.5.5.3 1.1-.4l-.8.9c-.1.2.9.4 2 0s1.6-1.3.4-1.2c.6-.2 1.5-.2 1.1.3 1.5-.5-.3-.4 1-1a18 18 0 0 1 3.2.7l-1.2.8h.8c-1 .6.5.4 0 1a4.3 4.3 0 0 0 1.5-.2c-1.5-1 1.7-1.3 1.3-2.2 2.1-.2 1.2 2.2 3.3.9-.3-.2.7-.9-.6-.7 1.2.1.9-.8 2.2-.4-1 .4 1 .9-.4 1.4.1-.3-.8-.2-1.1-.2s-.1.9 1.1.9h1.1c.3-.1.5-.2.4-.4s-1 .1-.6-.4 1.7.5 2.3-.4c-1 .1-1.2-.4-1.2-.7l1.1-.3-.2.4c.9.1 1.1-.1 1.2-.3s.2-.4 1.3-.4l1.1.7c-.3.3-1.1.2-1.7.2s-1.1.1-.9.5 1.7-.5 3.1-.2h-1c.3 0 .5.3.9.6a3.4 3.4 0 0 0 2.1.4c1 0 .4-.2.5-.6l2.1.4h1.1c-.3.7 1.4.3.4.8a3 3 0 0 0-1.3-.5 4 4 0 0 0-2-.1c.2.5-.1.3-.7.1s-1.3-.4-1.6 0 1.2.5 1.3.8a3.3 3.3 0 0 1 .1.9 2.8 2.8 0 0 0 1.1.1c.3-.4-.2-.6 0-1.1a5.7 5.7 0 0 0 2.1.6 2.8 2.8 0 0 0 1.5-.3c.4.3.3.8-.3.8a20.6 20.6 0 0 1 3 .1 13.6 13.6 0 0 1 3.1.7c-.5-.6 0-.5.6-.3s1.2.4.9-.1-1.8-1.3-1.1-1.5-.1.3.1.6 1.1 1.1 2.2.8c-2-.5-.7.8-1.3 1.2 1.4.2-.2.4 1 .9a11.7 11.7 0 0 1 4.3 1.6 32.4 32.4 0 0 0 2.4 2.5 14.6 14.6 0 0 1 2.1 2.6c.1 1-.7.7-.5 1.6s.4-1.1.7.6h-.2a8.1 8.1 0 0 1 .6 1.7c.2.7.5 1.4 1.1 1.5l-.9-.3c0 .3.3.5.4.8s-.4.5-.7 0 .5 2 .7 3.1l.4-.7c.6 1.8.2 3.1.5 4.8H71l.3 1.1c-.4-.3-.7.7-.4 1.3s-.7-1.8-1.1-2.7.6.8 1 .3a2.2 2.2 0 0 0-.3-2.3 2 2 0 0 0 .3 1.1c-.6.2-.6-.7-1.1-1.1s-.1.8.1.8a5.9 5.9 0 0 1-.6-2.2c.3.7.3-.4.5-.2s-.8-1-.9-2.2a1.9 1.9 0 0 0-.4-1.6 8.4 8.4 0 0 1-1-1.9 4.1 4.1 0 0 1 1.9 1.7c0-1-.3-1-.4-2a4.2 4.2 0 0 1-2-1.3l.3-.2c-.7-.8-1.2-.5-1.9-1.6a12.1 12.1 0 0 0-4.7-4.1v-.4c-1.3.3-3.2-1.1-4.5-.9a8 8 0 0 0-3.1-.6 4.6 4.6 0 0 1-3-.6l-3.1-.8a7.9 7.9 0 0 0-2.5-.2l-2.9.2a19.6 19.6 0 0 1-3.4 0l.8-.6c-.8.4-.5-.3-1.3-.3.9.5-1.1.6-1.7.9a8.9 8.9 0 0 0-5.7.5v-.2l-1 .6-1.3.4-3 .7a1.9 1.9 0 0 0-1.4 0c-.8 1-1.7 1.2-2.8 2.1a30 30 0 0 0-3.4 1.9l-2 2.8-1 1.3-.8 1.3a16.4 16.4 0 0 0-2.1 6.2l-.5.2a45.5 45.5 0 0 1-1 7.5 30.9 30.9 0 0 0-1 6.8l-1-.5c-.4 1.2 0 2.8.6 2.6s.2 3.1-.5 3.9.3 1.6.5 2.7a25.6 25.6 0 0 0-.1 6.1v-.6c-.2-.3-.5-.3-.6.3s-.2 3.4.8 2.5c-.6 2.7.4 6.4-.7 9 .3-.2.3.5.4.8A14.6 14.6 0 0 1 8 69l-.4 1.7a7.1 7.1 0 0 0-.2 2.9c-.2.3-.4-.6-.5.3s.3 0 .5.7c.3 3.5-.5 7.3-.3 10.8s.3 6.2.4 9.3v6.9c0 .8 0 1.6-.1 2.4h-.1c.6 2.2-1.2 4.7-.3 6.4s-.3 1.7-.7 1.3c.3 1.6-1.1 4.2-.6 6.3a1 1 0 0 0-.1-.5c-.6 2.1 0 4-.3 6.4-.1-.2-.2-.7-.4-.7s.9 2.1-.1 2.7.5.4.4 0c-.1 2.6.1 5.3.3 8.1l.5 8.2c-.5 3.9-1.6.3-.8 3.3-.2.3.4.2.2.2s-1 1.9-.4 2.7.4.5.7.5c-.2 2.3-.7 2.9 0 4.6h-.3a8.7 8.7 0 0 1 .7 1.6l.5 1.7a13 13 0 0 0 1 3.2c.1 1.6.2 3 .3 4.4a16.3 16.3 0 0 0 .3 1.9l.6 2c.4 1.4.9 2.8 1.4 4.4s.4 1.6.6 2.4.3 1.7.4 2.6.2 3.2.4 4.5a15 15 0 0 0 .7 3.5l.3.9.4 1.2.7 2.2c.4 1.5.8 2.8 1.3 4.1a26.8 26.8 0 0 0 8.3 12.3 12.3 12.3 0 0 0 2.8 1.6l.8.3.9.3 1.8.5a51.4 51.4 0 0 0 8.1 1c2.7.8 2.9.8 6 .5-.1.1-.3.2-.1.3s2-.1 2.2-.7l2.7-.3 1.4-.3.7-.2h1a15.7 15.7 0 0 1 4.3-.3h2.8c-.4.1-.7.6-.1.6l.5-.5v.2a.4.4 0 0 0 .1-.7 14.1 14.1 0 0 0 1.9-1.4l2.7-2.5 1.3-1.4.5-.6.4-.5a13.7 13.7 0 0 0 1.4-2.9c.4-1.1.8-2.4 1.1-3.7l.5-2 .2-1 .2-.9a34 34 0 0 0 .6-7.7 55.1 55.1 0 0 0-.5-9.2l.2-3.3.2-3.1c.1-1.9.1-4 .2-6.3a31.2 31.2 0 0 1 .4-3.4c.2-1.1.4-2.2.6-3.2a20.8 20.8 0 0 0 .6-5.8 2.8 2.8 0 0 1 .9.9 5.8 5.8 0 0 1 .8 3.1z"/><path fill="#fff" d="M69.4 32.1c.4-.2.6-1.2 1-.4s-.8.5-1 .4zM61 7.8c-.1.1-.3-.3-.4-.4s.8 0 1 .3-.4 0-.6.1zm-7.4-1.9c.1-.3 1.8-.4 2.8-.3zm-5.2-2.3c-.6-.4-.4-.5.5-.2s-.2.1-.5.2zm-.7.4a4.1 4.1 0 0 1-1.3-.6c0 .1.5.2.8.2s.7.2.5.4zM33.2 2.8c-.4 0-1.2.3-1.5 0s1.8-.5 1.5 0zm-7.3 1.6l-.5.2c-.4 0-.1-.3.2-.5zM.6 113.7v-.7l.3.2-.3.5zm1.7 51.4c.3.7-.2.6-.2.7s.4.2.2-.7zm7 26.7l-.1-.2h.6l-.5.2zM92.2 13.2c-.1-.6-.5.3-.2-.4s.4.2.2.4zm-.3 153.2c-1.5-1.8 0-4.3-1-6.3-.1-.2.8.1.6-.5s-.5-5 .4-7.4h.2c.2-.5-.6-1-.5-1.5s.2.2.4 0-.2-.9-.6-1.1.6-.2.8-.4l-.5-.3c-1.3-.8.1-1.9-.6-2.9s.2.2.3.1c-.8-1.7-.6-3.8-.9-5.6a1.1 1.1 0 0 0 .8 0c-.6-.1-.7-.7-.8-1.2s-.5-.9-.2-1.4h.1c-.6-.4.4-.6-.4-1l.5-.3c-.8-.2.4-.6 0-1h-.2c-.2-.3.2-.5.1-.8h.1c-.2-.7.2-1.2-.4-1.1s.2.7 1 .3a28 28 0 0 1-.5-7.3c.3-.3.3-.5.6-.5s-.1-.9-.4-1.1.3-.2.4-.3-.7-.5-.4-1a.6.6 0 0 0 .6.2c-.5-.4-.4-1-.6-1.5s.2.2.4.2.1-1-.2-1.4l.4.2c.4-.8-.8-.2-.5-.9s.3.1.4.1-.5-1.6-.7-2.2h.2a7.2 7.2 0 0 0-.2-2.1c.2-.3.9.1.8-.6s-.3-1.2-1.1-.8.4-1.5.1-1.9.9-.3 1 .2l.4-.4c.3.1-.1.4.3.3s-.3-1-.2-1.2-1.3-.9-1.4-1.6.8-.2.9 0l-1.4-1c0-.2.6-.1.4-.4s-.3-.1-.5-.2-.2-1 .5-1.1.2.4.4.1-.3-.5-.3-.9h.1c.1-.3-.3-.9-.7-.6s.4-.1.2.2a1.3 1.3 0 0 1-.6-1.2c.1.2.3.1.5.2a4.9 4.9 0 0 1-1-2c-.3 0 .6.3.4.4s-.7-1.8 0-2.6-.5.1-.4.1.5-.4.4-.7l-.2-.6c-.1-.3.1-.1.2.2a4 4 0 0 1-.3-2.9c-.2 0-.7-.6-.7-.8h.6c.3-.2 0-.7.4-.7s.5 1.7 0 1.1-.7-.9-.1-.7-.5-.8-.1-1.2.6.3.6 0-.2-.2-.4-.7l-.2-.3c-.4 0 .1-.5-.4-.3s-.2-.9.5-.8h.6c0-.3-.6-.4-.9-.6h.3c-.9 0 .1-.6-.6-.9s0-1.4.6-1.7-.6-.8-.4-1.3.1.2.3.3 0-.4-.1-.7.5-.6.8-.9-.7-.3-1-.3-.6-1.2.2-1.7.4.6.7.3-.6-.8-.2-1.4l-.7.2c.5-.3-.4-.9.3-.8s.2-.7-.5-.7-.4-2.5.9-3.1 0-.5-.4-.4.3.3 0 .4-.2-.2-.3-.2.2-.6.8-.3-1.2-.7-.9-1.6.4 0 .4-.3l-.5-.5c.1-.6.7-.3 1.2-.3s-.1-.7-.4-.8l.6-.4c-.5.3-.3-.3-.4-.4h.1c.2-.1.1-.4 0-.6s-.4.4-.5.6-.2-.4-.4-.6.3-.5.4-.7-.4-.3-.4-.4 0-.5.4-.2-.2.2 0 .4.6-.2.3-.5-1 .1-.7-.5l.5.3.3-.5h-.2c-.5-.2-.1-.8-.7-.9s.3-.5.4-.8c.3-.3.1-.7-.2-1h.1a.9.9 0 0 0-.3-.8c.3-.4 1.7-.1 1.1-.6s-.8-.7-1.1-.5-.4-1.6.3-2.3-.3 0-.4-.3-.5-2.4.3-3.3.4 0 .7 0 .4-.3-.3-.4-.6 0-.8.3a2.4 2.4 0 0 1 .2-2.1c-.2.2-.3 0-.4-.1s.7-.4.5-.8h-.4l.4-.2c-.1-.1-.8-.2-.4-.5h.4c-.3-.4-.9-.9-.5-1.3l.6-.3c-.1-.2-.4-.5-.6-.2s.4-1.2.9-1.4c-1.2-1.2-1.3-3-1.2-4.4h.3c.3-.4-.5-.2-.3-.5s.6-.3.9 0-.5-.7-.6-1.1.2.3-.2.2.3-.8-.3-.8a1.3 1.3 0 0 1 .9 0l-.3-.3c.7-.4 1.2.9 2.1.5V48c.6-.3.7.8.9 0s-1.1-.6-1.4-.3-1.4-.3-1.3-1.1.1.6.6.5-.3-.7-.1-1-.8.1-.9-.2.6.2.6-.3-.6-.6-.8-.2.2-.6-.4-.9 1.2.6 1.5 0-.7-.7-1.5-.4a.7.7 0 0 1 .9-.1c.3-.3-.9-.8.1-.9h-.5l.6-.4c0-.3-.7-.9.1-.9s0-.8-.6-.5.4.5-.3.7-.1-.6-.3-.8h.3c-.1-.1-.1-.5-.4-.6a.3.3 0 0 0 .5-.1l-.5-.2c-.2-.6.8-.1.7-.7l.4.4c-.1-.1.4-.3.2-.6l-1.3-.4c-.2-.3.5-.1 0-.5l.5.4c.1.1.7-.3.7-.7s-.8-.7-1-.3a.4.4 0 0 1 .6-.3c-.1-.5-.5.1-.7-.4l1.1-1 .7.4v-.3c.6.4.4-.2 1 0s-.1-.4-.3-.6-1.3-.7-2.2-.5 2.1-.5.8-1.3-.9-.3-.6.2-.9-.3-.5-.9.9-.5 1.4.2-.2.3-.1.4.9 0 .9-.5-.1-.7-.6-.7.1.5-.5.3.6-.7-.3-1-.5.5-.8.5l-.2-.5h.3c.2-.7-.6-.2-.5-.9l.7-.3c.6.2-.3 1 .7.9s-.4-.6-.2-1l.2.3c0-.2 1.3-.3.5-1s-.3-.1-.7-.1-.5-1-.5-1.4.1-.8.8-.3a1 1 0 0 0 .3 1.6c.8-.3-.1.6.7.7s.8-.6 1.3-.7-.2-.3-.3-.4-.5.1-1 .2a1.7 1.7 0 0 0-.6-1.7c.2-.2.7-.2.8.1a6.4 6.4 0 0 1 .1-2.4c-.8.5-.2-.8-.9-.5s-.7.7-1.1.5.3 0 .5-.1.7-.5 0-.8 1 .1 1.6.3.4 0 .4-.5a5.4 5.4 0 0 1-.8-1.7c.6-.7 0-1.8 0-2.5s1-.1 1.1-.5-.8.3-.4-.3h.1c-.2-.2.5-1.2-.5-1.3l.8.2c.1-.1-.1-.2-.2-.3s.5-.1.6 0-.1-.8-.1-1.2l-.5.3c-.4-.7.1-1.2-.1-1.9h.4l-.3-.4c.4.1.7-.3.3-.5l.9 1.1c-.3.3-.5-.3-1-.1s-.3.8.2.9 0-.3-.2-.5.6.3 1 .5.2-.3 0-.3a1.1 1.1 0 0 1 .4.9c-.2-.3-.4.2-.6 0s.7.4.6 1 .4 1 .2 1.6a2.7 2.7 0 0 1-1.2-.9c-.3.4 0 .4-.3.8s1 .3 1.3.8H92c.2.5.8.5.7 1a20.2 20.2 0 0 0-.3 2.8H92c.9.4.3 1.4.7 2s.4 2.1-.3 2.6a17.8 17.8 0 0 1 .5 4.9l-.6-.3c.4.3-.3.2-.3.5s.6.4 1 .6 0 1.8.5 2.5H93c.8.7.1 1.5 0 2.4s-.5.3-.5.5.6.7 1 1.4a4.9 4.9 0 0 1-.4 1.8c.9 1.9.3 3.9.9 5.8h-.5c1 1.9.1 4.3.6 5.9l-.8-.2a.7.7 0 0 0 .8 1c-.2.5.4 1.3-.3 1.6s.4.6.5 1.1a4.4 4.4 0 0 0-.1 2.4v-.2c-.2-.1-.5-.1-.6.1s-.2 1.4.8 1c-.6 1.1.5 2.5-.3 3.5s.3.2.5.3-.5 1.9-.1 2.7-.5-.2-.5.1.3 0 .5.3-.5 3.1-.4 4.4.3 5 .3 7.3h-.2c.7.8-.8 1.8.4 2.5s-.1.7-.5.6-.5 1.7.2 2.7 0-.1-.1-.2.2 1.7-.2 2.7-.1-.3-.3-.3.8.9-.1 1.1.5.2.4 0c-.4 2.1.2 4.4.4 6.5s-1.6.1-.9 1.3.4.1.2.1-1.1.7-.6 1.1.3.2.7.2-.9 1.2-.5 1.9H93c.9.9.4 1.9 1.4 2.7.2 4.9.7 9.6.8 14.4s.3 9.3-.3 14.1c-.8 1.1-.8 1.2-.5 2.4s-.2-.1-.3 0 .1.9.7 1c-.1 1.8.1 3.4.1 5.2-.1-.3-.6-.4-.6-.1l.4.4h-.2c.1.2.4.5.6.2.6 4.6-.7 9.1-.6 13.6a11.6 11.6 0 0 0 .1 3.7c-.9 3.4-1.6 6.5-1 10a3.1 3.1 0 0 1-1.7-1.3zm.4-152.5c-.3.1-.5.5-.9.2s.6-.3.9-.2z"/><path fill="#fff" d="M88.9 24.5c.1 0-.1.2-.2.2s-.3-.3-.1-.4.2.2.3.2zm-.2 2.7c-.3 0-.5-.6-.6-1zm-1.2 2.6c-.2.2-.4.2-.4-.1zm.7.2c0 .2-.2.3-.3.4s-.2-.5.3-.4zm-.8 5.5c0 .1.3.4-.1.5s-.4-.6.1-.5zm.4 2.5c0 .1-.1.1 0 .2s-.3 0-.4-.1zM89 84.7l-.2-.3h.3l-.1.3zm0 20.4c.2.3-.3.2-.3.2s.3.1.3-.2zm1.4 11v-.1l.6.1h-.6zm3.7-36.9c-.2.2.2.5-.1.2s0-.4.1-.2z"/><path fill="#fff" d="M138.6 94.5c-.6 1.5-1.3-.1-2 .8s.1-.8-.1-.6-1.6.3-2.2-.7v-.2c-.1-.2-.4.6-.5.4a1.8 1.8 0 0 0 .1-.4c-.1.5-.3.2-.4.5s0-.6 0-.8l-.2.5c-.4 1.2-.5-.2-1 .4a1 1 0 0 0 .1-.3c-.6.7-1.3.4-1.9.6a3.3 3.3 0 0 0 .2-.7c-.1.5-.3.7-.5.7s-.4.5-.5.1c-.3.6-.1-.4-.4.3v-.5c-.2.8-.1-.5-.3-.1v.2c-.1.2-.1-.2-.2-.1-.3.2-.3-.3-.4.3s.3-.2.3-.9a2.9 2.9 0 0 1-2.3-.1 2 2 0 0 1 0-.6c-.1.1-.3 0-.5.3a.8.8 0 0 0 0-.4c-.1-.3-.3.6-.4.3a1.5 1.5 0 0 0 .2-.6c-.3.4-.4.3-.6.4l.2-.3c-.3.5-.3-.2-.5.1l.2-.3c-.1-.5-.3.7-.4.4l.2-.4c-.4.6-.6.3-.9.4h.1c-.2 0-.4-.3-.7 0s.3-.8.1-.8-.4.2-.6 1-.3-.5-.5-.3.2-.9.4-.9v-.5c.1-.3.1.1.2-.2s-.4.2-.4.1-.7 1.1-1 1.1.2-.8.3-.9L121 93c-.1 0 .2-.6 0-.4l-.2.4c0-.1-.4.1-.1-.6s.2-.1.2-.4h-.3c0-.1-.4.2-.4.6s.1-.4.2-.2-.4.4-.6.4l.2-.5a2.2 2.2 0 0 1-.9.7c-.1.3.3-.6.3-.4s-.8.4-.7-.3-.2.5-.1.4.1-.6-.1-.4-.1 0-.3.1 0-.1.1-.1-.9.4-1-.1-.5.6-.5.5l.2-.4c.1-.3-.2-.1-.1-.4s.7-.2.3.1-.5.6-.3 0-.5.4-.4-.1.4-.5.2-.5-.1.2-.3.3h-.2c-.2.4-.1-.1-.3.4s-.3.1 0-.6l.3-.5c-.1 0-.4.5-.5.7v-.3c-.4.8-.1-.2-.5.4s-.4-.2-.3-.8-.5.4-.6.1l.2-.2c0-.3-.1-.1-.3 0a5.4 5.4 0 0 0 .1-.9 2.9 2.9 0 0 0-.6.8c.3-.8-.7.3-.4-.5s.4-.3.4-.5-.6.4-.5-.1l-.4.6c.2-.4-.5.2-.1-.4s-.1-.3-.4.3-.9-.1-.3-1.3-.1-.1-.3.2.2-.2.1.1l-.2.2c0-.2 0-.3.4-.7s-.9.9-.9.5.2-.3.1-.3l-.4.3c-.1-.2.3-.6.6-1s-.2-.1-.4.2l.2-.6c-.2.4-.2.2-.3.3h.1c.1-.2-.1-.1-.1-.1a.9.9 0 0 0-.1.5l-.4.3c.3-.4.1-.4 0-.4s-.3.3-.3.3-.1-.1.1-.4-.1.2.1.1.3-.6 0-.3-.5.8-.4.5l.3-.4v-.3l-.2.4V88c-.3.4-.2 0-.5.5s0-.3 0-.4c0-.3-.1-.2-.3.1s-.1 0-.3.2.6-1.6.3-1.1-.5.7-.6 1-.6.2-.5-.5l-.2.3c-.2-.3-.8.3-.8-.7s.2-.4.2-.7 0-.4-.2.2a1.7 1.7 0 0 0-.2.7c-.3.1-.6 0-.5-.4a.6.6 0 0 1-.2.4c.2-.6.1-.7-.1-.6-.1.1-.3.8-.3.4V87c-.2.3-.6.7-.6.4v-.6a.7.7 0 0 0-.2.5c-.1-.4-.2-.5-.1-1s-1.4.8-1.9.5v-.3c0-.3-.3.4-.3.2s.2-.6.4-.9-.4.4-.6.4.2-.2 0 .2-.1-.4-.4.1a3.9 3.9 0 0 1 .4-.8l-.2.2c.2-.7.8-1 1.1-1.8h-.1c.2-.6.5-.5.4-.8a3.3 3.3 0 0 0-.7 1.2c-.3 0-.7 1.2-.9 1s.2 0 .4-.4-.3.1-.3-.1a1.5 1.5 0 0 1-.5.8c0-.3.3-.5.2-.6s-.4.4-.4.7-.1-.3-.4.2.7-1 .7-1.4-.5.5-.8 1.3a2 2 0 0 1 .4-.8c.1-.3-.6.7-.2-.2l-.3.5v-.6c-.1 0-.6.5-.2-.2s-.2-.1-.4.5.3-.3 0 .4-.2 0-.3.1v-.3c-.1.1-.2 0-.3.3l.2-.4-.2.4c-.3.1.3-.8.1-.7l.3-.3c-.1.1.1-.4-.1-.3l-.7 1.1c-.2.1.2-.5-.1-.1l.3-.4c.1-.1.2-.7.1-.7a1.6 1.6 0 0 0-.5.9c-.1 0 0-.3.2-.6s-.2.4-.4.6.1-.7.2-1.1l.4-.6h-.1c.3-.5.1-.4.4-.9s-.2 0-.3.2-.7 1.1-1 2 .7-2 0-.9-.4.8-.2.6-.4.8-.4.4.2-.9.6-1.3 0 .2.1.2.4-.8.2-.9-.2 0-.4.4.1 0-.1.5 0-.6-.4.2-.1.5-.2.8h-.2l.2-.3c-.1-.3-.3.5-.4.4l.2-.6c.3-.5.2.3.5-.5s-.3.3-.3.1h.2s.4-1.2-.1-.6-.1.3-.3.6-.4.3-.5.3-.2-.1.2-.7.2.5.5-.1.1.2.4-.6.1-.8.3-1.3l-.2.2c-.2.5-.1.5-.3.9s-.4 0-.6.4a1.4 1.4 0 0 1 .3-.7.6.6 0 0 1-.6-.3c-.1.8-.3.1-.4.8a2.3 2.3 0 0 1-.2 1.1c0-.1.1-.3.1-.5s.1-.7-.2-.1.3-.9.5-1.5.1-.4 0-.5l-.7.6c0-.6-.5-.1-.6-.1s.1-1 .1-1.2 0 .8-.2.4c-.1.1-.3-.5-.4.5v-.8c0-.1-.1.1-.1.2a2.3 2.3 0 0 1 .1-.6c-.1-.5-.3.1-.4.1v.5c-.2.3-.3-.1-.5.1v-.2c0-.4-.1-.7-.2-.3a8.8 8.8 0 0 1 .3-1.1c.1.3-.1.5 0 1s.2.3.3-.2-.1 0-.1.2a2.5 2.5 0 0 1 .2-1s-.1-.2-.1 0 .2-.4.3-.4 0 .4 0 .6.2-.7.4-.5.4-.4.6-.2a5.3 5.3 0 0 1-.5 1.2c.1.3.1 0 .2.3a3.7 3.7 0 0 1 .5-1.2v.4c.2-.2.3-.8.5-.6a3.2 3.2 0 0 0 .9.5v.4c.4-.8.5-.2.8-.5s.8-.1.7.6a2 2 0 0 1 1.7.2l-.3.5c.3-.4-.1.3 0 .3s.4-.5.6-.8.5.2.9-.1l-.2.4c.5-.6.5.1.7.4s-.2.5-.1.5a2.5 2.5 0 0 1 .9-.7.8.8 0 0 1 .3.6c.9-.6 1.2.2 2 0l-.2.4c.9-.7 1.1.4 1.7.1l-.3.7c0 .3.4-.1.6-.6s.5-.2.3.4.3-.3.5-.3.3.4.7.3h.3c-.1.2-.2.5-.2.6s.3.4.5-.6c.1.6.9-.2 1 .7s.2-.3.3-.4.4.7.8.4-.3.4-.1.5.1-.3.3-.4.9 1 1.4 1.1 1.7.8 2.3 1.1v.2c.6-.5 0 .9.8.1s.1.2-.1.5.1.7.7.2h-.1c0 .5.4.1.4.5l-.2.3c-.1.4.6-.6.2.2l.2-.4s.5.4.8.4h1c.2.7-.6 1.5 0 1s.2-.3.1-.1-.2 1.1.1.6.2-.3.3-.6 0 1 .3.6v.3c.6-.7.7-.2 1.3-1s2.9.3 4.2.6 2.6.6 3.8 1.4.2.8.6.6a.7.7 0 0 0-.1.3c.2-.6.3 0 .4-.6a5.5 5.5 0 0 0 1.5.3c-.1.1-.2.6-.1.5l.2-.4v.2a.9.9 0 0 0 .2-.6c1.4-.3 2.4 1.2 3.7 1.2s.7.1 1.1 0 1.8 1.7 2.8 1.1-.3 1.4-.8 1.8z"/><path fill="#fff" d="M94.3 79.1a1.7 1.7 0 0 1 .2.9c0-.3-.1-.6-.2-.9zm2.8 3.7v.2c0 .1-.1.3-.1.1zm.6.4a.7.7 0 0 1-.4.4zm.3 1.3c0 .3-.1.4-.2.3zm.2-.6c.1 0 0 .2 0 .3s-.2.2 0-.3zm1.1 1.4s.2-.2.1.1-.3.3-.1-.1zm.9-.1h.1a.5.5 0 0 1-.2.3zm13.1 5.1l-.1.1.1-.3v.2zm6.1 2.9c.1-.1 0 .3 0 .3s.1-.3 0-.3zm3.8-.2h-.1l.2-.6-.1.6zM134 10.6c.1-.6-.6.1 0-.5s.2.4 0 .5zm-4.9 183.8a4.7 4.7 0 0 1-1-3.6 10.6 10.6 0 0 0-.2-3.9c-.1-.3.8.1.7-.5-1.1-2.4-.1-6.1.9-8.9l.2.2c.2-.6-.6-1.3-.5-1.8s.2.2.4.1-.2-1-.6-1.3.6-.2.8-.5l-.5-.3c-1.3-.9.1-2.2-.6-3.5s.2.2.3.1c-.8-2-.6-4.5-.9-6.8a.9.9 0 0 0 .8 0c-.6-.1-.7-.8-.8-1.4s-.5-1-.2-1.7h.1c-.6-.5.4-.8-.4-1.2l.5-.3c-.8-.2.4-.8 0-1.2h-.1c-.2-.4.2-.6.1-1h.1c-.2-.9.2-1.4-.4-1.4s.2.9 1 .4a40.8 40.8 0 0 1-.5-8.9c.3-.3.3-.5.6-.6s-.1-1.1-.4-1.4.3-.2.4-.3-.7-.6-.4-1.2a.5.5 0 0 0 .6.2c-.5-.5-.4-1.2-.6-1.8s.2.2.4.2.1-1.2-.2-1.8l.4.2c.4-.9-.8-.3-.5-1.1s.3.1.4.2-.5-1.9-.7-2.7h.2a10.5 10.5 0 0 0-.2-2.5c.2-.3.9.1.8-.7s-.3-1.4-1.1-.9a5.2 5.2 0 0 0 .1-2.4c.3.3.9-.3 1 .3l.4-.5c.3.1-.1.5.3.3s-.3-1.2-.2-1.5-1.3-1.1-1.4-2 .8-.2.9.1l-1.4-1.3c0-.3.6-.1.4-.5s-.3-.2-.5-.3-.2-1.3.5-1.4.2.5.4.2-.3-.6-.3-1.1h.1c.1-.4-.4-1-.7-.6s.4-.1.2.3a1.7 1.7 0 0 1-.6-1.4c.1.2.3.1.5.2a7.1 7.1 0 0 1-1.2-2.2c-.3 0 .7.2.5.4s-.9-2-.4-3-.5.1-.4.1.5-.6.2-.9-.2-.4-.3-.7.1-.1.2.2a5.6 5.6 0 0 1-.7-3.5c-.2 0-.8-.6-.8-.9h.5c.2-.3-.1-.9.3-1s.6 2.2.2 1.4-.8-1-.2-.9-.6-1-.2-1.6.7.4.6 0-.2-.2-.4-.8l-.2-.4c-.4 0 0-.7-.4-.4s-.2-1.1.5-1h.6c0-.3-.6-.5-.9-.8h.3c-.9 0 .1-.8-.6-1.1s0-1.7.6-2-.6-1-.4-1.6.1.3.3.3 0-.5-.1-.8.5-.7.9-1.1-.7-.3-1-.4-.5-1.4.2-2 .4.7.7.3-.6-.9-.2-1.7l-.7.2c.5-.3-.4-1.1.3-1s.2-.9-.5-.8-.4-3 .9-3.7 0-.6-.4-.5.3.4 0 .5-.2-.2-.3-.2.2-.7.8-.3-1.2-.9-.9-1.9.4 0 .4-.3l-.5-.6c.1-.7.7-.4 1.2-.4s-.1-.8-.4-1l.6-.5c-.5.3-.3-.3-.4-.5v.2c.2-.1.1-.5 0-.7s-.4.5-.5.7-.2-.5-.4-.7.3-.6.4-.9-.4-.4-.4-.5 0-.6.4-.3-.2.3 0 .5.6-.2.3-.7-1 .1-.7-.6l.5.3.3-.6h-.2c-.5-.2-.1-.9-.7-1.1s.3-.7.4-1a.9.9 0 0 0-.2-1.2h.1a1.2 1.2 0 0 0-.3-.9c.3-.5 1.7-.2 1.1-.7a.8.8 0 0 0-1.1-.6c.3-.9-.4-2 .3-2.8s-.3 0-.4-.3-.5-2.9.3-3.9.4 0 .7 0 .4-.4-.3-.5-.6 0-.8.4a3.5 3.5 0 0 1 .2-2.5c-.2.2-.3.1-.4-.1s.7-.5.5-1h-.4l.4-.3c-.1-.2-.8-.2-.4-.6h.4c-.3-.5-.9-1.1-.5-1.6l.6-.4c-.1-.2-.4-.6-.6-.2s.4-1.4.9-1.7c-1.2-1.5-1.3-3.6-1.2-5.4h.3c.3-.5-.5-.2-.3-.6s.6-.4.9 0-.5-.8-.6-1.3.2.3-.2.3.3-.9-.3-1 .7 0 .9 0l-.3-.4c.7-.5 1.2 1.1 2.1.6v-.4c.6-.4.7 1 .9 0s-1.1-.7-1.4-.4-1.4-.3-1.3-1.4.1.8.6.6-.3-.9-.1-1.4-.8 0-.9-.3.5.4.6-.4-.5-.8-.8-.3.3-.8-.3-1.2 1.2.9 1.5.1-.6-1-1.4-.7a.6.6 0 0 1 .9 0c.4-.4-.8-1.2.2-1.2l-.5-.2.7-.4c.1-.4-.5-1.3.3-1.1s.1-1-.5-.7.3.7-.5.8.1-.8-.1-1.1h.3c-.1-.2.1-.6-.2-.8a.3.3 0 0 0 .5 0l-.4-.3c-.1-.8.8 0 .9-.7l.2.6c-.1-.1.4-.3.4-.6l-1.1-.7c-.1-.4.5-.1.2-.5l.4.6c.1.1.8-.2.9-.7s-.6-1-.9-.5.4-.5.6-.3-.5 0-.6-.6l1.3-.9.6.7V37c.5.6.5-.1 1 .2s0-.5-.1-.8-1.1-1-2.1-1 2.2-.2 1-1.4-.8-.4-.7.2-.8-.5-.4-1.1 1-.4 1.4.4-.3.4-.2.5.9.2 1-.4 0-.9-.4-.8 0 .5-.5.2.7-.7-.2-1.1-.5.5-.9.4l-.2-.5h.3c.3-.8-.6-.3-.4-1l.7-.3c.6.2-.3 1.1.6 1s-.4-.7-.1-1.1l.2.4c0-.2 1.3-.3.6-1s-.3-.1-.7-.1a1.7 1.7 0 0 0-.3-.8 1.8 1.8 0 0 1-.3-.6c.7.1 0-1 .7-.4a1 1 0 0 0-.2.9 1.1 1.1 0 0 0 .2.5l.4.3c.8-.3-.1.6.7.8s.8-.6 1.3-.7-.2-.4-.3-.5-.5.2-1 .2a2 2 0 0 0-.7-1.8c.2-.3.7-.2.8.1a8.1 8.1 0 0 1-.1-3c-.8.7-.2-1.2-.8-.7s-.8 1.1-1.1.7.3 0 .5-.1.7-.7.1-1.3.3.7.6.6a1.9 1.9 0 0 1 .9-.1c-.3-.8.4.1.5-.6a4.9 4.9 0 0 1 .1-2.5 1.9 1.9 0 0 0 .8-1.2 6.6 6.6 0 0 0 .1-1.1c.4-.3 1 0 1.2-.4s-.8.3-.4-.4h.1c-.1-.2.6-1.3-.4-1.6l.8.3c.1-.1-.1-.3-.2-.4s.5-.2.6.1-.1-1 0-1.5l-.5.3c-.3-.9.2-1.5.2-2.4h.4l-.2-.6c.4.2.8-.2.5-.5l.3 1.7c-.3.3-.5-.5-.9-.3s-.4 1 0 1.1 0-.3-.1-.6.5.4.9.7.2-.3 0-.4a1.4 1.4 0 0 1 .3 1.1c-.2-.3-.4.2-.6 0s.7.5.5 1.2.4 1.2.1 2a3.3 3.3 0 0 1-1.1-1.2c-.3.4 0 .5-.3 1s1 .5 1.2 1.2h-.4c.1.6.7.8.3 1.6a21.4 21.4 0 0 0-1.5 2.9h-.4a1.1 1.1 0 0 1 .4 1 2 2 0 0 0 .1 1.1c-.4 1.1.5 2.4-.1 3.1a14.8 14.8 0 0 1 .1 6.3l-.5-.5c.4.5-.4.2-.3.6s.5.6.8 1a4 4 0 0 0-.2 3.1h-.4c.6 1-.3 1.8-.7 2.8s-.6.2-.6.5.4 1 .7 1.8a7.4 7.4 0 0 1-.8 2 12.5 12.5 0 0 1 .3 3.3 16.4 16.4 0 0 0 .3 3.4l-.5.2c1 2.3.1 5.2.6 7.2l-.8-.2c-.3.6.2 1.4.8 1.3s.4 1.6-.3 2 .4.8.5 1.3a6.5 6.5 0 0 0-.1 3v-.3c-.2-.1-.5-.1-.6.2s-.2 1.7.8 1.2c-.6 1.3.5 3-.3 4.3s.3.2.5.3-.5 2.3-.1 3.2-.5-.3-.5.2.3 0 .5.3-.5 3.7-.4 5.4.3 6 .3 8.9h-.2c.7.9-.8 2.2.4 3s-.1.9-.5.7-.5 2.1.2 3.2 0-.2-.1-.3.1 2.1-.3 3.2-.1-.3-.3-.4.8 1.1-.1 1.3.5.2.4 0a14.8 14.8 0 0 0 0 3.9c.1 1.3.4 2.6.5 3.8s-1.6.2-.8 1.6.4 0 .2.1-.9 1-.4 1.3.4.2.7.2-.7 1.5-.1 2.3h-.3c1 .9.7 2.2 1.8 3.1s.5 3.1.6 4.7l.3 4.4c.2 2.9.3 5.7.4 8.6-.2 5.7.3 11.3-.3 17.1a2.8 2.8 0 0 0-.5 3c-.1-.1-.2-.2-.3-.1s.1 1.1.7 1.2c-.1 2.1.1 4.1.1 6.3-.1-.3-.6-.5-.6-.1l.4.4h-.2c.1.3.4.6.6.3a43.6 43.6 0 0 1-.1 8.3l-.3 4.1c-.1 1.5-.2 2.9-.3 4.3a16.5 16.5 0 0 0-.2 4.5 31.7 31.7 0 0 0-1.2 5.7 10 10 0 0 0 .8 5.2h-1a2.4 2.4 0 0 1-1.4-1.8zm4.7-183c-.4 0-.7.4-1-.1s.7-.1 1 .1z"/><path fill="#fff" d="M127.8 23.1c.1 0-.2.2-.2.3s-.2-.5 0-.6.1.2.2.3zm-.2 3.8c-.3 0-.6-.8-.6-1.2zm-1 2.9c-.2.2-.4.2-.4-.1zm.6.2c0 .2-.2.3-.3.4s-.2-.5.3-.4zm-1.6 5.9c0 .2.2.5-.2.6s-.2-.8.2-.6zm-.2 3c0 .1-.1.1 0 .3s-.3-.1-.3-.2zm-.4 57l-.2-.3h.3l-.1.3zm1.4 24.8c.2.3-.3.2-.3.3s.3.1.3-.3zm1.5 13.1v-.1l.6.1h-.6zm27.3-122c-.5 0 .2.6-.4.2s.3-.4.4-.2zm6.2 129.4a2.4 2.4 0 0 1-.7-2.5 4 4 0 0 0-.1-2.7c-.1-.2.8 0 .6-.4a5.4 5.4 0 0 1-1-2.9 11.8 11.8 0 0 1 .2-3.4h.3c.1-.4-.8-.7-.7-1.1s.2.1.4 0-.3-.7-.7-.8.5-.2.7-.4l-.6-.2c-1.3-.5 0-1.5-.7-2.4h.3c-.8-1.4-.6-3.2-.9-4.8a1.2 1.2 0 0 0 .7 0c-.6-.1-.7-.6-.8-1s-.5-.7-.2-1.2h.1c-.6-.4.4-.5-.4-.9l.5-.2c-.8-.2.4-.5 0-.8h-.2c-.2-.3.2-.4.1-.7h.1c-.2-.6.3-1-.4-1s.2.6 1 .3c-.6-2-.8-4.1-1.2-6.1.2-.3.3-.4.5-.5s-.3-.7-.6-.9.3-.2.3-.3-.8-.3-.6-.7a.6.6 0 0 0 .6 0c-.6-.2-.6-.7-.8-1.1h.4c-.6-.3 0-.8-.4-1.2h.4c.4-.7-.8-.1-.6-.7s.3.1.4.1-.6-1.3-.8-1.8h.2c-.1-.6.1-1.2-.2-1.8s.9.1.8-.5-.3-1-1.1-.7.4-1.3.2-1.6.9-.2 1 .2l.5-.3c.3.1-.1.3.3.2s-.3-.8-.2-1-1.3-.8-1.4-1.4.8-.2.9 0l-1.4-.9c0-.2.6 0 .4-.4s-.3-.1-.5-.2-.2-.9.5-1 .2.3.4.1-.3-.4-.3-.8h.1a.5.5 0 0 0-.7-.5c0 .2.4-.1.2.2a1.1 1.1 0 0 1-.6-1l.5.2a4 4 0 0 1-1-1.7c-.3 0 .6.2.4.3s-.7-1.5 0-2.2-.5.1-.4 0 .5-.3.4-.6-.1-.3-.2-.5.1-.1.2.1a2.9 2.9 0 0 1-.3-2.5c-.2 0-.7-.5-.7-.7h.5c.3-.2 0-.6.4-.6s.5 1.5 0 1-.7-.7-.1-.6-.5-.7-.1-1.1.6.3.6 0-.2-.1-.4-.6l-.2-.3c-.4 0 .1-.5-.4-.3s-.2-.7.5-.7h.6c0-.2-.6-.4-.9-.5h.3c-.9 0 .1-.5-.6-.8s0-1.2.6-1.4-.6-.7-.4-1.1.1.2.3.2 0-.3-.1-.6.5-.5.8-.8-.7-.2-1-.3-.6-1 .2-1.4.4.5.7.2-.6-.7-.2-1.2h-.7c.5-.2-.4-.8.3-.7s.2-.6-.5-.6-.4-2.1.9-2.6 0-.4-.4-.4.3.3 0 .4h-.3c.2-.3.2-.5.8-.2s-1.2-.6-.9-1.3.4 0 .4-.2l-.5-.4c.1-.5.7-.3 1.2-.3s-.1-.6-.4-.7l.6-.3c-.4.2-.3-.2-.4-.3h.1c.2-.1.1-.3 0-.5s-.4.4-.5.5-.2-.3-.4-.5.3-.4.4-.6-.4-.2-.4-.3 0-.4.4-.2-.2.2 0 .3.6-.2.3-.5-1 .1-.7-.4l.5.2.2-.4h-.2c-.5-.1-.2-.6-.7-.7s.3-.5.3-.7c.2-.3 0-.6-.3-.8h.1a.7.7 0 0 0-.3-.6c.3-.4 1.7-.3 1.1-.6s-.9-.5-1.1-.3-.6-1.3 0-1.9-.3 0-.4-.2-.8-1.8-.1-2.6.4-.1.7-.1.4-.3-.3-.3-.6.1-.7.4-.5-1.5-.2-1.9-.3.1-.4 0 .7-.5.4-.8h-.4l.4-.3c-.1-.1-.8-.1-.5-.4h.4c-.3-.3-.9-.8-.6-1.2l.6-.3c-.1-.2-.4-.4-.6-.1s.4-1.1.9-1.3a4.3 4.3 0 0 1-1.1-3.9h.3c.3-.3-.5-.2-.3-.4s.6-.2.9 0-.5-.6-.6-.9.2.3-.2.2.3-.6-.3-.7a1.5 1.5 0 0 1 .9.1l-.3-.3c.7-.3 1.2.8 2 .5v-.3c.6-.2.7.7.9.1s-1.1-.6-1.4-.3-1.4-.3-1.3-.9.1.5.6.4-.2-.6-.1-.9-.8 0-.9-.2.5.2.6-.2-.6-.5-.8-.1.2-.5-.4-.7 1.2.5 1.5 0-.7-.6-1.5-.4a.8.8 0 0 1 .9-.1c.3-.3-.9-.7.1-.8h-.5l.6-.4c0-.2-.7-.8.1-.8s0-.6-.6-.4.4.4-.3.6-.1-.5-.3-.7h.3c-.1-.1-.1-.4-.4-.5a.4.4 0 0 0 .5-.1h-.5c-.2-.5.8-.1.7-.6l.4.4c-.1-.1.4-.2.2-.5l-1.3-.3c-.2-.3.5-.1 0-.4l.5.3c.1.1.7-.2.7-.6s-.8-.6-1-.2a.4.4 0 0 1 .6-.3c-.1-.4-.5.1-.7-.3l1.1-.9.7.4V31c.6.3.4-.2 1 0s-.1-.4-.3-.5-1.3-.6-2.2-.4 2.1-.4.8-1.1-.9-.2-.6.2-.9-.3-.5-.8.9-.4 1.4.1-.2.3-.1.4.9 0 .9-.4-.1-.6-.6-.6.1.4-.5.2.6-.6-.3-.8-.5.4-.8.4l-.2-.4h.3c.2-.6-.6-.2-.5-.8l.7-.3c.6.1-.3.9.7.8s-.4-.5-.2-.9l.2.3c0-.1 1.3-.3.5-.8s-.3-.1-.7-.1-.5-.8-.5-1.2.1-.8.8-.3a.8.8 0 0 0 .3 1.3c.8-.2-.1.5.7.6s.8-.5 1.3-.6-.2-.3-.3-.4-.5.1-1 .1a1.4 1.4 0 0 0-.6-1.4c.2-.2.7-.1.8.1a4.4 4.4 0 0 1 .2-2.1c-.8.4-.1-.7-.8-.5a1 1 0 0 1-1.1.4c.1-.2.3 0 .5-.1s.7-.4.1-.7 1 .2 1.6.3.4 0 .5-.4a4.4 4.4 0 0 1-.7-1.5c.6-.6.1-1.5.1-2s1-.1 1.1-.4-.8.3-.4-.3h.1c-.2-.1.5-1-.6-1.1h.8c.1-.1-.1-.2-.2-.3s.5-.1.6 0-.1-.7-.2-1l-.4.3c-.4-.5 0-1-.3-1.5h.4l-.3-.3c.4 0 .6-.4.2-.5l1.3.6c-.2.3-.6-.2-1 .1s-.1.7.3.7-.1-.2-.3-.3.6.1 1.1.2.1-.3-.1-.3a.9.9 0 0 1 .5.8c-.3-.2-.4.2-.6.1s.8.3.6.8.4.9.3 1.4a2.9 2.9 0 0 1-1.2-.8c-.3.3 0 .4-.2.7s1 .3 1.3.7h-.4c.2.4.8.4.7.9a18.1 18.1 0 0 0-.4 2.4h-.4c.8.4.2 1.2.6 1.7s.3 1.7-.4 2.1a12.8 12.8 0 0 1 .5 4.2l-.6-.2c.4.3-.3.2-.3.4s.6.4 1 .5 0 1.5.5 2.1h-.6c.8.6.1 1.3 0 2s-.5.2-.5.4.6.6 1 1.2a3.6 3.6 0 0 1-.4 1.6c.9 1.6.3 3.4.8 5h-.5c1 1.7 0 3.6.5 4.9h-.8c-.2.4.2.9.8.8s.4 1-.2 1.3.4.5.6.8a2.2 2.2 0 0 0 .2 1.8v-.2c-.2 0-.5 0-.6.2s0 1.2.9.6c-.4 1 .8 2.1.2 3.2s.3.1.5.2-.3 1.8.2 2.4-.5-.2-.5.2.3 0 .5.2-.3 2.7-.1 3.9.4 4.3.4 6.3h-.2c.7.7-.8 1.6.4 2.1s-.1.6-.5.5-.5 1.5.2 2.2 0-.1-.1-.2.2 1.4-.2 2.3-.1-.2-.3-.3.8.7-.1.9.5.1.4 0c-.4 1.8.2 3.7.4 5.5s-1.6.1-.9 1.1.4.1.2.1-1.1.6-.6.9.3.2.7.2-.9 1-.5 1.6h-.3c.9.8.4 1.6 1.4 2.3s.3 4.1.4 6.2.2 4.2.2 6a14.3 14.3 0 0 0 .1 2.5c.1.7.3 1.6.5 2.6a25.8 25.8 0 0 1 .8 6.5c-.7 1.1-.7 1.2-.4 2.4h-.3c.7.1.1.7.7.9s0 2.9 0 4.4c-.1-.2-.6-.4-.6-.1l.4.3h-.2c.1.2.4.4.6.2a23.9 23.9 0 0 1-.1 5.6c0 .5-.1.7-.1 1.1a8.7 8.7 0 0 0 0 1.1 12.9 12.9 0 0 0 .5 2.6 15.5 15.5 0 0 0 .8 3.5 19.3 19.3 0 0 1-.5 2.7l-.6 2.2a3.8 3.8 0 0 0 .3 3.1h-.9a1.6 1.6 0 0 1-1.2.6z"/><path fill="#fff" d="M155.8 11.9c0 .3.3.6 0 1a4.7 4.7 0 0 1 0-1zm-1.7 9.6h-.2c0-.1-.3-.2-.1-.3s.1.2.3.3zm-.3 2.4c-.3 0-.5-.6-.5-.9zm-1.3 2.2c-.2.2-.4.1-.4-.1zm.7.1c0 .2-.2.3-.3.4s-.2-.4.3-.4zm-.9 4.7c0 .1.3.4-.1.5s-.3-.6.1-.5zm.5 2.2c0 .1-.1.1 0 .2s-.3 0-.4-.1zm2.7 39.3l-.2-.2h.3l-.1.2zm0 17.3c.2.2-.3.2-.3.2s.3.1.3-.2zm1.3 9.3h.6-.6zm-8.6-83.9c-.8-.3.2.7-.6-.1s.5-.1.6.1z"/><path fill="#fff" d="M204.9 185.1a14.5 14.5 0 0 1-1.6-5 18.4 18.4 0 0 0-1.5-5.1c-.2-.4.8-.1.4-.9a19.6 19.6 0 0 1-2.3-5.5l-.8-3.2a21.4 21.4 0 0 0-1-3.2h.3c-.3-.8-1.5-1.1-1.8-1.8s.3.1.4-.2-.9-1.1-1.3-1.2.4-.5.4-.9l-.7-.2c-1.7-.7-.9-2.9-2.1-4.4s.3.2.4 0l-1.2-1.9-1.2-2c-.8-1.4-1.4-3-2.1-4.4s.6 0 .7-.2-1.1-.8-1.4-1.6-1-1.2-1-2.2h.2c-.8-.4-.1-1.1-1-1.4l.2-.6c-.9.1 0-1.1-.7-1.5h-.1c-.4-.4-.2-.9-.5-1.3h.1c-.7-1-.7-1.8-1.2-1.5s.8.9 1.1 0a102.2 102.2 0 0 1-6.4-10.5c0-.5-.1-.8.1-1s-.9-1.3-1.3-1.4.2-.4.1-.6-1-.4-1.2-1.2.5.2.7 0-1.2-1.2-1.7-1.8.3.2.5.1-.7-1.5-1.4-2h.5c-.2-1.3-.9 0-1.1-1s.3 0 .5 0-1.7-2.1-2.4-2.9h.2a17 17 0 0 0-1.9-2.9c-.1-.5.8-.3.1-1.3s-1.3-1.5-1.7-.5a8.8 8.8 0 0 0-1.7-2.8c.5.2.5-.9 1-.3v-.8c.3-.1.3.6.5.2s-1.2-1.2-1.3-1.5-1.9-.4-2.8-1.3.4-.8.8-.5l-2.2-.4c-.3-.3.4-.5-.1-.8s-.4 0-.6 0-1.2-1-.9-1.7.6.3.4-.2-.8-.3-1.3-.8c-.3-.4-1.4-.7-1.2 0s.2-.4.4.1a2.9 2.9 0 0 1-1.9-.8c.3.1.4-.1.6-.2l-1.7-.5-.8-.4-.4-.2-.5-.3c-.3.2.9-.1.9.1a10.5 10.5 0 0 0-2.3-1.9l-1.1-1a2.1 2.1 0 0 1-.5-1c.2.2-.5.2-.4.2s.1-.8-.4-1.2-.5-.6-.8-1.1.1-.1.4.3l-.9-1.2a4.5 4.5 0 0 1 0-1 4.6 4.6 0 0 1 .7-1 3.5 3.5 0 0 1 2-1.1c-.2-.1.4-1 1-1.1l.2.4c.6.1 1.6-.4 1.9 0s-.6-.1-1.4.2-1.3.7-.9.3.6-.2.8-.4.5-.4.6-.1l1.3-.4a2.6 2.6 0 0 1 1.5 0c-.3 0-.6.7.2.6s.4-.2 1.4-.5l.4-.2c0-.4.7 0 .3-.5s.4.1.7 0 .6-.1.6.3v.6c.4-.1.5-.8.8-1.1l.2.2c-.2-.9 1-.2 1.2-1s2-.7 2.6-.4a3.4 3.4 0 0 1 1.7-1.2c-.1.1-.3.3-.2.4s.6-.2.9-.6 1.1 0 1.8.1.1-.9 0-1.2 1.5-1.4 2.5-1.1-.7.9-.1.8.8-1.2 1.9-1.3l-.6-.5c.6.2 1.1-1.1 1.4-.4s1.1-.4.7-.9c1.7-.3 3.1-2.4 4.6-2s.6-.5.3-.7-.3.6-.5.4a.3.3 0 0 0 0-.4c.5-.2.8-.4.8.4s.2-1.6 1.3-2.3.3.3.6 0l.2-.9c.7-.5.8.1 1.2.4s.7-.9.6-1.3h.9c-.6 0 .1-.5.1-.8v.4c.2.1.5-.5.7-.7s-.8.2-1.1.4.3-.6.3-1 .8-.4 1.1-.7 0-.7.1-.8.5-.6.6 0-.4.1-.4.5.7.2.8-.5-.8-.5 0-1 0 .4.1.7l.8-.5-.3-.3h.2c-.2-.5.8-1.1.5-1.6s.9-.5 1.2-.8a1.7 1.7 0 0 0 1-1.4h.1a2.2 2.2 0 0 0 .7-1.1c.7-.2 1.4 1 1.5.1s.1-1.3-.3-1.3 1.3-2.2 2.4-2.7-.2-.2-.1-.6 1.5-3.4 2.8-4.2.4.2.6.3.6-.3 0-.7-.5-.2-.9.1a6.7 6.7 0 0 1 1.1-2.7c-.2.2-.3 0-.4-.2s.8-.5.7-1h-.4l.4-.3c-.1-.2-.8-.3-.4-.8h.4c-.3-.6-.9-1.3-.6-1.9l.5-.6c-.1-.3-.5-.7-.6-.2.2-1.1.1-1.9.5-2.3-1.6-1.7-2.2-4.8-2.6-6.8h.3c.1-.6-.6-.1-.5-.6s.4-.6.9-.3-.8-.9-1.1-1.3.4.3-.1.4-.1-.3-.2-.6-.2-.5-.5-.5.6-.3.8-.3l-.5-.3c.4-.9 1.7.8 2.2-.1l-.3-.4c.4-.7 1.2 1 .9-.3s-1.5-.5-1.5.1-1.4.1-1.9-.9.5.7.8.3-.8-.8-.8-1.3-.7.5-.9.2.7 0 .3-.7-1-.4-.8.2-.3-.8-1-.8 1.5-.1 1.2-.9-1.2-.5-1.5.4.2-.6.6-.6-1.5-.3-.8-1.1l-.5.2v-.9c0-.4-1.5-.4-1-1s-.9-.7-.9 0 .8.2.5.9c.1-.7-.7-.5-1.1-.6v-.3c-.2 0-.6-.4-.9-.2a.3.3 0 0 0 .2-.4l-.4.3c-.8-.3.3-.8-.4-1.1h.7c-.1 0-.1-.6-.6-.6l-1.2.8c-.5-.1.1-.5-.5-.4h.8c.2-.1 0-.8-.5-1.1s-1.3.2-.8.7-.6-.6-.2-.7-.1.5-.8.4l-.4-.7-.6-.9.9-.4-.4-.2c.8-.3-.1-.5.4-1a1.5 1.5 0 0 0-1-.1c.5 1.2-1.4.9-1.4 1.8s-.1-2.3-1.7-1.3c.1.3-.6.8.2.7s-.7.7-1.5.2-.5-1 .6-1.3.5.3.6.3.3-.8-.5-1-1.2-.2-1.2.3.7.1.3.5-1-.8-1.5 0 .7.6.6.9h-.7l.2-.3c-1-.4-.4.6-1.4.3l-.4-.7c.3-.5 1.5.5 1.5-.5s-1 .3-1.6 0h.5c-.2-.1-.4-1.3-1.5-.7s-.2.3-.2.7a14.6 14.6 0 0 0-2.2.4c.2-.7-1.3-.1-.5-.8a2.3 2.3 0 0 0 2.5-.2c-.4-.8.9.2 1.2-.6s-.8-.9-.9-1.4-.5.1-.7.2.2.5.2 1a3.4 3.4 0 0 0-2.7.5.4.4 0 0 1 .2-.8h-3.7c.8.7-1.3.3-.7.9s1.2.6.9 1 0-.3-.2-.5-.9-.6-1.2.1.1-1 .2-1.6 0-.4-.9-.3a13.2 13.2 0 0 1-2.7 1.2c-1.3-.4-3.1.5-4.2.6s-.3-1-.9-1.1.6.7-.5.5h.1c-.3.2-2-.5-2.3.5l.3-.8c-.2-.1-.4.1-.5.2s-.2-.5.1-.6-1.4 0-2.1.1l.5.5c-1.2.4-2 0-3 .3v-.4l-.3.2-.2.2c0-.5-.6-.5-.9 0a6.8 6.8 0 0 1 .8-1.1l.6-.6c.6.2-.5.6 0 1a1.2 1.2 0 0 0 1.5-.4c-.4 0-.4.1-.7.3s.4-.7.7-1.1-.6-.1-.6.1a2.5 2.5 0 0 1 1.6-.5c-.5.3.3.4.1.6s.8-.7 1.7-.5 1.7-.3 2.6-.2a3 3 0 0 1-1.5 1.2c.6.3.7 0 1.4.3s.5-1 1.3-1.4v.4c.7-.3.7-.9 1.6-.9a38.2 38.2 0 0 0 4.5-.4v.3c.6-1 2.3-.7 3.2-1.1a12.5 12.5 0 0 0 2.6-.1 2.8 2.8 0 0 1 1.9.3 23 23 0 0 1 8.5.7l-.6.5c.6-.3.3.4.8.4s.9-.4 1.3-.6a9.7 9.7 0 0 0 4.3 1.1v.4a3.1 3.1 0 0 1 2 .6l1.8 1.5a1.3 1.3 0 0 0 .5.9 5.5 5.5 0 0 1 2.6.8 9.6 9.6 0 0 1 2.1 2.7l1.1.8.9 1 .9 1 .7 1.1.7 1.2.6 1.2 1.3 2.4-.4.4a8.1 8.1 0 0 1 1.2 2.5 20.1 20.1 0 0 1 .7 2.7 29.9 29.9 0 0 0 1.1 4.7h-.9c-.1.9.5 2 1.1 1.7s.6 2.4 0 3.1.4 1.3.4 2.2l-.6 2.4-.3 1.1-.3 1.2.2-.4c-.1-.3-.4-.4-.6 0s-1.2 2.3-.1 2.1a13 13 0 0 0-1.6 2.8 6 6 0 0 1-1.9 2.5c.3 0 .1.4.1.7s-2.6 2.4-3.1 3.7 0-.6-.5-.1.2.2 0 .7c-1.3 2.1-3.7 3.3-5.1 5.1l-1.8 2.5-1 1.2-1.2 1.3a41.1 41.1 0 0 1-5.2 4.2v-.2c-.8 1.4-3.1 1.1-3.5 2.6-.4 0-1.1.5-1.1.1s-2.9 1-3.9 2.3l.3-.3c-1.6.3-2.5 1.5-4.2 1.8.1-.1.4-.3.3-.5s-1.1 1.4-1.8.7a.2.2 0 1 0 .1.4l-6.4 2-1.4.5h-.8l-.9.2h-.9l-1.2-.8c-.2-.2-.3-.3-.4.1s.4.3.1.2-.4 0-.9-.2-.9-.2-.6 0 .4.3 1 .6h-.6l-.3.2c-.1.1-.1.4.5.6h-.5l1.6.7a1.3 1.3 0 0 0 1.2.1l1.8 1.3 2.6 1.8a23.6 23.6 0 0 1 2.7 2.3l2.2 2.4a77.3 77.3 0 0 1 7.3 10.1l2.9 5.3 2.9 5.1c1.9 3.4 3.9 6.8 5.6 10.5.2 2.1.3 2.2 1.5 3.9-.2 0-.2-.1-.3.1s.7 1.3 1.4 1.2l1 2.1 1 2.1c.6 1.4 1.2 2.8 1.7 4.2-.2-.4-.8-.5-.6.1l.6.4v.2c.2.3.7.6.7.2l2.1 4.7.4.8.3.8.6 1.6c.3 1 .6 2 .8 2.9s.4 1.7.7 2.4a9.8 9.8 0 0 0 .9 2l1.6 2.6.8 1.6.6 1.4c.5 1.9 1.6 4.3 2.3 6.2s.4 3 .5 4.5.3 2.6.5 4l.7 4.3a21.3 21.3 0 0 1 .3 5.1 5.4 5.4 0 0 1-.8-1 9 9 0 0 1-1.4-2.3zM149 15.4a1.7 1.7 0 0 0 .1.5c0 .1.1.3-.1.5a1.8 1.8 0 0 1 0-1z"/><path fill="#fff" d="M166.7 16.9c0-.1.3.1.3.1s-.4.4-.6.2.2-.1.3-.3zm4.2-.2c-.1.3-.9.5-1.4.6zm3.9 1.4c.3.3.2.4-.2.4s.1-.3.2-.4zm.4-.6a.8.8 0 0 1 .6.4c0-.3-.8 0-.6-.4zm7.9 2.6c.2 0 .7 0 .7.3s-1 0-.7-.3zm3.6 1.1h.3c.1.2-.2.3-.4.2zm-13.2 56.7l.4-.4v.3l-.4.1zm-16 18.6c.5.1.1.4.1.5s.4-.2-.1-.5zm12.6 12.6l-.1-.2.5-.2-.4.4zM226.7 8.5c-.1-.4-.5.2-.2-.2s.4.1.2.2zM223.3 109c-1.5-1.2 0-2.8-1-4.1s.8 0 .6-.3-.5-3.3.4-4.9h.2c.2-.3-.6-.7-.5-1h.4c-.5-.1-.2-.6-.6-.7l.8-.3-.5-.2c-1.3-.5.1-1.2-.6-1.9h.3c-.8-1.1-.6-2.5-.9-3.7h.8a.9.9 0 0 1-.8-.8c.6-.1-.5-.6-.2-.9h.1c-.6-.3.4-.4-.4-.7l.5-.2c-.8-.1.4-.4 0-.6h-.2c-.2-.2.2-.3.1-.5h.1c-.2-.5.2-.8-.4-.8s.2.5 1 .2a12.2 12.2 0 0 1-.5-4.8c.3-.2.3-.3.6-.3s-.1-.6-.4-.7l.4-.2c.2-.3-.7-.3-.4-.6h.6c-.5-.3-.4-.6-.6-1h.4c-.6-.4.1-.6-.2-1h.4c.5-.5-.8-.1-.5-.6h.4c-.7-.4-.4-1-.7-1.4h.2c-.1-.4.1-.9-.2-1.4s.9.1.8-.4-.3-.8-1.1-.5.4-1 .2-1.3.9-.2 1 .1l.4-.2c.3 0-.1.3.3.2s-.3-.6-.2-.8-1.3-.6-1.4-1.1.8-.1.9 0l-1.4-.7c0-.2.6 0 .4-.3l-.5-.2c.1-.1-.2-.7.5-.8s.2.3.4.1-.3-.3-.3-.6h.1c.1-.2-.3-.6-.7-.4s.4-.1.2.2a.8.8 0 0 1-.5-.8h.5a3 3 0 0 1-1-1.3c-.3 0 .6.2.4.2s-.7-1.2 0-1.7h-.4c0-.3.5-.3.4-.4s-.1-.2-.2-.4.1 0 .2.1a1.9 1.9 0 0 1-.3-1.9c-.2 0-.7-.4-.7-.5h.5c.3-.1 0-.5.4-.5s.4 1.2 0 .8-.7-.6-.1-.5-.5-.6-.1-.8.6.3.6 0-.2-.1-.4-.5l-.2-.2c-.4 0 .1-.4-.4-.2s-.2-.6.5-.5h.6c0-.2-.6-.3-.8-.5h.3c-.9-.1.1-.4-.6-.7s.1-.9.7-1.1-.5-.6-.3-.9l.3.2c.3-.2.1-.2-.1-.4s.6-.3.9-.5-.7-.3-1-.3-.5-.9.4-1.1.4.5.6.3-.6-.6-.1-.9h-.7c.5-.1-.3-.6.4-.5s.3-.4-.4-.5-.2-1.6 1.2-1.9 0-.3-.3-.3.3.3 0 .3h-.3c.2-.2.3-.3.8-.1s-1.1-.6-.8-1.1.4 0 .4-.1l-.5-.4c.2-.4.7-.1 1.2-.1s0-.4-.4-.6l.6-.2c-.5.1-.3-.2-.4-.3h.1c.2 0 .1-.3.1-.4a.7.7 0 0 0-.6.3c-.2-.1-.1-.3-.4-.4s.4-.3.4-.4-.4-.2-.4-.3.1-.3.4-.1-.3.1 0 .2.6-.1.3-.3-1 0-.6-.4l.5.2.3-.3h-.2c-.5-.1-.1-.5-.6-.6s.3-.3.4-.5c.3-.2.1-.4-.2-.6h.1a.5.5 0 0 0-.3-.5c.3-.2 1.7 0 1.1-.3s-.8-.5-1.1-.4-.4-1.1.3-1.5-.3 0-.4-.2-.5-1.5.4-2.1.4 0 .7 0 .4-.2-.3-.3-.6 0-.8.2-.2-1.1.2-1.3-.3 0-.4-.1.7-.3.5-.5h-.4l.4-.2c-.1-.1-.8-.1-.4-.3h.4c-.3-.3-.9-.6-.5-.9l.6-.2c-.1-.1-.4-.3-.6-.1s.4-.8.9-.9a2.9 2.9 0 0 1-1.2-3h.3c.3-.3-.5-.1-.3-.3s.6-.2.9 0-.5-.5-.6-.7.2.2-.2.1.3-.5-.3-.6a1.9 1.9 0 0 1 .9.1l-.3-.2c.7-.3 1.2.7 2 .4v-.2c.6-.2.7.6.9.1s-1.1-.4-1.4-.3-1.4-.3-1.3-.8.1.4.6.3-.2-.5-.1-.7-.8 0-.9-.1.5.2.6-.2-.6-.4-.8-.1.2-.4-.4-.6 1.2.4 1.5 0-.7-.5-1.5-.3a.9.9 0 0 1 .9 0c.3-.2-.9-.6.1-.6h-.5l.6-.3c0-.2-.7-.7.1-.6s0-.5-.6-.4.4.3-.4.5-.1-.4-.3-.6h.3c-.1-.1 0-.3-.4-.4-.2-.4.8 0 .7-.4l.3.3c-.1-.1.4-.2.2-.4l-1.3-.3c-.2-.2.5-.1.1-.3l.5.3c.1 0 .7-.1.7-.4s-.7-.5-1-.2.3-.3.6-.2-.5 0-.7-.3l1.1-.6.7.3V23c.6.3.4-.1 1 .1s-.1-.3-.2-.4-1.3-.5-2.2-.5 2.2-.2.8-.8-.9-.2-.7.1-.9-.3-.5-.6.9-.2 1.4.2-.2.2-.2.3.9.1.9-.2-.1-.5-.5-.5 0 .3-.5.2.6-.4-.3-.7-.5.3-.8.3l-.2-.3h.3c.3-.5-.6-.2-.5-.6l.7-.2c.6.1-.3.7.6.6s-.4-.4-.2-.7l.2.2c0-.1 1.3-.1.6-.6s-.3-.1-.7-.1-.4-.7-.5-1 .1-.5.8-.2-.4.8.2 1-.1.4.7.5.8-.3 1.4-.3-.2-.2-.2-.3h-1a.9.9 0 0 0-.5-1.1c.2-.1.7-.1.8.1a2.8 2.8 0 0 1 .2-1.5c-.8.3-.2-.5-.8-.4a1.1 1.1 0 0 1-1.1.3c.1-.2.3 0 .5 0s.7-.3 0-.5 1 .1 1.6.3.4 0 .5-.3a3.2 3.2 0 0 1-.7-1.2c.6-.4.1-1.2.1-1.6s1 0 1.2-.3-.8.2-.4-.2h.1c-.2-.1.5-.7-.5-.9h.8c.1-.1-.1-.2-.2-.2s.5-.1.6.1-.1-.5-.1-.8l-.5.2c-.3-.5.1-.8 0-1.3h.4l-.3-.3c.4.1.7-.2.3-.3l1.1.7c-.3.2-.5-.2-1-.1s-.3.5.2.6 0-.2-.2-.3.6.2 1 .3.2-.2 0-.2a.6.6 0 0 1 .3.6c-.2-.2-.4.1-.6 0s.7.3.5.7.4.7.2 1.1a2.8 2.8 0 0 1-1.2-.7c-.3.2 0 .3-.3.5s1 .2 1.3.6h-.4c.2.3.8.3.7.7a9.5 9.5 0 0 0-.3 1.8h-.4c.9.3.3.9.6 1.3s.3 1.4-.4 1.7a7.8 7.8 0 0 1 .3 3.3l-.6-.2c.4.2-.3.1-.3.3s.6.3.9.5 0 1.2.4 1.6h-.4c.7.5 0 1-.1 1.6s-.6.1-.5.3.6.5 1 1a2.3 2.3 0 0 1-.5 1.2c.9 1.3.2 2.5.8 3.8h-.5c1 1.3.1 2.7.6 3.8h-.8c-.2.3.2.8.8.7s.4.9-.3 1.1.4.4.5.7a2.1 2.1 0 0 0-.1 1.6V39c-.2-.1-.5-.1-.6.1s-.2.9.7.7c-.6.7.4 1.7-.4 2.4s.3.1.5.2-.6 1.3-.2 1.8-.4-.2-.5.1.3 0 .5.2-.6 2-.6 3-.1 3.4-.2 4.9h-.2c.7.6-.9 1.1.2 1.7s-.1.4-.5.3-.6 1.1 0 1.7v-.2c-.5.5 0 1.1-.4 1.7l-.3-.2c-.4.2.8.6-.2.7s.5.1.4.1 0 2.8.2 4.1-1.6 0-.9.8.4.1.2.1-1.1.5-.6.7.3.1.7.2-.9.8-.5 1.3h-.3c.9.6.4 1.3 1.4 1.8.2 3.2.7 6.3.8 9.4s.2 6.1-.3 9.3c-.8.7-.8.8-.5 1.6h-.3c.7 0 .1.6.7.6a30.9 30.9 0 0 0 .1 3.4c-.1-.2-.6-.3-.6-.1l.4.2h-.2a.5.5 0 0 0 .6.2c.6 3-.7 6-.6 8.9a5 5 0 0 0 .1 2.5c-.9 2.3-1.6 4.3-1 6.6.6.4-1.1.1-1.5-.8zm3.5-100c-.3.1-.5.3-.9.1z"/><path fill="#fff" d="M223.2 15.9h-.2c0-.1-.3-.2-.1-.2zm-.3 1.7c-.3 0-.5-.4-.5-.7zm-1.3 1.6c-.3.1-.4.1-.4-.1zm.7.2c0 .1-.2.2-.3.3s-.2-.4.3-.3zm-1.1 3.5c0 .1.2.3-.1.4s-.3-.5.1-.4zm.3 1.7c0 .1-.1.1 0 .1a.3.3 0 0 1-.4-.1zm-.3 30.5l-.2-.2.3.1-.1.1zm-.7 13.7c.2.2-.3.1-.3.2s.3 0 .3-.2zm1.4 7.2v-.1l.6.1h-.6zm76.7-52.3c-.1 1.3.7-.5 0 .8a.6.6 0 0 1 0-.8z"/><path fill="#fff" d="M243.8 186.8a27.8 27.8 0 0 1 .2 3.9 38.2 38.2 0 0 1-.1 4.1c-.2 2.8-.5 5.6.1 8.2.1.6-.8-.1-.6 1.2s.7 2.7 1.2 4.1a7 7 0 0 0 2.7 3.8 9.8 9.8 0 0 0 4.8 1.3 47 47 0 0 0 4.9-.1l-.3.3c1.2-.1 2.4-1.1 3.6-1.3s-.3.3 0 .4 2.1-.6 2.6-1 .5.5 1.1.7l.6-.6c1.9-1.4 4.7-.1 7.4-.8-.1.1-.4.2-.2.3 2.1-.5 4.5-.8 6.9-1.3a21.2 21.2 0 0 0 6.7-2.9c-.1.3-.1.6.3.7s1.2-1.4 2.3-2.1 1.8-1.4 3.2-1.8v.2c.7-1 1.6-.4 2.1-1.5h.8c0-.9 1.6-.4 2.2-1.3h-.1c.6-.6 1.2-.5 1.8-1.1h.1c1.3-1.3 2.4-1.7 1.9-2.1s.1.3-.1.7-.4.6.2.6a26.1 26.1 0 0 0 2.8-3.7 18.8 18.8 0 0 0 1.9-4.2 40.4 40.4 0 0 0 .9-4.5q.4-2.3.6-4.6c.3-.7.4-1.1.7-1.3a12.7 12.7 0 0 0-.2-2.9c0 .2.4-.4.4-.7s-.6-1.3-.3-2.5c.2.5.4.7.6.5a14.2 14.2 0 0 1-.5-3.7c.1.2.2.5.4.5s.1-2.5-.2-3.7l.4.5c.4-1.9-.8-.6-.5-2.2.1.4.3.3.4.3-.7-1.6-.5-4.1-.7-5.6h.2a47.4 47.4 0 0 0-.3-5.3c.2-.7.9.2.7-1.6-.7.1-.3-3-1.2-2a23.7 23.7 0 0 0 .1-5c.3.7.9-.7 1 .5l.4-1c.3.1-.1 1 .3.7a21.8 21.8 0 0 1-.2-3.1c-.5-1.2-1.3-2.3-1.4-4.2.3.9.8-.5.9.1s-1-1.8-1.4-2.7.6-.1.5-1.1-.3-.4-.4-.7.2-2.8 1-2.9 0 1.1.3.4 0-1.3.2-2.4h.1c.3-.7.2-2.3-.4-1.6s.5-.1.1.6a3 3 0 0 1-.2-1.4c0-.6.1-1 .1-1.5s.3.3.5.5a34.6 34.6 0 0 1-1.2-4.8c-.4 0 .7.7.5 1a10.6 10.6 0 0 0 0-1.8c0-.6-.1-1.2-.2-1.7a6.4 6.4 0 0 1 .2-3.2c0 .3-.5.1-.4.1s.6-1 .5-1.8 0-.9 0-1.7.2-.2.1.5a18.3 18.3 0 0 1 .1-3.3c.1-.7.2-1.5.3-2.2a18.8 18.8 0 0 1 .4-1.8c-.2 0-.6-1.4-.6-1.9l.4.2c.3-.5 0-1.7.4-1.8s-.2.5-.1 1.5.1 2 0 1.2-.6-2.1 0-1.8-.5-2.1-.1-3.1.6.9.6 0-.2-.4-.4-1.7l-.2-.8c-.4 0 0-1.4-.5-.8s-.3-2.2.5-2.1l.6.2c-.1-.7-.6-1.1-.9-1.6s.2-.3.3-.2 0-1.6-.6-2.4 0-3.5.6-4.2a8.5 8.5 0 0 1-.5-3.1c.1.2.1.5.3.6s0-.9-.2-1.5.4-1.5.5-2.3-.9-.5-1.2-.5 0-1.2-.4-1.8a2.7 2.7 0 0 1-.7-1.9c.2.2 1 1.1.8.3s-.1-1-.6-1.3a3 3 0 0 1-1.2-1.4l-.4.7c0-.4-.4-.7-.6-1s-.5-.4-.2-.6-.9-1.2-1.3-.6a5.1 5.1 0 0 0-2.9-1.7 6.8 6.8 0 0 1-3-1.2c-.4.1-1.2-.1-1.1.3s.8-.2 1 0a.4.4 0 0 0-.4.3c-.7-.2-1.3-.3-.6-.8-1.7-.5-1.8 1.2-4 1 .1-.3-.1-.4-.6-.3l-1 .6c-1.3.1-.9-.5-1-1s-1.6.5-1.9.9l-1.1-.4c.8.3-.6.5-.9.6l.4-.2c-.2-.2-1.1.1-1.6.3s1.2.2 1.7.2-1.1.4-1.6.7-1.5-.2-2.2-.2-.9.4-1.1.4-1.2-.1-.6-.4.6.3 1 0-.4-.6-1.5-.3.1 1-1.3.6c.4-.1.5-.3.8-.5l-1.3-.3v.4c-.2-.1 0-.2-.1-.2s-1.9.1-2.1.6-1.2-.2-1.7-.2h.1a3.3 3.3 0 0 0-2.3.7 5.5 5.5 0 0 0-1.9.7c-1.2-.1-.7-1.6-1.8-.8s-1.7 1-1.2 1.3l-3.3.3a6.6 6.6 0 0 1-3.2-.4c-.3.1-.1.3-.8.3-3.2-.6-7.2-1.5-8.8-4.4.9.6.4-.3.5-.5a.9.9 0 0 1-.6-.6c-.1-.2-.1-.3-.5-.2s-.5.4.1 1.3a7.7 7.7 0 0 1-2.2-3.5 6.1 6.1 0 0 1-.2-2.9c-.1.6-.3.2-.5-.3s.7-1.3.4-2.3h-.4l.4-.6c-.1-.3-.8-.3-.5-1.2l.4-.3c-.4-.9-1.1-2-1-3.1l.4-.9c-.1-.4-.6-1.1-.6-.3v-2.8a3 3 0 0 1 .3-1.5 17.9 17.9 0 0 1-1.1-5.7c-.1-.9-.1-1.9-.2-2.7l-.2-1.2-.2-1.4h.3c.1-1-.6-.4-.5-1.2s.5-.9.9-.1c.1-1.5-.8-1.8-1.1-2.7s.4.7-.2.6 0-2.1-.6-2.3.6-.1.9 0l-.4-.9c.3-.6.6 0 1 .6s.8 1.1 1.1.5l-.2-.8c.5-.8.9 2 .9 0s-1.2-1.6-1.4-.7c-.2-1.8-1.5-.8-1.4-2.9.2-.2.2.1.2.5s.1.9.3.7-.3-1.9-.1-2.7c-.2.9-.8.1-.9-.4s.6.6.6-.8-.6-1.5-.8-.4c-.8-.5.2-1.5-.4-2.2s1.2 1.5 1.5-.1c-.5.3-.7-1.9-1.5-1.1s.6-.7.9-.2-.9-2.2.2-2.4l-.5-.3.7-1.1c.1-.8-.5-2.7.3-2.5s.3-2.1-.4-1.5.2 1.4-.6 1.9c.7-.7.1-1.7.1-2.4h.3c-.1-.4.2-1.3 0-1.7s.3.2.5-.1l-.4-.5c.2-1.7.9-.2 1.2-1.8V12c0 .4.6-.7.7-1.5a7 7 0 0 1-.7-1.7c.3-1.1.6-.2.8-1.4a8.2 8.2 0 0 0-.2 1.5c0 .1.3 0 .6-.3a7.1 7.1 0 0 0 1.2-1.4c.4-.8.9-2.4-.2-1.3.5-.6 1.5-1.2 1.2-.5 1.1-1.3-.5-.2.5-1.4a13.6 13.6 0 0 1 3.5-.9l-.6 1.5.8-.4c-.7 1 .7.1.4 1a6.2 6.2 0 0 0 1.5-.9c-.9-.2-.6-.6-.1-1.2s1.2-1 .9-1.4c2.4-.8 1.8 1.8 4 .1-.4-.2.6-1-.8-.6 1.4 0 .9-1 2.6-.7-1.2.4 1.3.8-.4 1.4.1-.3-1-.2-1.2 0s0 .9 1.3.8 1.9-.2 1.8-.6-1.3.1-.8-.4 1.9.6 2.6-.3c-1 .1-1.3-.4-1.3-.8l1.2-.2-.2.3c1 .1 1.1 0 1.2-.2s.2-.4 1.1-.3l.8.6c-.4.6-2.5-.2-2.2.7s1.5-.4 2.5-.2l-.8.2c.4 0 .9 1.2 2.5.5s.2-.3.2-.7c1.9-.2 2.4-.6 3.7-.7s2.2 0 .8.7-3.4-.2-4 .4-1.5 0-1.8.8c1.5 0 1.5.8 1.7 1.3a2.7 2.7 0 0 0 1.1-.3c.2-.5-.4-.5-.4-1a9.6 9.6 0 0 0 4.3-.8c.6.2.4.7-.3.8a22.2 22.2 0 0 1 6.3.3c-.6-.5 0-.5.6-.4s1.3.2.9-.2-2-1-1.3-1.3-.1.3.2.6 1.3.9 2.3.4c-2.1-.2-.6.9-1.1 1.4 1.4-.1-.1.4 1.2.7a19.4 19.4 0 0 1 4.5.4 13.8 13.8 0 0 0 3.1 1.4 22 22 0 0 1 3 1.2c.6.7-.3 1 .5 1.6s-.3-1.1.9.1h-.2a8.4 8.4 0 0 1 1.4 1.1c.6.5 1.2.9 1.8.8l-.9.2c.2.3.5.3.8.5s-.1.6-.6.3a3.6 3.6 0 0 0 .9 1.3 3.5 3.5 0 0 1 .9 1.4 4.9 4.9 0 0 0 .2-.9 5 5 0 0 1 .5 2.6 15.1 15.1 0 0 0 0 2.4h-.6l.3 1.1c-.4-.2-.7.8-.3 1.3l-1.2-2.7c.2-.8.6.8 1 .3a2.4 2.4 0 0 0-.2-2.3 2.1 2.1 0 0 0 .2 1.2c-.6.2-.6-.7-1-1.2s-.1.8.1.9a7.9 7.9 0 0 1-.5-2.2c.4.6.3-.4.5-.2s-.5-.2-.7-.5l-.7-1.1c-.1-1.1-1.9-1.4-3-2.3a4.2 4.2 0 0 1 2.6.5c-.6-.8-.8-.7-1.4-1.5a4.2 4.2 0 0 1-2.4-.1l.2-.4c-1.1-.4-1.3.1-2.6-.5a29 29 0 0 0-6.4-2.4v-.4a4.3 4.3 0 0 1-2.4 0 7.7 7.7 0 0 0-2.5-.2c-2.3-.6-5.2.2-6.4-.4l-6.3.7-6.3.2.7-.6c-.7.5-.5-.3-1.3-.2.9.4-1 .7-1.4 1.2a5.9 5.9 0 0 0-4.9 2.2l-.3-.3a6 6 0 0 1-.6 1l-.8.8-.8 1a7.5 7.5 0 0 0-.7 1.2 1.6 1.6 0 0 0-.8 1 18.3 18.3 0 0 1 .3 3.5c-.2 1.2-.5 3.2-.8 4.4a56.1 56.1 0 0 1 .5 7.3v1.9c0 .6 0 1.2.1 1.7a20.1 20.1 0 0 0 .6 3.5l-.4.4a29.2 29.2 0 0 1 1.1 3.6 19.6 19.6 0 0 1 .4 4.5c0 2.8-.2 5.2.3 6.9l-.9-.2c-.1 1.1.7 2.7 1.2 2.3 0 1.3 1 3.3.4 4.3s.5 1.8.7 3a13.2 13.2 0 0 0-.1 2.9 4.2 4.2 0 0 0 .6 1.9v-.3c-.2-.1-.6 0-.5.4s.4.7.7.9.6.3.7-.2a4.6 4.6 0 0 0 2.8 1.7 29.9 29.9 0 0 1 3.5 1c-.2-.3.4-.3.6-.5 2 .1 4.3.4 6-.3s-.5.5.4.4 0-.3.6-.6l2.7-.7 1.8-.2h1.8c2.3.1 4.2.5 5.8.5a18.8 18.8 0 0 0 3.9-.6 49.5 49.5 0 0 1 4.8-1.2l1.4-.2h3.8a31.3 31.3 0 0 1 5.2.4v.1a6.7 6.7 0 0 1 3.9 1.2 15.5 15.5 0 0 0 3.5 1.9c.4.5 1.6 1.8 1 1.7 1.9 1.3 2.5 4.5 4 6.9a1.4 1.4 0 0 0-.3-.6c.3 1.3.6 2.5.9 3.8a12.1 12.1 0 0 1 .4 3.8c-.1-.3-.2-.7-.4-.8s1 2.4 0 2.9.5.4.4 0a70.4 70.4 0 0 0 0 8.3c.2 2.8.5 5.6.6 8.6s-.8 2.2-1 2.1-.3-.2-.1 1.5.3.2.1.3-1.3 1.9-1 2.8.2.6.6.7c-.7 2.3-1.3 2.7-1.1 4.6l-.3-.2c.6 2.3.1 4.8 1.1 6.6s0 .7 0 1v1.1c.1.8.2 1.6.2 2.5v1.5c0 .5 0 .5-.1.8v.7l-.4 2.3c-.3 1.5-.5 2.9-.7 4.3s-.1 1.3-.1 2v2.1l.5 18.2c0 6 .2 12.1 0 18.3a89.7 89.7 0 0 1-.8 9.4c-.2 1.6-.5 3.1-.9 4.8a20 20 0 0 1-2.1 5.3l-1.5 1.6-1.1 1-2.5 2.9c0-.2.2-.4-.1-.3s-1.9 1.7-1.8 2.3a59.2 59.2 0 0 1-6.2 3.7l-3.1 1.5-1.5.7-1.4.7c.6-.4.6-1-.1-.6l-.6.8h-.2c-.5.4-.9 1-.3.8a25.4 25.4 0 0 1-4.6 2.2l-2.6.7-2.4.4a63.4 63.4 0 0 1-9.2.2h-4.1a25.3 25.3 0 0 0-3.8.4l-4.4.8a30.1 30.1 0 0 1-5 .5 19 19 0 0 1-3-.5 10.2 10.2 0 0 1-3.5-1.7 9.8 9.8 0 0 1-2.7-3 13 13 0 0 1-1.2-3.1v-3.8c0-.6.1-2.3.2-3.5l.7-6.4c.1-1 .2-2 .2-3s.1-2.3.3-3.5.6-4.5 1-6.8a4.1 4.1 0 0 1 .6 1.3 11 11 0 0 1 .1 4.1z"/><path fill="#fff" d="M298.6 22.1c.3-.3.5-1.3 1-.5s-.7.6-1 .5zM283.8 2.6c-.1.1-.4-.2-.4-.3s.7-.1.9.1-.4.1-.5.2zm-7.4-1c.1-.3 1.7-.5 2.7-.5zM269.7.5c-.6-.2-.4-.4.3-.4s-.2.3-.3.4zm-.4.7a1.7 1.7 0 0 1-1.1-.3c0 .3 1.2-.2 1.1.3zm-15.1.5c-.4.2-1.2.7-1.7.6s1.9-1.1 1.7-.6zm-6.8 5.4a1.4 1.4 0 0 0-.4.6c-.4.4-.3-.2-.1-.6zm58 69.2l-.5-.5h.3zm1.3 50.6c.2.6-.3.4-.3.5s.3.2.3-.5zm-.2 28l-.1-.2.6.1-.5.1zM443.6 1.3c-.3-.8-.4.6-.4-.5s.5.2.4.5zm-4.7 212.9c-1.5-2.6 0-5.9-1-8.7-.1-.3.8.1.6-.7-1.2-2.7-.5-7 .4-10.3l.2.2c.2-.6-.6-1.4-.5-2.1s.2.2.4.1-.2-1.2-.6-1.5.6-.2.8-.6l-.5-.4c-1.3-1.1.1-2.6-.6-4 .1.1.2.2.3.1-.8-2.3-.6-5.2-.9-7.8a.8.8 0 0 0 .8 0c-.6-.1-.7-.9-.8-1.6s-.5-1.2-.2-2h.1c-.6-.6.4-.9-.4-1.4l.5-.4c-.8-.3.4-.9 0-1.4h-.2c-.2-.5.2-.7.1-1.2h.1c-.2-1 .2-1.6-.4-1.6s.2 1 1 .4a53.8 53.8 0 0 1-.5-10.2c.3-.4.3-.6.6-.7s-.1-1.3-.4-1.6.3-.2.4-.4-.7-.7-.4-1.3.4.4.6.3-.4-1.3-.6-2 .2.3.4.2.1-1.4-.2-2l.4.2c.4-1.1-.8-.3-.5-1.2s.3.1.4.2-.5-2.2-.7-3.1h.2a13.8 13.8 0 0 0-.2-2.9c.2-.4.9.1.8-.9s-.3-1.7-1.1-1.1a6.9 6.9 0 0 0 .1-2.7c.3.4.9-.4 1 .3l.4-.5c.3.1-.1.5.3.4a6.6 6.6 0 0 1-.2-1.7c-.5-.6-1.3-1.2-1.4-2.3.3.5.8-.3.9.1L437 135c0-.3.6-.1.4-.6s-.3-.2-.5-.3-.2-1.4.5-1.6.2.6.4.2-.3-.7-.3-1.3h.1c.1-.4-.3-1.2-.7-.8s.4-.1.2.3a2.1 2.1 0 0 1-.6-1.7c.1.2.3.2.5.3a8.1 8.1 0 0 1-1-2.7c-.3 0 .6.4.4.5s-.7-2.5 0-3.6-.5.1-.4.1.5-.6.4-1-.1-.5-.2-.9.1-.1.2.2a7.4 7.4 0 0 1-.2-4.1c-.2 0-.7-.9-.6-1.2l.4.2c.3-.3 0-1 .4-1.1s.3 2.6-.1 1.6-.6-1.3 0-1.1-.4-1.3.1-1.8.6.6.6.1-.2-.3-.2-1v-.5c-.4-.1.2-.8-.4-.5s0-1.3.7-1.1l.6.2c0-.4-.5-.7-.7-1h.3c-.9-.2.2-.8-.4-1.4s.3-1.8.9-2.1a2.4 2.4 0 0 1-.2-1.7c.1.1.1.3.3.4s.1-.5-.1-.9.6-.8.9-1.2-.7-.4-1-.5-.5-1.6.3-2.3.4.8.6.4-.6-1.1-.2-1.9l-.7.2c.5-.4-.4-1.2.3-1.2s.2-1-.5-.9c.6-1.4-.4-3.4.8-4.3s0-.7-.4-.6.3.5 0 .6-.2-.2-.3-.2.2-.8.8-.4-1.2-1-1-2.2.4 0 .4-.4l-.5-.7c.1-.8.7-.5 1.2-.5s-.1-1-.4-1.1l.6-.5c-.5.4-.3-.4-.4-.6v.2c.2-.1.1-.6 0-.8s-.4.6-.5.9-.2-.6-.4-.9.4-.7.4-1.1-.4-.5-.4-.6 0-.6.4-.3-.2.3 0 .5.6-.2.3-.8-1 .1-.6-.7.3.2.5.4l.3-.7h-.2c-.5-.2-.1-1.1-.6-1.3s.3-.8.4-1.1a1.2 1.2 0 0 0-.2-1.4h.1a1.6 1.6 0 0 0-.2-1.1c.4-.6 1.7-.1 1.2-.8s-.8-1-1.1-.8-.3-2.3.5-3.2-.3-.1-.4-.4-.3-3.3.7-4.5c.2.5.4.1.7.1s.4-.4-.2-.6-.6 0-.8.4a4.5 4.5 0 0 1 .4-2.8c-.2.2-.3 0-.4-.2s.8-.6.6-1.1h-.4l.4-.3c-.1-.2-.8-.3-.4-.8h.4c-.3-.5-.8-1.3-.4-1.9l.6-.4c-.1-.2-.4-.7-.6-.3s.4-1.6 1-1.9a6.9 6.9 0 0 1-1-2.9 16 16 0 0 1-.1-3.3h.3c.3-.6-.5-.3-.3-.7s.6-.4.9.1-.4-1.1-.5-1.7.2.5-.3.3.4-1.1-.1-1.3.7 0 .9.2l-.2-.5c.8-.5 1 1.5 1.9 1v-.4c.7-.3.5 1.2.9.2s-1-1-1.3-.7-1.3-.7-1.1-1.7-.1.9.4.7-.1-1 .1-1.4-.8-.1-.9-.4.5.4.7-.3-.4-.9-.8-.4.3-.7-.2-1.2 1.1.9 1.5.2-.5-1.1-1.4-.8a.6.6 0 0 1 .9 0c.4-.4-.8-1.1.2-1.2l-.5-.2.6-.5c.1-.4-.6-1.2.2-1.1s0-.9-.6-.6.4.6-.4.8-.1-.7-.3-1h.3c-.1-.2-.1-.7-.4-.8a.3.3 0 0 0 .5-.1l-.5-.2c-.2-.8.8-.2.7-1l.4.6c-.1-.1.4-.4.2-.8l-1.3-.5c-.2-.4.5-.2 0-.6l.5.6c.1.1.7-.4.7-1s-.8-1-1-.4.3-.7.6-.5-.5.1-.7-.5.7-1 1.1-1.4l.7.6v-.4c.6.5.4-.3 1 0s-.1-.6-.3-.9-1.3-.9-2.2-.7 2.1-.7.8-1.9-.9-.4-.6.3-.9-.5-.5-1.3.9-.7 1.4.2-.2.5-.1.6.9.1.9-.7-.1-1-.6-.9.1.7-.5.4.6-1-.3-1.4-.5.7-.8.7l-.2-.6h.3c.2-1-.6-.3-.5-1.3l.7-.5c.6.2-.3 1.4.7 1.3s-.4-.8-.2-1.5l.2.4c0-.2 1.3-.5.5-1.4s-.3-.1-.7-.1-.5-1.3-.5-2 .1-1.2.8-.4a1.7 1.7 0 0 0 .3 2.2c.8-.4-.1.8.7 1s.8-.8 1.3-.9-.2-.4-.3-.6-.5.2-1 .2a2.8 2.8 0 0 0-.6-2.3.4.4 0 0 1 .8.2 10.7 10.7 0 0 1 .1-3.4c-.8.6-.1-1.2-.8-.8s-.8 1-1.1.7.3 0 .5-.1.7-.7.1-1.1c.2 1 1 .2 1.6.5s.4.1.5-.7a9.2 9.2 0 0 1-.6-2.4c.7-1 .2-2.5.2-3.4s1-.1 1.2-.6-.8.4-.4-.4h.1c-.1-.3.5-1.6-.5-1.8l.8.3c.1-.2-.1-.3-.2-.4s.5-.2.6.1-.1-1.1-.1-1.7l-.4.4c-.4-1 0-1.7-.2-2.6h.4l-.3-.5a.4.4 0 0 0 .2-.7l1.3 1.4c-.2.5-.6-.4-1-.1a.8.8 0 0 0 .3 1.3c0-.3-.1-.4-.3-.6s.6.4 1.1.6.1-.5-.1-.5a1.8 1.8 0 0 1 .4 1.3c-.3-.4-.4.2-.6.1s.7.6.6 1.4.4 1.4.2 2.3a3.2 3.2 0 0 1-1.2-1.3c-.3.5 0 .6-.3 1.1s1 .5 1.2 1.2h-.4c.2.6.8.7.6 1.5s-.4 2.8-.5 3.8h-.4c.8.6.2 1.9.6 2.7s.3 2.8-.4 3.5a34 34 0 0 1 .5 6.9l-.6-.4c.4.4-.3.3-.3.7s.6.6 1 .9a4.7 4.7 0 0 0 .5 3.4h-.4c.8 1 .1 2.1 0 3.3s-.5.4-.5.7a2.5 2.5 0 0 1 .6.9l.4 1.2a7.6 7.6 0 0 1-.6 2.7c.6 2.9-.6 5.5-.3 8.1h-.5a9.6 9.6 0 0 1 .4 1.9 19.9 19.9 0 0 1 0 2.2 20.3 20.3 0 0 0 0 4.1l-.8-.3c-.3.7.1 1.7.7 1.5s.3 1.8-.4 2.3.3.9.4 1.6a8.8 8.8 0 0 0-.3 3.4v-.3a.3.3 0 0 0-.6.1c.2.5-.4 1.9.7 1.4-.7 1.4.2 3.5-.6 4.8s.3.3.5.4-.7 2.6-.3 3.6-.4-.3-.5.2.3 0 .5.4c.4 2.1-.7 4.1-.6 6s.3 6.8.5 10.1h-.4c.8 1.1-.7 2.6.4 3.5s-.1 1-.5.8-.5 2.5.1 3.8 0-.2-.1-.3.1 2.4-.4 3.9c-.1-.2-.1-.4-.3-.5s.7 1.4-.2 1.6.4.3.4.1a46.4 46.4 0 0 0-.8 9.1c-.7 1.9-1.6 0-1 1.6-.2.1.4.1.2.1s-1.1.9-.6 1.4.3.3.7.3-.9 1.6-.5 2.7h-.3c.9 1.2.4 2.7 1.4 3.7.2 6.8.7 13.3.8 20s.3 13-.3 19.7a3.7 3.7 0 0 0-.5 3.4c-.1-.1-.2-.2-.3-.1s.1 1.2.7 1.4c-.1 2.5.1 4.7.1 7.3-.1-.4-.6-.6-.6-.1l.4.5h-.2c.1.3.4.7.6.3.6 6.4-.7 12.6-.6 18.9a22.3 22.3 0 0 0 .1 5.2c-.9 4.8-1.6 9.1-1 13.9a3.6 3.6 0 0 1-1.8-2.3zm5-211.9c-.3.2-.4.8-.9.5s.6-.5.9-.5z"/><path fill="#fff" d="M440.6 17.1c.1 0-.1.2-.2.2s-.3-.4-.1-.5.1.2.3.3zm-.4 3.9c-.3-.1-.5-.9-.5-1.4zm-1.2 3.6c-.2.3-.4.2-.4-.2s.3.1.4.2zm.7.2a.7.7 0 0 1-.3.6c.2 0-.2-.7.3-.6zm-.8 7.7c0 .2.3.6-.1.8s-.4-.9.1-.8zm.4 3.6c0 .1-.1.2 0 .3s-.3 0-.4-.2zm-1.7 64.6l-.1-.4.3.1-.2.3zM436 129c.2.4-.3.3-.3.3s.3.2.3-.3zm1.4 15.3v-.1h.6l-.6.1zM435.9 78c-.1.3.5.2 0 .3s-.2-.4 0-.3zm70.4-7.4c-.8 1.5-2 0-2.9 1s0-.8-.2-.6-2.3.6-3.4-.2v-.2c-.2-.2-.4.6-.6.6s.1-.2 0-.4-.4.3-.4.6-.1-.6-.3-.7v.3c-.2 1.3-.9 0-1.3.7a.7.7 0 0 0 0-.3c-.7.9-1.7.8-2.5 1.2a2.2 2.2 0 0 0-.1-.7.8.8 0 0 1-.4.9c-.2-.6-.3.6-.6.3-.1.6-.3-.3-.4.4l-.2-.4c0 .8-.3-.4-.4.1v.2c-.1.2-.3-.2-.4 0-.3.3-.6-.2-.5.5s.3-.3 0-1a6.5 6.5 0 0 1-3.3 1 1.5 1.5 0 0 1-.3-.5c-.1.1-.4.2-.4.5l-.2-.3c-.2-.2-.1.7-.4.5a1 1 0 0 0 0-.6c-.1.5-.4.5-.6.7a.8.8 0 0 0 0-.4c-.1.6-.5 0-.6.4v-.4c-.4-.4 0 .8-.3.6a.9.9 0 0 0 0-.4c-.2.7-.6.6-.9.9a.6.6 0 0 0 0-.2c-.3.1-.6 0-.9.3s-.1-.9-.4-.7-.5.4-.1 1.2-.8-.3-.9 0-.3-.9-.1-1l-.3-.4c0-.3.2.1.1-.3s-.4.4-.5.3-.2 1.4-.5 1.5-.2-.8-.2-.9l-.2 1.5c-.1.1-.1-.6-.3-.4a1.2 1.2 0 0 1 0 .5c-.1-.1-.4.3-.6-.4s.2-.2 0-.4-.2.3-.4.3c-.2-.1-.4.4-.1.7s-.1-.4.1-.2-.3.6-.5.6a1.6 1.6 0 0 0 0-.5 2.4 2.4 0 0 1-.9.6c.1.3 0-.6.1-.5s-.7.8-1.2.2.1.5.1.4-.3-.5-.4-.3-.1.1-.3.2-.1-.1.1-.2-.8.8-1.3.5-.2.7-.3.7v-.5c-.1-.3-.3.1-.4-.3s.8-.6.5-.1-.3.8-.3.1-.3.6-.6.2.1-.6-.1-.6-.1.2-.3.4v.2c0 .4-.3 0-.1.5s-.4.3-.4-.5v-.6c-.1.1-.1.6-.2.9v-.3c.1.9-.3 0-.4.6s-.7 0-.8-.5-.3.6-.6.4a.5.5 0 0 0 .1-.3c-.2-.3-.2 0-.3.1s-.3-.5-.5-.8-.1.8-.1 1-.6.6-.8-.2.3-.4.1-.7-.4.7-.7.2v.7c-.1-.4-.4.4-.4-.3s-.3-.2-.3.5-1.1.4-1.4-.9-.2 0-.2.4.2-.3.2 0-.1.2-.1.3-.3-.2-.1-.8-.3 1.2-.7.9 0-.4-.1-.4l-.2.5c-.3-.1-.2-.7-.2-1.2s-.3.1-.4.4l-.2-.6c.1.5-.1.3-.2.4h.1c0-.2-.2-.1-.3 0a.7.7 0 0 0 .3.5c-.1.2-.2.2-.3.4s-.2-.3-.3-.4-.1.4-.2.4-.2 0-.1-.4.1.2.2 0-.1-.6-.3-.3 0 1-.2.7a3 3 0 0 0 .1-.5l-.2-.3v.8a1.3 1.3 0 0 1 0-.2c-.1.5-.4.1-.4.7s-.3-.3-.4-.4c-.1-.3-.3-.1-.4.2-.1 0-.3 0-.4.3s-.1-1.7-.3-1.1-.3.8-.2 1.1-.8.4-1.1-.3 0 .3-.1.4-1.1.5-1.5-.3 0-.4 0-.7-.1-.4-.2.3 0 .6.1.8a.6.6 0 0 1-.9-.2.4.4 0 0 1-.1.4c0-.6-.2-.7-.4-.5-.1.1-.1.8-.2.4a2.1 2.1 0 0 0 0-.4c-.2.3-.4.9-.6.5l-.2-.6c-.1.1-.2.4-.1.6s-.5-.4-.6-.9a1.8 1.8 0 0 1-2.1 1.2V79c-.2-.3-.1.5-.2.3s-.1-.6 0-.9-.3.5-.5.6.1-.2.1.2-.3-.3-.4.3a2.7 2.7 0 0 1 0-.9l-.2.3c-.2-.7.4-1.2.3-2.1h-.1c-.1-.6.4-.7 0-.9a2.3 2.3 0 0 0-.2 1.4c-.3.2-.2 1.4-.5 1.3s.2-.1.2-.6-.3.3-.4.1a1.4 1.4 0 0 1 0 .9c-.1-.3.1-.6-.1-.6s-.2.6 0 .8-.2-.2-.2.4.1-1.3-.1-1.5-.2.7 0 1.5a1.9 1.9 0 0 1-.1-.9c-.2-.3-.1 1-.3 0v.5l-.2-.6c-.1 0-.2.8-.3 0s-.3.1 0 .6.1-.4.3.3-.2.1-.2.3v-.3c0 .1-.1.1-.1.4a.8.8 0 0 0-.1-.4v.5c-.1.3-.3-.8-.4-.6V79c0 .1-.2-.3-.3-.1l.2 1.3c-.1.2-.2-.4-.2 0v-.5c0-.1-.3-.7-.5-.6s-.1.8.2 1-.3-.2-.3-.5.2.4.1.7l-.8-.9v-.7h-.1c0-.6-.2-.4-.3-1s-.2.2-.2.3.1 1.4.4 2.2-.8-2-.9-.5.1.9.3.6.1.9-.3.6-.5-.8-.3-1.4.2.2.3.1-.2-.9-.5-.8-.3.2-.2.6.2-.1.2.4-.5-.5-.4.4.4.4.4.7l-.2.3v-.3c-.5-.1 0 .6-.4.6l-.3-.6c0-.6.6.1.4-.8s-.2.5-.5.3v-.2c-.1 0-.4-1.2-.6-.4s0 .3 0 .7-.6.5-.9.6-.6 0-.2-.8.9.3 1-.4.4.1.3-.8-.4-.8-.6-1.3-.1.2-.2.3a6.4 6.4 0 0 0 .2 1c-.4-.1-.7.2-.9.7s-.1-.7.1-.8a1.6 1.6 0 0 1-1.2-.1c.2.8-.4.2-.3.8a1.3 1.3 0 0 1 .2 1.1c-.1-.1 0-.3 0-.5s-.2-.7-.4 0 .2-1 .3-1.6 0-.4-.2-.5l-.8.7c-.3-.6-.7 0-.9 0s-.1-1-.3-1.1.2.8-.1.4c0 .2-.6-.4-.3.6V78c-.1-.1-.1.1-.1.2s-.2-.4-.2-.6-.3.2-.5.3l.3.4c-.1.4-.4.1-.6.4l-.3-.4v.3c-.2-.4-.5-.5-.4-.1a5.7 5.7 0 0 1-.3-1.2c.3.1.2.5.5.8s.4 0 .3-.4-.1.1-.1.3-.2-.6-.3-1-.2 0-.1.1a.5.5 0 0 1 .3-.6c-.1.3.2.3.3.5s0-.8.3-.7.5-.5.9-.4a5 5 0 0 1-.3 1.3c.2.2.2-.1.4.2s0-1 .3-1.3v.4c.2-.2.2-.8.5-.7l1.4.3v.4c.3-.8.7-.3.9-.6s.8-.4 1 .3a4 4 0 0 1 1.9-.8v.6c0-.5.2.3.3.2s0-.6 0-1 .7-.3.9-.8v.4c.1-.8.7-.3 1.1-.3s.3.5.4.4.2-.7.5-1.2a1.6 1.6 0 0 1 1.1.2 2.1 2.1 0 0 1 1.5-.7 3 3 0 0 0 1.5-.3v.5c.9-1 2-.1 2.7-.6v.8c.2.3.5-.2.5-.8s.6-.4.7.3.3-.4.5-.5a1 1 0 0 0 1.1.1h-.5c-.1.2-.1.5.1.6s.6.2.5-.8c.5.6 1.1-.5 1.6.3s.1-.3.1-.5.9.5 1.2.1-.1.5.1.5 0-.3.1-.5 1.4.5 2 .4 2.3-.2 3.4-.3v.2c.4-.7.8.8 1.1-.4s.3.1.3.5.8.5 1.1-.2h-.1c.4.4.7-.2 1.2.2a.6.6 0 0 0-.1.3c.2.4.3-.8.5.1s0-.5 0-.4 1.9-.4 2.8-.7.2 1.6.7.8 0-.4 0-.2.5 1 .6.5.1-.3 0-.7.6.8.9.3v.3c.3-.9.8-.5 1-1.6 2.1-.5 4.1-1.5 6.3-2s4.3-1.1 6.6-.9c.6.7.7.7 1.2.3s0 .2 0 .3.4-.1.4-.7a17.6 17.6 0 0 0 2.4-.4c-.1.1-.1.6 0 .6v-.3a.6.6 0 0 0 0-.6c2.1-.8 4.4.3 6.5 0a2.8 2.8 0 0 0 1.8-.2c1.7.8 3.1 1.5 4.8.8 0 .1-.2 1.8-.8 2.2zm-70.1 7c.3.2.5.2.7.6z"/><path fill="#fff" d="M441.4 79.6c0-.1.1.1.1.2s-.1.3-.2.1 0-.2.1-.3zm1.4.3a.7.7 0 0 1-.6.5zm1.7 1.1c.2.2.2.4-.1.4s.1-.3.1-.4zm0-.7c.1 0 .2.1.3.3s-.2.2-.3-.3zm3.1.1c.1 0 .1-.3.3 0s-.2.5-.3 0zm1-.7h.1a.4.4 0 0 1 .1.4zm20.5-1.7l-.2.2.1-.3.1.1zm9.6-1c.1-.2.1.3.2.3s0-.4-.2-.3zm4.8-2.4h-.1l-.1-.6.2.6zm6.7-73.3c-.1-.7-.5.4-.2-.5s.4.2.2.5z"/><path fill="#fff" d="M488.1 190a4.6 4.6 0 0 1-.6-3.7 7.3 7.3 0 0 0-.1-3.9c-.1-.3.8 0 .6-.6a10.8 10.8 0 0 1-1.2-4.3 15.5 15.5 0 0 1 .2-4.8h.2c.1-.5-.7-1.1-.6-1.7s.2.2.4 0-.2-1-.6-1.3.6-.2.8-.5l-.5-.3c-1.3-1 .1-2.3-.6-3.6s.2.2.3.1c-.8-2.1-.6-4.6-.9-7a.9.9 0 0 0 .8 0c-.6-.1-.7-.8-.8-1.4s-.5-1.1-.2-1.8h.1c-.6-.5.4-.8-.4-1.2l.5-.3c-.8-.2.4-.8 0-1.2h-.2c-.2-.4.2-.6.1-1h.1c-.2-.9.2-1.4-.4-1.4s.2.9 1 .4a42.5 42.5 0 0 1-.5-9.1c.3-.3.3-.6.6-.6s-.1-1.1-.4-1.4.3-.2.4-.4-.7-.6-.4-1.2a.5.5 0 0 0 .6.2c-.5-.5-.4-1.2-.6-1.8s.2.2.4.2.1-1.2-.2-1.8l.4.2c.4-.9-.8-.3-.5-1.1s.3.1.4.2-.5-2-.7-2.7h.2a10.9 10.9 0 0 0-.2-2.6c.2-.3.9.1.8-.8s-.3-1.5-1.1-1a5.4 5.4 0 0 0 .1-2.4c.3.3.9-.4 1 .3l.4-.5c.3.1-.1.5.3.3s-.3-1.2-.2-1.5-1.3-1.1-1.4-2 .8-.2.9 0l-1.4-1.3c0-.3.6-.1.4-.5s-.3-.2-.5-.3-.2-1.3.5-1.4.2.5.4.2-.3-.6-.3-1.2h.1c.1-.4-.3-1.1-.7-.7s.4-.1.2.3a1.8 1.8 0 0 1-.6-1.5c.1.2.3.2.5.2a6.7 6.7 0 0 1-1-2.4c-.3 0 .6.3.4.4s-.7-2.3 0-3.2-.5.1-.4.1.5-.5.4-.8-.1-.4-.2-.8.1-.1.2.2a6 6 0 0 1-.3-3.6c-.2 0-.7-.7-.7-1h.5c.3-.2 0-.9.4-.9s.5 2.2 0 1.4-.7-1.1-.1-.9-.5-1-.1-1.5.6.4.6 0-.2-.2-.4-.8l-.2-.4c-.4 0 .1-.7-.4-.4s-.2-1.1.5-1h.6c0-.3-.6-.5-.9-.8h.3c-.9-.1.1-.8-.6-1.2s0-1.7.6-2a2 2 0 0 1-.4-1.6c.1.1.1.3.3.3s0-.5-.1-.8.5-.7.8-1.2-.7-.3-1-.4-.6-1.5.2-2.1.4.8.7.3-.6-1-.2-1.7l-.7.2c.5-.3-.4-1.1.3-1s.2-.9-.5-.8-.4-3 .9-3.8 0-.6-.4-.5.3.4 0 .5-.2-.2-.3-.2.2-.7.8-.3-1.2-.9-.9-2 .4 0 .4-.4l-.5-.6c.1-.7.7-.4 1.2-.4s-.1-.8-.4-1l.6-.5c-.5.3-.3-.3-.4-.5v.2c.2-.1.1-.5 0-.7s-.4.5-.5.7-.2-.5-.4-.8.3-.6.4-.9-.4-.4-.4-.5 0-.6.4-.3-.2.3 0 .5.6-.2.3-.7-1 .1-.7-.6l.5.3.3-.6h-.2c-.5-.2-.1-1-.7-1.1s.3-.7.4-1a1 1 0 0 0-.2-1.2h.1a1.3 1.3 0 0 0-.3-.9c.3-.5 1.7-.2 1.1-.7a.8.8 0 0 0-1.1-.6c.3-.9-.4-2 .3-2.9s-.3 0-.4-.3-.5-2.9.3-4c.2.4.4 0 .7 0s.4-.4-.3-.5-.6 0-.8.4a3.6 3.6 0 0 1 .2-2.5c-.2.2-.3.1-.4-.1s.7-.6.5-1h-.4l.4-.3c-.1-.2-.8-.2-.4-.6h.4c-.3-.5-.9-1.1-.5-1.7l.6-.5c-.1-.2-.4-.7-.6-.2s.5-1.6 1-1.8c-1.1-1.7-.8-4.1-.4-5.8h.3c.3-.4-.5-.3-.2-.6s.7-.3.9.2-.4-.9-.4-1.4.2.4-.3.2.4-.8-.1-1 .7 0 .9.2l-.2-.4c.7-.4 1.1 1.3 2 .9v-.4c.7-.3.6 1.1.9.2s-1-.9-1.3-.6-1.3-.5-1.2-1.4 0 .7.5.6-.2-.8 0-1.2-.8 0-.9-.2.5.3.6-.3-.6-.7-.8-.2.2-.6-.4-.9 1.2.6 1.5 0-.7-.8-1.5-.5a.6.6 0 0 1 .9-.1c.3-.4-1-.9 0-1.1h-.5l.6-.5c0-.4-.8-1.1 0-1.1s-.1-1-.6-.6.4.6-.3.9-.1-.8-.3-1.1h.3c-.1-.2-.1-.6-.4-.7a.3.3 0 0 0 .5-.1l-.5-.2c-.2-.8.8-.2.7-1l.4.6c-.1-.1.4-.4.2-.8l-1.3-.6c-.2-.5.5-.2.1-.7l.5.6c.1.1.7-.4.7-1s-.7-1.1-1-.5.3-.7.6-.5-.5 0-.6-.6.9-1 1.3-1.3l.6.7v-.4c.5.6.5-.1 1 .2s0-.6-.1-.8-1.1-1-2.1-1 2.2-.2 1-1.4-.8-.5-.7.2-.8-.5-.3-1.2 1-.4 1.4.4-.3.4-.2.5.9.2 1-.4 0-.9-.4-.9 0 .6-.5.2.7-.7-.1-1.2-.5.5-.9.4v-.5h.3c.3-.8-.6-.3-.4-1.1l.7-.3c.6.2-.4 1.1.6 1.1s-.3-.7-.1-1.2v.4c0-.2 1.3-.3.6-1.1s-.3-.1-.7-.2-.4-1.1-.4-1.6.1-.9.8-.3a1.3 1.3 0 0 0 .2 1.8c.8-.3-.2.7.6.9s.9-.6 1.4-.7-.2-.4-.2-.5-.5.1-1 .1a2 2 0 0 0-.5-2c.2-.3.7-.2.8.1a9.7 9.7 0 0 1 .1-2.9c-.8.6-.2-1-.9-.6s-.7.9-1.1.7.3 0 .5-.1.7-.6 0-1 1 .2 1.6.3.4 0 .4-.6a7.6 7.6 0 0 1-.8-2.1c.6-.9 0-2.2 0-3s1-.1 1.1-.6-.8.4-.4-.4h.1c-.2-.2.5-1.4-.5-1.7l.8.2c.1-.1-.1-.3-.2-.4s.5-.2.6.1-.1-1-.1-1.5l-.5.3c-.4-.9.1-1.5-.1-2.4h.4l-.3-.5c.4.1.7-.3.3-.6L490 4c-.3.4-.5-.4-1-.2s-.3 1 .2 1.1 0-.3-.2-.6.6.4 1 .6.2-.4 0-.4a1.5 1.5 0 0 1 .4 1.2c-.2-.4-.4.2-.6.1s.7.5.6 1.2.4 1.2.2 2a2.8 2.8 0 0 1-1.2-1.2c-.3.5 0 .5-.3 1s1 .4 1.3 1h-.4c.2.6.8.6.7 1.3a30.7 30.7 0 0 0-.3 3.4h-.4c.9.5.3 1.7.7 2.4a4.4 4.4 0 0 0 0 1.8c.1.6.1 1.1-.3 1.4a17.3 17.3 0 0 1-.2 6.3l-.5-.5c.4.5-.4.2-.4.6s.5.6.8 1a2.5 2.5 0 0 0-.4 1.5 4.4 4.4 0 0 0 .3 1.5h-.4c.6.8-.1 1.6-.2 2.7s-.6.3-.5.6.6.8 1.1 1.7a7.4 7.4 0 0 1-.3 2.3 8.7 8.7 0 0 1 .6 3.8 35.7 35.7 0 0 0-.1 3.9h-.5c.6 2.6-.8 5.2-.3 7.1l-.8-.2c-.3.6.1 1.4.7 1.2a1.8 1.8 0 0 0 0 1c0 .4 0 .7-.3.9s.4.8.5 1.3a6.8 6.8 0 0 0-.1 3v-.3c-.2-.1-.5-.1-.6.2s-.2 1.7.8 1.2c-.6 1.3.5 3.1-.3 4.4s.3.2.5.3-.5 2.4-.1 3.3-.5-.3-.5.2.3 0 .5.3c.5 1.9-.5 3.8-.4 5.5s.3 6.2.3 9.1h-.2c.7 1-.8 2.3.4 3s-.1.9-.5.7-.5 2.2.2 3.3 0-.2-.1-.3.2 2.1-.2 3.3-.1-.3-.3-.4.8 1.1-.1 1.3.5.2.4 0c-.4 2.6.2 5.4.4 8.1s-1.6.1-.9 1.6.4.1.2.1-1.1.9-.6 1.3.3.3.7.3-.9 1.4-.5 2.4h-.3c.9 1.1.4 2.4 1.4 3.3.2 6.1.7 11.9.8 17.8s.3 11.5-.3 17.5a2.9 2.9 0 0 0-.5 3c-.1-.1-.2-.2-.3-.1s.1 1.1.7 1.2c-.1 2.2.1 4.2.1 6.5-.1-.4-.6-.5-.6-.1l.4.4h-.2c.1.3.4.6.6.3a45.6 45.6 0 0 1-.1 8.4l-.3 4a14.1 14.1 0 0 0 .3 3.6 21.9 21.9 0 0 0 .9 4.7 34.2 34.2 0 0 1-.3 3.7c-.2 1.2-.5 2.2-.6 3.2a13.4 13.4 0 0 0-.3 2.8 3.4 3.4 0 0 0 .5 2h-.9a1.8 1.8 0 0 1-1.4-.9zm2.2-187.9c-.3.2-.5.6-.9.3s.6-.3.9-.3z"/><path fill="#fff" d="M486.9 15.3c.1 0-.1.2-.2.2s-.3-.3-.1-.4.2.1.3.2zm-.2 3.3c-.3 0-.5-.8-.6-1.2zm-1.3 2.9c-.3.2-.4.1-.4-.2zm.7.3c0 .2-.2.3-.4.4s-.1-.6.4-.4zm-1.8 6.2c0 .2.2.6-.2.6s-.2-.8.2-.6zm-.1 3.6c0 .1-.1.2 0 .3s-.3 0-.4-.2zm-.3 57.7l-.1-.3h.3l-.2.3zm.1 25.3c.2.3-.3.2-.3.3s.3.1.3-.3zm1.4 13.6v-.1h.6l-.6.1zm32.1-82.8c.1 1.2.5-.6.2.8a.6.6 0 0 1-.2-.8z"/><path fill="#fff" d="M519.9 41.6a17.4 17.4 0 0 1-.1 6 19.7 19.7 0 0 0-.2 6.2c0 .5-.8-.2-.7.9a22.4 22.4 0 0 1 .4 6.9 48 48 0 0 1-1.1 7.5l-.2-.3c-.2.9.6 2 .5 2.9s-.2-.3-.4-.1.3 1.7.7 2.1-.5.4-.7.9l.6.5a3.7 3.7 0 0 1 .9 2.5 8 8 0 0 0 .7 2.9c-.1-.1-.3-.2-.4-.1a14.9 14.9 0 0 1 1 5.2c.1 1.9 0 3.8.1 5.6-.2-.2-.5-.3-.7-.1s.6 1.3.7 2.3.5 1.7.1 2.8h-.1c.6.8-.4 1.2.4 1.9l-.4.5c.8.3-.4 1.2.1 1.9h.2c.3.6-.1 1 .1 1.6h-.1c.4 1.3.3 2.2.9 2s-.6-1.2-1.1-.3a19.5 19.5 0 0 0 1.6 3.1 12.1 12.1 0 0 0 2.3 2.6c1.7 1.5 4 2.2 6.2 3 .4.4.7.6.8.9s1.7.4 2.2.2.2.4.4.5 1.1-.5 1.9 0-.6.3-.5.5a10.7 10.7 0 0 1 2.9-.1c-.2.1-.4.1-.4.3s1.9.3 2.8-.1l-.3.4c1.5.5.4-.8 1.7-.5-.3.1-.2.3-.2.4a9.3 9.3 0 0 1 2-.7l1.9-.7a.2.2 0 0 0 0 .2 33.5 33.5 0 0 1 4-1.1c.5.2-.1.9 1.2.8s2.3-.2 1.6-1.1l1.9.3h.9l.7-.2c-.5.4.7.8-.2 1l.8.3c0 .3-.8 0-.5.4s1.8-.7 2.3-.7 1.3-1.7 2.4-2.4c-.5.5.7.6.4.9a9 9 0 0 0 .8-2.2c.3-.3.4.4.8-.2s0-.4 0-.6l.7-.7c.3-.3.7-.6 1-.5s-.3.7.2.4.3-.9.7-1.6h.1c.4-.5.4-1.6-.2-1.3s.5 0 0 .5a4 4 0 0 1 .3-2.2c0 .3.2.3.4.5s0-2.4-.1-3.6.6.5.3.7a4.1 4.1 0 0 0 .2-2.4 3.9 3.9 0 0 1 .2-2.3c.1.2-.5.1-.4.1s.5-.8.4-1.3-.1-.7-.2-1.2.1-.1.2.3a12.7 12.7 0 0 1-.3-5.8c-.2 0-.6-1.2-.6-1.6l.4.2c.3-.4.1-1.4.5-1.5s-.2.4-.2 1.2.2 1.7 0 1-.6-1.8 0-1.5-.3-1.7.2-2.5.5.8.6.1-.2-.4-.2-1.3v-.6c-.4-.1.2-1-.3-.7s0-1.7.7-1.5l.6.2c0-.5-.5-.9-.7-1.3h.3c-.9-.2.2-1.1-.5-1.8s.1-2.5.7-3a4.6 4.6 0 0 1-.4-2.5c.1.2.1.4.3.5s0-.7-.1-1.3.5-1.2.8-1.8-.7-.5-1-.6-.6-2.3.2-3.2.4 1.2.7.5-.6-1.5-.2-2.7l-.7.3c.5-.5-.4-1.8.3-1.6s.2-1.4-.5-1.3c.6-2-.4-4.8.9-6s0-1-.4-.8.3.7 0 .8a.4.4 0 0 0-.3-.3c.2-.6.2-1.1.8-.5.4-1.4-1.2-1.4-.9-3.1.3.1.4-.1.4-.6l-.5-1c.1-1.1.7-.6 1.2-.7s-.1-1.3-.4-1.6l.6-.7c-.5.5-.3-.5-.4-.8v.3c.2-.1.1-.8 0-1.1s-.4.8-.5 1.1-.2-.8-.4-1.2.3-.9.4-1.3-.5-.5-.5-.7 0-.8.4-.5-.2.4 0 .7.6-.4.2-1-.9.2-.8-.8.4.3.6.5v-1h-.3c-.5-.2-.4-1.4-.9-1.6s.1-1.1.1-1.6h.1a2.3 2.3 0 0 0-.5-1.8h.1a3.2 3.2 0 0 0-.5-1.5c.3-.9 1.6-.5 1-1.3s-.9-1.3-1.2-.9c.2-1.6-.4-3.4.4-4.8s-.3-.1-.4-.5c.3-2.2-.3-4.5.6-6.2.2.6.4 0 .7 0s.4-.6-.3-.8-.6 0-.8.6a9.1 9.1 0 0 1 0-3.7c-.2.3-.3.1-.4-.1s.7-.9.3-1.5h-.4l.3-.5c-.2-.2-.8-.1-.6-.8l.4-.3c-.5-.5-1.2-1.1-1.2-1.7l.3-.7c-.2-.2-.7-.3-.6.1s-.6-1.3-.6-1.9h-7.2v-.4c-.7-.3-.4.5-.9.3s-.5-.6.1-.9c-1.1-.4-1.4.4-2.1.5s.6-.2.4.3-1.5-.4-1.6.2 0-.7.1-.9l-.7.2c-.8-.7 1.9-1.1 1.1-2h-.6c-.5-.6 1.6-.6.1-.9s-1.3 1.1-.7 1.4c-1.4.1-.7 1.4-2.1 1.2s1.2 0 .9-.5-1.4.2-2 0 .1.8-.4.9.5-.5-.5-.6-1.1.6-.3.8-1.1-.2-1.6.4 1-1.2-.1-1.5-1.4.7-.8 1.5a.5.5 0 0 1-.2-.9c-.6-.3-1.5 1-1.7 0l-.2.5-.8-.5c-.6 0-1.7.9-1.7.1s-1.4.2-.8.7.8-.5 1.3.2-1.1.2-1.5.4v-.3c-.2.2-.8.2-.9.5s0-.4-.2-.4l-.2.5c-1 .4-.4-.8-1.3-.5l.7-.5c-.1.1-.6-.3-1 0s-.3 1-.4 1.4-.4-.4-.8.1l.6-.7c.1-.2-.7-.6-1.4-.4s-1 1.1-.2 1.1h-.6c-.2 0-.3-.2-.2-.4s.3.4-.6.9-1.7-.3-2.4-.6l.7-.9h-.6c.6-.7-.5-.4-.2-1a2.3 2.3 0 0 0-1.2.5c1.3.7-1 1.5-.5 2.3s-1-.2-1.3-.6-.6-.5-1 .3 0 1 .5.5-.1 1-.7.9-.1-.4-.3-.6-.4-.4-.2-.8.5 0 .6-.1-.3-.9-1-.6l-.5.5a.3.3 0 0 0 .1.5c.2.2.3.1.3 0s.1-.1.2.2-.4.2-.6.3-.2.2.1.5.6 0 .8.3a2.6 2.6 0 0 0 0 .4l-.2-.3c-.3.2-.2.3 0 .4s.3.2.1.5h-.6c-.2-.2-.1-.5.1-.7s.2-.4-.2-.6.1.8-.4 1.2 0-.3 0-.5l-.7.2a.9.9 0 0 0-.4 1.2c.1.7.3.2.6.4a12.3 12.3 0 0 0-.1 2.4c-.7-.3-.3 1.3-.8.4a2.7 2.7 0 0 0 .3-2.6c-.9.2.4-.9-.3-1.5-.4 1-1.1.7-1.6.7a1.4 1.4 0 0 0 0 .8c.4.3.5-.1 1 0a3.4 3.4 0 0 0 0 2.9.4.4 0 0 1-.7-.3c0 1.4-.1 2.8-.1 4.2.7-.9.4 1.4 1 .8s.6-1.3 1-1-.3 0-.5.2-.6.9.2 1.4c-.4-1.2-1-.1-1.7-.2s-.5 0-.3 1l.4.8.3.9a12.6 12.6 0 0 1 .3 1.8 4.6 4.6 0 0 0-.3 2.4v1.1a7.4 7.4 0 0 1 .2 1.2c-.3.7-1 .2-1.2 1s.8-.6.4.6h-.1c.1.4-.6 2.2.4 2.6l-.8-.4c-.1.2.1.4.2.6s-.5.3-.6-.1 0 1.6-.2 2.4l.6-.4c.1 1.5-.7 2.3-1 3.7l-.4-.2v.8c-.4-.3-.8.3-.6.8s-.3-1.6-.4-2.3.3.8.8.6.7-1.4.4-1.7-.1.5-.1.9-.4-.7-.7-1.2-.3.5-.2.6a3.6 3.6 0 0 1 .1-1.8c.1.6.4-.2.6 0s-.5-.9-.3-1.8a.7.7 0 0 0 .2-.6 3.6 3.6 0 0 0-.1-.8 4.1 4.1 0 0 1-.2-1.7 4 4 0 0 1 1.1 1.9c.3-.7 0-.8.3-1.6a3 3 0 0 1-1.2-1.6h.4a1.9 1.9 0 0 0-.5-.8 1.3 1.3 0 0 1-.3-1.1c.1-2.1.3-4 .3-5.3h.4a1.5 1.5 0 0 1-.5-.6 4.5 4.5 0 0 1-.3-1 12.5 12.5 0 0 0-.4-2.1 30.1 30.1 0 0 0 0-3.1 3.3 3.3 0 0 1 .6-2.3 22.3 22.3 0 0 1 .4-2.5 16.6 16.6 0 0 1 .7-2.4 7.1 7.1 0 0 1 4.1-4.2l-.4.8c.5-.7.6.1 1.1-.2s.7-.9 1-1.3a8.6 8.6 0 0 0 4.6-1.4v.4l.8-.6L533 4l2.6-.3a1.5 1.5 0 0 0 1.1.3c.8-.8 1.3-.8 2.7-1.4a14.1 14.1 0 0 1 3.7.1c3.8-1.1 7.7-.3 11.5-.6l.3.5a15.3 15.3 0 0 1 2.9-.3h3a12.5 12.5 0 0 1 7 2.6l-.9.3a7.5 7.5 0 0 0 1.4 1.3c.4.3.8.5 1 .2.6 1.2 1.8 2.8 1.4 3.7s.7 1.3 1 2.3a49.1 49.1 0 0 0 .3 5.2v-.5c-.2-.2-.5-.2-.6.3s-.2 2.8.8 2c-.6 2.1.2 5-.6 6.9.3-.2.3.3.5.6-.1 1.8-.6 3.4 0 4.6s-.5-.4-.5.3.3 0 .5.4c.8 2.6.4 5.8.8 8.6.1.6.2 1.3.3 2V45c0 1.2.1 2.4.1 3.6v7h-.2c.7 1.5-.8 3.6.4 4.8s-.1 1.4-.5 1.1-.5 3.4.2 5.1a.7.7 0 0 0-.1-.4c-.4 1.8.2 3.3-.2 5.2-.1-.2-.1-.5-.3-.6s.8 1.7-.1 2.1.5.3.4 0-.1 1-.1 1.5v1.7c0 1.1-.1 2.3-.2 3.4l-.5 6.4c-.9 2.8-1.6 0-1.1 2.3-.2.2.4.1.2.2s-1.1 1.3-.6 1.9.3.4.7.4c-.3 1.8-.8 2.2-.4 3.7h-.3c.9 1.8.4 3.8 1.2 5.6a22.8 22.8 0 0 1-.8 4.1l-.3 1-.3.9-.8 1.9a16.6 16.6 0 0 1-2.4 3.7 14 14 0 0 1-3.6 3 18.7 18.7 0 0 1-4 1.7l-1.9.5-.9.2-1.2.2a31 31 0 0 1-4 0h-1.2l-1 .2-3.2.9-2.3.4h-2.1a32.5 32.5 0 0 1-7.8-.9 47.2 47.2 0 0 1-7-2.3l-.4-.2-.5-.2-1-.5-2-1.2a13.4 13.4 0 0 1-3.3-3.4c-.6-1.4-.7-2.2-1-2.9s-.7-1.4-1.2-2.8.2.2.3 0-.5-.5-.6-1-.2-1-.6-1.1a63.6 63.6 0 0 1-.4-10.9c0 .6.6.9.6.2l-.4-.7h.2c-.1-.5-.4-1-.6-.5V84c0-2 0-1.9-.1-2.8s-.1-.9-.2-1.3v-.8l-.2-1c-.8-5.1-.1-9.7-.1-14a12.7 12.7 0 0 0 .1-1.6v-5.2l1.6-9.8.8-4.9a39.4 39.4 0 0 1 1.1-5.5 4.7 4.7 0 0 1 .5 1.2 9 9 0 0 1 .3 3.3z"/><path fill="#fff" d="M517.6 44c.4-.2.7-.9 1-.2s-.7.3-1 .2zm5.1-20.6c-.1 0 .1-.3.1-.4s.4.4.2.6-.2-.1-.3-.2zm-.2-4.7c.3.1.5 1.1.5 1.6a15.9 15.9 0 0 1-.5-1.6zm2-3.9c.3-.3.4-.1.3.3s-.2-.1-.3-.3zm-.5-.5a.9.9 0 0 1 .5-.6c-.2 0-.1.9-.5.6zm5.6-3.3c.2-.1.8-.4 1.1-.1s-1.2.6-1.1.1zm5-1.6h.4c.3.1.1.3-.1.4zm33.3 54.4l-.1-.5.3.1-.2.4zm-2.1 38.7c0 .5-.4.2-.4.3s.2.3.4-.3zm-14.5 9.9h.1v.6l-.1-.6zm38-108.1c-.4-1-.4.7-.4-.7s.5.3.4.7zm38.5 8a20.3 20.3 0 0 1 .7 6.5 14.2 14.2 0 0 0 1.2 6.6c.2.5-.8.1-.4 1.1a15.8 15.8 0 0 1 1.2 7.4c-.1 2.8-.4 5.7-.4 8.3l-.1-.2a3.4 3.4 0 0 0 .5 1.5 2.9 2.9 0 0 1 .5 1.4c-.2 0-.3-.3-.4 0s.3 1.7.6 2.2-.6.3-.8.8l.5.6a4 4 0 0 1 .4 2.9 6 6 0 0 0 .3 3.3c-.1-.1-.3-.3-.4-.1a39.2 39.2 0 0 1 1.8 5.6 41.8 41.8 0 0 1 .5 6.1c-.2-.2-.5-.3-.8-.1s.7 1.4.8 2.5.5 1.8.2 3.1h-.1c.6.9-.4 1.4.4 2.1l-.5.6c.8.4-.4 1.3 0 2.1h.2c.2.7-.2 1.1-.1 1.8h-.1c.2 1.6-.2 2.5.4 2.4s-.2-1.5-1-.7a125.5 125.5 0 0 1 .5 15.6c-.3.6-.3 1-.6 1.1a9.9 9.9 0 0 0 .4 2.4c0-.2-.3.3-.4.6s.7 1 .4 2.1-.4-.5-.6-.4a9.2 9.2 0 0 1 .6 3.1c-.1-.2-.2-.4-.4-.4s-.1 2.1.2 3.1l-.4-.4c-.4 1.6.8.5.5 1.9-.1-.3-.3-.2-.4-.3s.5 3.4.7 4.7h-.2a29.3 29.3 0 0 0 .2 4.4c-.2.6-.9-.2-.7 1.3.7-.1.4 2.5 1.2 1.6a15.9 15.9 0 0 0 0 4.1c-.3-.6-.9.6-1-.4l-.4.8c-.3-.1.1-.8-.3-.6a14.6 14.6 0 0 1 .3 2.5c.5 1 1.3 1.9 1.4 3.5-.3-.8-.8.4-.9-.1l1.4 2.2c0 .5-.6.1-.4.9s.3.3.5.5.1 2.2-.7 2.4-.1-.9-.4-.3.2 1 .1 2h-.1c-.2.6.1 1.9.6 1.3s-.5.1-.2-.5a4.3 4.3 0 0 1 .2 2.7c-.1-.4-.3-.3-.4-.5a13.4 13.4 0 0 1 .2 4.4c.3.1-.5-.7-.3-.9a8.8 8.8 0 0 0-.6 2.9 4.7 4.7 0 0 1-.9 2.5c0-.3.5 0 .4 0s-.8.6-.9 1.3-.2.7-.4 1.4-.2.1 0-.5a7.4 7.4 0 0 1-1.4 2.9 7.3 7.3 0 0 1-3.4 2.5c.1.1-.2.4-.5.7l-1 .7v-.5c-.5-.1-1.6.6-1.8.2s.5.1 1.4-.4 1.7-1 1.1-.5-.7.2-1 .5-.7.5-.6.1-1.8 1-2.8.7.7-.7-.1-.6-.4.3-1.5.5l-.7.2c0 .5-1.2 0-.7.5s-2 .2-1.8-.5l.2-.6c-.6 0-1 .6-1.4.8s-.2-.2-.2-.3-1.4-.2-2.1.4-3.1-.5-3.5-1.1a5.3 5.3 0 0 1-2.8-.2c.2 0 .5 0 .6-.2s-.8-.2-1.4-.2-1.2-.8-1.8-1.3-.8.6-.9.8-.9-.6-1.6-.6a2.4 2.4 0 0 1-1.9-.7c.4 0 1.5 0 .8-.4s-.7-.6-1.3-.6a2.3 2.3 0 0 1-1.8-.6v.8a2.8 2.8 0 0 0-1.2-.9c-.4-.3-.8-.5-.4-.7s-1.2-1.6-1.6-1c-1.4-2.7-2.6-6.2-1.4-7.6s0-1.1-.4-1 .3.7.1 1a.4.4 0 0 0-.3-.4c.1-.7.2-1.3.8-.6.4-1.5-1.2-1.6-.9-3.5.3.1.4-.1.4-.6l-.5-1c.1-1.2.7-.7 1.2-.7s-.1-1.4-.4-1.7l.6-.8c-.4.6-.3-.5-.5-.8v.3c.2-.1 0-.9 0-1.2s-.4.9-.5 1.3-.2-.8-.5-1.2.3-1 .3-1.5-.5-.6-.5-.7-.1-.9.3-.5-.2.5.1.7.6-.4.2-1.1-.9.3-.8-.8.4.3.6.5 0-.7.1-1h-.3c-.5-.2-.5-1.6-1-1.8a8.5 8.5 0 0 1 0-1.8h.1a2.8 2.8 0 0 0-.5-2h.1a3.5 3.5 0 0 0-.5-1.6c.2-.9 1.6-.5 1-1.4s-1-1.3-1.2-.9c.1-1.7-.8-3.5-.2-5.1s-.3-.1-.4-.5c0-2.4-.8-5.1.1-7 .2.7.4 0 .7 0s.4-.7-.3-.9-.6 0-.7.7a10.2 10.2 0 0 1 .1-4.4c-.2.4-.3.1-.4-.2s.7-1 .5-1.7h-.4l.4-.5c-.1-.3-.8-.3-.4-1.1l.4-.2c-.3-.8-.9-2-.5-2.9l.6-.7c-.1-.4-.4-1-.6-.4.4-1.5.4-2.5.9-3-1.2-2.6-1.3-6.3-1.3-9.3h.3c.2-.8-.5-.4-.4-1s.6-.6.9 0c.3-1.2-.6-1.5-.8-2.2s.3.6-.2.5.2-1.6-.4-1.8.7-.1.9 0l-.3-.7c.6-.9 1.3 1.9 2.1.9V78c.6-.7.8 1.7.9 0s-1.2-1.3-1.4-.6c-.2-1.5-1.4-.6-1.5-2.2s.2 1.3.6.9-.4-1.5-.2-2.2-.8.2-.9-.3.6.5.6-.7-.7-1.2-.8-.3.1-1.2-.5-1.8 1.3 1.1 1.5-.2c-.5.2-.8-1.5-1.5-.8s.5-.6.9-.2-1-1.7 0-2l-.5-.2.5-.9c0-.6-.8-2 0-2s-.1-1.6-.7-1.1.5 1-.3 1.5-.1-1.3-.4-1.8h.3c-.1-.3-.1-1-.4-1.2s.4.1.5-.2l-.5-.3c-.3-1.3.8-.3.6-1.5l.4.9c-.1-.2.3-.6.2-1.2l-1.3-.8c-.2-.7.5-.3 0-1l.5.9c.1.1.7-.6.7-1.5s-.8-1.5-1-.6.2-1.1.6-.8-.5.1-.7-.8.7-1.5 1.1-2.2l.7.9v-.6c.6.8.4-.4 1 0a2.5 2.5 0 0 0-.3-1.3c-1 1.2-1.3-1.4-2.2-1-.2-1.7 2.1-1.1.8-2.8-.2.3-.9-.5-.6.5.1-1.1-.9-.7-.5-2 .4.9.9-1 1.4.3s-.2.7-.1.9.9.1.9-1-.1-1.6-.6-1.4.1 1-.5.6.6-1.5-.3-2.1-.5 1-.8 1l-.2-1 .3.2c.2-1.5-.6-.5-.5-1.9l.7-.7c.6.4-.3 2.2.7 1.9s-.4-1.3-.2-2.2.1.5.2.7 1.3-.7.5-2.1-.3-.2-.7-.2c-.1-1.6-.5-2-.5-3s.1-1.8.8-.7-.4 2.8.3 3.3-.1 1.2.7 1.6c0-1.3.8-1.2 1.3-1.4a1.9 1.9 0 0 0-.3-.9c-.5-.1-.5.3-1 .3a6 6 0 0 0-.6-3.5c.2-.5.7-.3.8.2a28.5 28.5 0 0 1 .1-5c-.8 1-.2-1.8-.9-1.1s-.7 1.6-1.1 1.1.3 0 .5-.2.7-1 0-1.7c.3 1.5 1 .3 1.6.6s.4 0 .4-1a19.9 19.9 0 0 1-.8-3.6c.6-1.5 0-3.9 0-5.2s1-.2 1.1-1-.8.7-.4-.7h.1c-.2-.4.5-2.5-.5-2.9l.8.4c.1-.3-.1-.5-.2-.7s.5-.3.6.1 0-1.7 0-2.6l-.5.6a7.3 7.3 0 0 1-.1-2 5.1 5.1 0 0 0-.1-1.9h.4l-.4-.8c.5.1.5-.8 0-1.1a11.1 11.1 0 0 1 1.6 2c-.2.7-.6-.7-1-.2a1.9 1.9 0 0 0 .3 1.9 1.4 1.4 0 0 0-.2-.9c.6-.2.6.6 1 1s.1-.7-.1-.7a3.7 3.7 0 0 1 .4 2c-.2-.6-.4.3-.6.1s.7 1 .5 2.1.4 2.1.2 3.4a4.4 4.4 0 0 1-1.2-2c-.3.8 0 .9-.3 1.7a3 3 0 0 1 1.3 1.7h-.4c.2 1 .8 1 .7 2.2s-.2 4.3-.3 5.8h-.4c.9.9.3 3 .7 4.2s.4 4.4-.3 5.5a78.7 78.7 0 0 1 .5 10.5l-.6-.6c.4.7-.3.4-.3 1.1s.6.9 1 1.4a10.7 10.7 0 0 0 .5 5.3h-.4c.8 1.5.1 3.2 0 5.1a1.5 1.5 0 0 0-.5 1.1 9 9 0 0 1 1.1 2.9 21.5 21.5 0 0 1-.2 3.9c1.2 4 .9 8.1 1.6 12.3l-.5.3c1.3 4 .4 9.2.9 12.7l-.8-.3c-.3 1.1.2 2.5.8 2.2s.4 2.7-.3 3.4.4 1.4.5 2.3a18.1 18.1 0 0 0-.1 5.1v-.5c-.2-.2-.5-.2-.6.3s-.2 2.9.8 2.1c-.5 2.2.6 5.1 0 7.3.3-.2.3.3.5.5.1 1.9-.2 4 .4 5.4s-.5-.4-.4.4.3 0 .6.5a20.7 20.7 0 0 1 .7 4.6c.1.8.1 1.5.2 2.3s.2 1.7.3 2.5a37.3 37.3 0 0 1 .7 8.3 52.7 52.7 0 0 0 .2 7.2h-.2a3.8 3.8 0 0 1 .5 1.9c.1.6.3 1.1 1 1s.5.6.2.8a4.5 4.5 0 0 1 1.5.9l1.1.5 1.3.2h-.5c1.7.9 3.4.8 5.3 1.6-.2 0-.6 0-.7.2s1.9-.4 2.1.6.4-.4.1-.4a22.9 22.9 0 0 0 12.4 0c1.3-.1 1.5.2 1.5.5s0 .4.8-.4-.1-.4.1-.2.7-.2 1-.2.7.1.7-.3.1-.5-.2-.7a8.6 8.6 0 0 0 1.4-.9 1.4 1.4 0 0 0 .4-.5 2.4 2.4 0 0 0 .2-.8l.2.2c-.1-2 1-3.7.3-5.4a55.1 55.1 0 0 0 1.1-14.4c-.1-4.9-.6-9.9-.6-15.1.2-10-.3-19.8.3-30 .8-2.4.8-2.6.5-5.2.1.1.2.3.3.1s-.1-1.8-.7-2.1c.1-3.7 0-7.2 0-11 .1.6.6.9.6.2l-.4-.7h.2c-.1-.5-.4-1-.6-.5v-3.6a23.4 23.4 0 0 0-.4-2.9c-.2-1.1-.5-2.3-.7-3.7a22.1 22.1 0 0 1-.2-4.4 66.9 66.9 0 0 0 .4-6.7c0-.6-.4-2.2-.5-3.5s-.3-2.6-.3-3.9a39.1 39.1 0 0 0-.5-7.7v-2.4c0-.8 0-.8-.1-1.1v-1.3a40.7 40.7 0 0 1-.3-5.7v-5.4c0-1.8 0-3.7-.1-5.4a2.8 2.8 0 0 1 .9.8 6.3 6.3 0 0 1 .5 3.2zm-38-6.7c-.2.3-.1 1.2-.8.7s.5-.7.8-.7z"/><path fill="#fff" d="M587.4 28.4c.1 0-.1.3-.2.4s-.3-.5-.1-.8.2.3.3.4zm-.2 5.8c-.3-.1-.5-1.3-.6-2.1zm-1.2 5.4c-.2.5-.4.3-.4-.3s.3.1.4.3zm.7.4a1.3 1.3 0 0 1-.3.9c.2-.1-.2-1.1.3-.9zm-.9 11.6c0 .3.3.9-.1 1.2s-.3-1.4.1-1.2zm.5 5.5a.7.7 0 0 0 0 .5c-.1.3-.3 0-.4-.3zm12 98.6l-.7-.2.2-.2.5.4zm36.4-13.6c-.1-.6.3-.4.4-.5s-.4-.3-.4.5zm-.8-23.7v.2l-.6-.1.6-.1zm62.6-90.2c.1 1.6.5-.9.2 1.1a.9.9 0 0 1-.2-1.1z"/><path fill="#fff" d="M695.8 85.7a15.5 15.5 0 0 1 1.5 3.9 16.2 16.2 0 0 1 .3 4.5c-.1 3.1-.1 6.2.7 9 .2.6-.9-.1-.4 1.4a23 23 0 0 1 1.4 9.9c-.2 3.7-.7 7.5-1.1 10.9l-.2-.4c-.1 1.3.7 2.8.8 4.2s-.3-.4-.4-.1.6 2.5 1.1 2.9-.5.6-.5 1.3l.7.6a5.2 5.2 0 0 1 1 3.6 17.4 17.4 0 0 0 .1 4.4c-.1-.1-.2-.4-.3-.2.4 2.4.6 5 1.2 7.7s.9 5.5 1.2 8.1c-.2-.2-.6-.4-.8-.1s.8 1.9.9 3.3-.2.9 0 1.6a7 7 0 0 1 .5 2.3h-.5c.8 1.1-.1 1.8.8 2.7l-.3.8c.9.4-.1 1.8.5 2.8h.2c.3.9 0 1.5.2 2.4h-.1c.3 2.1-.2 3.3.5 3.3s-.2-2-1-.9c.8 6.9-.6 13.9-1.2 20.7-.3.8-.5 1.3-.7 1.4s-.4 2.5-.3 3.2-.4.3-.6.6.1 1.6-.7 2.7c.1-.6 0-.8-.3-.8a10.1 10.1 0 0 1-1.6 3.8c0-.2.2-.6 0-.6-.4 1.6-1.7 2.1-2.4 3.4v-.6c-1.8 1.3.2 1-1.3 2.2.2-.4 0-.4 0-.5-.8 1.7-3 3.4-4.4 4.6a.1.1 0 0 0 0-.2 8.4 8.4 0 0 1-2.7 1.3 27.8 27.8 0 0 1-3.1.6c-.8-.2.2-.9-1.8-.8.1.7-3.4.3-2.2 1.1a27.9 27.9 0 0 0-5.5-.1c.8-.3-.8-.9.6-1l-1.1-.4c.2-.3 1.1.1.8-.3a26 26 0 0 1-3.4.2c-1.3.4-2.5 1.3-4.7 1.2 1-.2-.5-.9.2-.9a22 22 0 0 1-3.2.9c-.7-.1 0-.6-1.1-.7s-.5.2-.9.2l-1.6-.7c-.7-.4-1.4-.9-1.3-1.3s1.1.5.5-.1a13.3 13.3 0 0 1-2.4-1.4c-.6-.6-2-1.8-1.7-.7s.2-.5.6.4a6 6 0 0 1-2.6-2.6c.4.4.5.2.8.3a12.2 12.2 0 0 1-3.3-5.1c-.3.1.8.6.7.9-.2-1.4-.6-2.7-.9-4a7.1 7.1 0 0 1-.1-3.6c.1.4-.5.2-.4.2s.5-1.2.4-2-.1-1-.1-1.8.1-.2.2.5a30.1 30.1 0 0 1-.3-3.5 19.5 19.5 0 0 1 .2-4.7c-.2 0-.6-1.7-.6-2.3l.4.3c.3-.5.1-2 .5-2.1s-.2.6-.2 1.8.1 2.3 0 1.5-.5-2.5 0-2.1c.1-1.2-.3-2.4.2-3.5s.5 1 .6.1-.2-.5-.2-1.9V178c-.4-.1.2-1.5-.3-.9s0-2.5.7-2.2l.6.3c0-.7-.5-1.2-.7-1.8s.2-.3.3-.2.2-1.7-.5-2.6.1-3.9.6-4.6a9.4 9.4 0 0 1-.4-3.6c.1.3.1.6.3.7s0-1.1-.1-1.8.5-1.7.8-2.6-.7-.8-1-.9-.6-3.3.2-4.7c.1.4.4 1.7.7.7s-.6-2.2-.2-3.9l-.7.4c.5-.8-.4-2.6.3-2.4s.2-2.1-.5-1.9c.6-2.9-.4-7 .9-8.7s0-1.4-.4-1.2.3 1 0 1.2a.5.5 0 0 0-.3-.5c.2-.9.2-1.6.8-.7.4-2-1.2-2-.9-4.6.3.1.4-.1.4-.8l-.5-1.4c.1-1.6.7-.9 1.2-1s-.1-1.9-.4-2.3l.6-1.1c-.5.8-.3-.7-.4-1.1v.4c.2-.2.1-1.2 0-1.7s-.4 1.1-.5 1.7-.2-1.1-.4-1.7.3-1.4.4-2.1-.4-.9-.4-1.1 0-1.3.4-.7-.2.6 0 1.1.6-.5.3-1.5-1 .2-.7-1.3c.1.4.3.5.5.8l.3-1.5h-.6c.1-.2.2-.1.2-.2s-.1-2.2-.7-2.5a17.1 17.1 0 0 1 .4-2.2 4.4 4.4 0 0 0-.2-2.7h.1a5.7 5.7 0 0 0-.3-2.2c.3-1.2 1.7-.4 1.1-1.7s-.8-1.9-1.1-1.4c.3-2.2-.2-4.7.5-6.6-.2-.3-.3-.1-.4-.7.2-2.9-1.2-6.1-.7-8.8.3.9.4 0 .7-.1s.3-1-.4-1.1-.6.1-.6 1a19.1 19.1 0 0 1-.6-3.3 8.7 8.7 0 0 1 .1-2.8c-.2.6-.3.1-.4-.3s.5-.3.6-.8a4.6 4.6 0 0 0-.1-1.6l-.4-.2.4-.7c-.1-.4-.8-.5-.4-1.5a.7.7 0 0 0 .4-.3c-.3-1.1-.9-2.6-.5-3.8l.6-1c-.1-.5-.4-1.4-.6-.5.3-2 .4-3.3.9-3.9-1.2-3.5-1.3-8.5-1.2-12.5h.3c.3-1.1-.5-.6-.3-1.3s.6-.8.9 0c.3-1.5-.5-2-.6-3s.2.8-.2.6.3-2.1-.3-2.4.7-.1.9.1l-.3-.9c.7-1.2 1.2 2.6 2.1 1.4v-.9c.6-.8.7 2.3.9.1s-1.1-1.8-1.4-.9c-.2-2-1.4-.9-1.3-3 .3-.6.1 1.7.6 1.3s-.3-2-.1-2.9c-.2 1-.8.2-.9-.5s.6.7.6-.8-.6-1.7-.8-.4c-.8-.6.2-1.6-.4-2.4s1.2 1.6 1.5-.1c-.5.3-.7-2.1-1.5-1.2.1-.7.6-.7.9-.2s-.9-2.3.1-2.6l-.5-.3c.2-.3.3-.7.6-1.2s-.6-2.8.2-2.7.1-2.2-.5-1.5.3 1.4-.5 2.1 0-1.8-.1-2.5h.3c-.1-.4.1-1.4-.3-1.7s.4.2.5-.1l-.4-.5c-.1-1.7.9-.3.9-2l.2 1.3c-.1-.3.4-.8.4-1.6l-1.1-1.3c-.1-.9.5-.4.2-1.3l.4 1.2c.1.2.8-.7.9-1.9s-.5-2.1-.9-.9c.1-.6.4-1.4.7-.9 0-1.4-.5.1-.6-1.1a20.8 20.8 0 0 1 1.9-3.3 9.3 9.3 0 0 0 .2 1.7 8.3 8.3 0 0 1 .3-.9c.1 1.4.6-.5 1 .4a3.9 3.9 0 0 0 .3-.9l.2-1c-.8.6-1 0-.8-.8s.6-1.9 0-1.9A2.4 2.4 0 0 1 656 9c.6 0 1.1 0 2-1.3s.4-1.2-1.1-.2a2.5 2.5 0 0 0 1.2-1 1.9 1.9 0 0 1 1.5-.8c-.6.4-.2.5.2.6s.6.3-.2.9-1.1.2-1.4.4.3.8 1.7.2 2-.8 1.7-1.2-1.3.5-.9-.2 2.2-.1 2.6-1.2-1.5 0-1.6-.3l1.2-.6v.4c2-.4.4-.8 2.4-1.3l1.1.4c-.3.7-3 .6-2.3 1.4s1.6-.9 2.9-1l-.9.4c.5-.1 1.2.9 2.9-.2s.2-.4.1-.7c2.1-.6 2.7-1 4.1-1.3-.2.7 2.5-.3 1 .6s-3.9.3-4.5 1.1c.9.6-1.7.3-1.9 1.2 1.7-.4 1.8.4 2.2.8a3.4 3.4 0 0 0 1.1-.5c.1-.5-.5-.4-.6-.9a14.6 14.6 0 0 0 4.5-1.5c.7.2.5.7-.2.8l3.5-.4h3.3c-.7-.4-.1-.4.5-.5s1.3-.1.8-.4-2-.6-1.5-1 0 .4.3.5 1.4.6 2.3-.2c-2.1.4-.3 1-.7 1.7 1.4-.5 0 .4 1.4.4l2.5-.5a8.5 8.5 0 0 1 2.9.2l1.7.9.8.4h1.1l1 .5.4.2c.1.1.3.1.3.3a10 10 0 0 0 1 1.7c.1.9-.8.7-.4 1.6s.2-1.2.8.6h-.2a4.7 4.7 0 0 1 .6 2.1c.1.9.1 1.8.6 2.1l-.7-.6a2.1 2.1 0 0 0 .1 1c-.2 0-.5.4-.6-.2-.6 1.1-.1 2.3.2 3.4l.3-.8.8 2.4a14.7 14.7 0 0 1 .7 2.8h-.4l.3 1.2c.1.4-.7.8-.3 1.4a19.2 19.2 0 0 0-1.2-2.9c.1-.4.2-.2.4 0s.4.5.6.2a1.8 1.8 0 0 0-.1-1.4c-.2-.5-.5-1-.8-1a3.1 3.1 0 0 0 .6 1.1c-.5.4-.8-.6-1.4-.9s.2.9.4.9a5.4 5.4 0 0 1-1.3-2.5c.5.8.2-.6.5-.3s-.5-.3-.7-.9a5.1 5.1 0 0 1 0-2.1 2.5 2.5 0 0 0 .2-1.9l-.3-1-.3-.9a2.4 2.4 0 0 1 1 .7 3.1 3.1 0 0 1 .6 1.3 2.5 2.5 0 0 0 .1-1.1c0-.3-.1-.6-.1-1.1l-1-.4a3.1 3.1 0 0 1-1.2-1.1l.3-.3-.2-.2c-.4-.5-.7-.5-.8-.8h-.6l-.4-.2-.8-.3-.9-.4-1.6-.7a9.4 9.4 0 0 0-2.9-.4v-.4c-1.1.8-3.8.6-5.5 1s-5.6.7-7.1.2-4.4 1.2-6.5 1.9l-3.5 1.1-3.2 1.1.5-.8c-.6.7-.6-.1-1.4.3s.3.3 0 .6l-.5.5-.3.5a3.4 3.4 0 0 0-1.9 2 6.4 6.4 0 0 0-.3 2.8h-.6a3.9 3.9 0 0 1 .1.7 6.2 6.2 0 0 1 0 .8 11 11 0 0 1-.2 1.6c-.2 1.1-.6 2.3-.8 3.5a2.2 2.2 0 0 0-.6 1.4 15.9 15.9 0 0 1 .7 4c-.1 1.4-.4 3.7-.6 5.1.9 5.3.3 10.9.9 16.5l-.5.4c1 5.4.1 12.1.6 16.8l-.8-.5c-.3 1.5.2 3.3.8 2.9-.2 1.5.4 3.6-.3 4.6s.4 1.8.5 3.1-.1 1.4-.2 1.9a13.4 13.4 0 0 0 0 1.4 20.8 20.8 0 0 0 .4 3.1v-.7c-.2-.3-.6-.3-.5.4s.3 3.7 1.1 2.6a27.8 27.8 0 0 0 .7 5.1 19.2 19.2 0 0 1 .3 2.8 9.3 9.3 0 0 1-.2 2.5c.3-.3.3.5.5.8s-.2 2.7-.3 4a11.1 11.1 0 0 0 .1 3.4c-.1.4-.5-.7-.5.4s.3 0 .5.8c.5 4.3-.5 8.6-.4 12.5.5 6.9.3 14.1.3 20.7h-.2c.7 2.2-.8 5.2.4 7s-.1 2-.5 1.6c.5 1.8-.5 4.9.2 7.5a1.5 1.5 0 0 0-.1-.6c-.4 2.6.2 4.8-.2 7.6-.1-.3-.1-.8-.3-.9s.8 2.5-.1 3.1.5.4.4.1c-.1 1.5-.1 3-.1 4.6s0 3.2-.1 4.8c-.1 3.2-.3 6.4-.5 9.4s-1.6.1-1.1 3.6c-.2.3.3.2.2.3s-1.1 2-.6 2.9.3.6.7.7c-.4 2.8-1 3.3-.6 5.4l-.3-.2c.8 2.5.4 5.2 1.8 6.8a14 14 0 0 0 1.5 3.9 11.8 11.8 0 0 0 2.4 3.1 12 12 0 0 0 7.2 2.7 39.3 39.3 0 0 0 4.6.1h10.1a17.3 17.3 0 0 0 3.9-.3l1.2-.5 1.6-1.1a31.7 31.7 0 0 0 3.3-3 23 23 0 0 0 4.7-6.9 16 16 0 0 0 1.1-3.7v-2.2l.3-2.6c.4-3.4.9-6.7 1.3-9.9s1-3.2.7-6.5c.1.1.2.3.3.1s-.1-2.3-.8-2.6a44.9 44.9 0 0 0-1-6.8 36 36 0 0 1-.5-4.1c0-.4 0-.7-.1-1.1v-2.8c.1.7.6 1.1.6.2l-.5-.9.2-.2c-.1-.6-.5-1.3-.7-.6l-.6-4.5-.3-2.3c-.1-.8-.2-1.5-.3-2.5a38.9 38.9 0 0 1-.2-5.3v-5a24.6 24.6 0 0 0-.4-4.1c-.3-1.5-.6-3.3-.7-5.1-.2-3.5-.1-6.8 0-10a42.9 42.9 0 0 0-.3-10.1v-1.6c0-.5-.1-1-.1-1.7s-.2-2.6-.2-3.8.1-4.9.2-7.2v-3.3a21.7 21.7 0 0 0-.5-3.2c-.3-1.1-.6-2.3-.8-3.6a15.1 15.1 0 0 1-.3-4.5l.2.4.5 1.2a43.9 43.9 0 0 1 1.6 4.3z"/><path fill="#fff" d="M696.5 26.3c.3-.3.5-1.5.9-.6s-.6.7-.9.6zM684.4 2.8c0 .1-.5-.1-.6-.2s.7-.3 1.1-.2-.4.3-.5.4zm-7.8.2c.1-.3 1.8-.6 2.9-.7zm-7.7 0c-.7-.1-.6-.3.3-.5s-.1.3-.3.5zm-.4.8a2.3 2.3 0 0 1-1.3 0c.1.2 1.4-.6 1.3 0zm-16.3 7.3a7.5 7.5 0 0 0-.5 1 2.4 2.4 0 0 1-.6.9 6.2 6.2 0 0 0 .6-1.4c.2-.4.5-.8.5-.5zm-1.8 8.5a1.2 1.2 0 0 0-.1.6c-.2.4-.3-.1-.3-.4zm1.5 131.9l-.1-.8.3.1-.2.7zm1 58.2c.6.7.1.7.1.8s.4.1-.1-.8zm30 7.8h-.2v-.6l.2.6zm-3.4-136.4c-.1.1.1.5 0 .2s-.1-.3 0-.2zm26.7-6.6c-.3 1.5-.8 0-1.1 1.1s-.1-.8-.2-.6-.8.6-1.4-.2v-.2c-.1-.2-.1.6-.2.5a3 3 0 0 0-.1-.4c.1.5-.1.2-.1.6l-.2-.7v.4c.1 1.3-.4 0-.4.7v-.3c-.1.8-.5.8-.8 1.1l-.2-.7c.1.6.1.7 0 .8s0 .6-.2.3c.1.6-.2-.3-.1.4l-.2-.4c.2.8-.2-.4-.2 0v.2c0 .2-.1-.2-.2 0s-.3-.2-.1.4.1-.3-.2-1-.7.7-1.1.9l-.3-.5c0 .1-.1.2-.1.5l-.2-.3c-.1-.2.1.7 0 .4a2.5 2.5 0 0 0-.1-.6c.1.5 0 .5-.1.6v-.4c.1.6-.2-.1-.2.3V77c-.3-.4.2.8 0 .5V77c.1.7-.1.5-.2.8-.1.1-.3 0-.3.3s-.2-.9-.3-.7-.1.4.2 1.1-.4-.3-.4 0-.3-.9-.3-.9l-.2-.4c-.1-.3.1.1 0-.3s-.1.4-.1.3a5.3 5.3 0 0 1 .1 1.4c0-.3-.3-.8-.3-.9l.2 1.4s-.2-.6-.2-.4a2.9 2.9 0 0 1 .1.5c0-.1-.1.2-.4-.5s0-.2-.1-.4 0 .3-.1.3c-.1-.1-.1.3.1.7s-.1-.4 0-.2 0 .6 0 .6v-.5a2.9 2.9 0 0 1 0 1.1c.1.3-.1-.6-.1-.4s-.1.7-.4.1c-.1 0-.2-.5-.2-.3s0 .1-.1.2-.1-.1 0-.2-.1.8-.4.4a1.9 1.9 0 0 1 .1.7v-.4c-.1-.3-.1.1-.2-.3s.2-.5.2-.1.1.7-.1.1 0 .6-.2.2-.1-.6-.2-.6 0 .2 0 .4v.2c.1.4-.1 0 .1.4s-.1.3-.3-.4l-.2-.6a6.6 6.6 0 0 0 .2.9v-.2c.3.9-.1 0 0 .6s-.2 0-.5-.5 0 .6-.1.5a1 1 0 0 0 0-.3c-.1-.2-.1 0-.1.1l-.4-.7a5.2 5.2 0 0 0 .3 1c-.3-.8 0 .6-.4-.1a1.5 1.5 0 0 0-.1-.6c-.3-.8.1.7-.2.3l.2.7c-.2-.4 0 .5-.2-.3s-.2-.2 0 .5-.3.5-.8-.7-.1 0 0 .4 0-.3.1 0a1.1 1.1 0 0 0 .1.3c-.1-.1-.2-.2-.3-.8s.2 1.2 0 1-.1-.4-.2-.3v.5a3.5 3.5 0 0 1-.4-1.1c0 .1-.1.1 0 .5l-.2-.6c.2.4 0 .3.1.4-.1-.2-.1-.1-.1 0a1.2 1.2 0 0 0 .3.5v.4c0 .2-.2-.3-.2-.3l.1.4s-.1 0-.2-.4.1.2.1 0-.2-.6-.2-.3.3.9.1.7v-.5l-.2-.2v.2c.1.5-.1.2 0 .7l-.2-.3c-.1-.2-.1 0-.1.3s-.1.1 0 .3-.5-1.6-.4-1a3.1 3.1 0 0 0 .2 1.1c-.2-.2-.2.5-.5-.1a1.8 1.8 0 0 1 .1.4c-.2-.1-.3.6-.7-.2a2.7 2.7 0 0 0-.2-.7c.1.4-.2-.4 0 .3a2.6 2.6 0 0 0 .3.7c-.1.2-.2.3-.4 0a1 1 0 0 1 .1.4c-.2-.6-.3-.7-.3-.5v.4l-.2-.4c0 .1.2.8 0 .5v-.4c0 .3.1.9-.1.6l-.2-.5a1.1 1.1 0 0 0 .1.6 2.2 2.2 0 0 1-.5-.8c.1 1.2-.2 1.4-.5 1.3v-.3c-.1-.2.1.5 0 .3a9.2 9.2 0 0 1-.2-.9c-.2-.3 0 .5 0 .7s0-.3.1.2-.2-.3-.1.3a6.8 6.8 0 0 1-.2-.9v.3c-.2-.6-.2-1.2-.4-2-.2-.6 0-.7-.2-.9a5.7 5.7 0 0 0 .3 1.4c-.1.2.3 1.4.2 1.3s.1-.1-.1-.6-.1.3-.2.1a2.5 2.5 0 0 1 .2.9c-.1-.2-.1-.5-.2-.6a2.4 2.4 0 0 0 .2.8c.2.7-.2-.2-.1.4a9.4 9.4 0 0 0-.4-1.5 13.3 13.3 0 0 0 .3 1.4 3.2 3.2 0 0 1-.2-.8c-.1-.3.1 1-.2 0v.5l-.2-.5c-.1 0 0 .7-.2 0s-.1.1.1.6 0-.4.2.3-.1.1-.1.3v-.3c0 .1-.1.1 0 .4-.1.3-.2-.8-.3-.6v-.4c0 .1-.1-.3-.2-.2l.2 1.3c0 .2-.1-.5-.1 0v-.5c0-.1-.2-.7-.3-.6a2.5 2.5 0 0 0 .2 1s-.2-.2-.2-.5.1.4.1.7l-.5-1v-.7h-.1c-.1-.6-.1-.4-.2-1s-.1.1 0 .3a20 20 0 0 1 .4 2.2c-.1.3-.6-2.1-.4-.7s.2.9.2.6.1.9 0 .5-.3-.9-.3-1.4.1.2.1.1-.2-.9-.3-.8-.1.1 0 .6.1-.1.2.4-.3-.5-.1.3.2.4.3.8v-.1c-.2-.2.1.6-.1.5l-.2-.6c-.1-.6.2.2 0-.7s0 .4-.1.2v-.2s-.3-1.2-.3-.5a2.4 2.4 0 0 0 .1.7c-.1.1-.1.5-.2.6s-.2 0-.2-.7.3.3.2-.3.1.1 0-.7-.3-.8-.4-1.3 0 .2 0 .3.1.5.2 1-.2.2-.2.7a2.1 2.1 0 0 1-.1-.8c-.1.2-.3.1-.4 0s-.1.2.1.9a3.1 3.1 0 0 1 .3 1.1c-.1 0-.1-.3-.1-.5s-.2-.7-.2 0a6.8 6.8 0 0 0-.3-1.6c0 .4-.1-.4-.2-.4a2.4 2.4 0 0 1-.2.8c-.2-.6-.3 0-.5.1s-.2-1-.3-1.1.2.7 0 .4c0 .2-.3-.4-.1.6v-.8.2a3.7 3.7 0 0 1-.1-.6c-.2-.5-.1.1-.2.1v.4c-.1.4-.2-.1-.3.1v-.2c-.1-.4-.2-.7-.1-.3v-1.7c.1.2 0 .5.1 1s.2.2.1-.2 0 .1 0 .2a5.2 5.2 0 0 1-.1-1s-.1-.2-.1 0 0-.4.1-.4a3.2 3.2 0 0 0 .1.5c-.1-.5 0-.7.1-.6s.1-.4.2-.3a6.9 6.9 0 0 1 .1 1.2c.1.3.1 0 .2.2a7.9 7.9 0 0 1-.1-1.3v.4c0-.2-.1-.8 0-.7a.8.8 0 0 0 .5.2v.5c-.1-.9.2-.4.2-.8s.3-.5.5.2.4-.7.7-.6v.6c0-.4.1.3.1.2a2.9 2.9 0 0 1-.1-1c.2.4.3-.1.3-.5v.4c-.1-.8.2-.2.4-.1s.2.5.2.5a3.8 3.8 0 0 1 0-1c.1 0 .3.1.4.3s.6-.5.8-1.1v.5c.1-1.1.7-.3.8-.9l.2.8c.2.2.1-.3 0-.8s.1-.4.3.2 0-.4 0-.5.3.2.4 0h-.1a1.6 1.6 0 0 0 .2.5c0-.2.3.1 0-.8s.3-.6.7.1a1.9 1.9 0 0 1-.1-.5c.2-.1.5.4.5-.1s.1.4.2.5-.1-.3-.1-.5.7.3.9.1.8-.5 1.1-.7v.2c-.1-.8.5.6.3-.5s.1 0 .2.4.4.4.4-.3v.1c0 .1.2-.2.5.1a1.3 1.3 0 0 0 0 .3c.2.3-.1-.8.2.1a1.1 1.1 0 0 0-.1-.4c.5.2.7-.5 1-.8s.5 1.5.5.8-.1-.3 0-.2.4 1 .4.5a3.5 3.5 0 0 1-.2-.7c.3.3.5.8.5.3v.3c-.1-.9.2-.5 0-1.5s1.4-1.2 2.2-1.6 1.6-.7 2.6-.5.4.7.6.3v.3c-.2-.6.1-.1 0-.7s.6-.2.9-.3.1.6.1.5v-.2a1.3 1.3 0 0 0-.1-.6c.7-.8 1.9.3 2.8 0s.5-.1.8-.2 1.6 1.4 2.4.7a8.2 8.2 0 0 1-.2 2.1zM679.6 81a3.7 3.7 0 0 1 .2.9z"/><path fill="#fff" d="M682.1 84v.3a1.3 1.3 0 0 0 0-.3zm.5.1a.8.8 0 0 1-.1.6zm.7 1.1c.1.2.1.4.1.4zm-.1-.7l.2.3c-.1-.2-.1.2-.2-.3zm1.2.6s0-.3.1 0 0 .4-.1 0zm.4-.5a.8.8 0 0 1 .1.4zm7.9-3.5v.1l-.1-.3.1.2zm3.5-1.2c0-.2.1.3.1.3l-.1-.3zm1.5-1.9h-.1l-.1-.6.2.6zm26.5-75.3c-.1-.6-.5.3-.2-.4s.4.2.2.4zm1.1 164.5c-1.5-2 .1-4.6-.9-6.7-.1-.3.8.1.6-.5a6.4 6.4 0 0 1-.6-3.8 16.4 16.4 0 0 1 1.2-4.1l.2.2c.2-.5-.6-1.1-.4-1.6s.2.2.4.1-.2-1-.6-1.2.6-.2.8-.5l-.5-.3a1.3 1.3 0 0 1-.6-1.4 2.1 2.1 0 0 0-.3-1.7c.1 0 .2.1.4 0-1-1.7-1.3-3.9-1.9-5.8a1 1 0 0 0 .7-.1c-.6 0-.8-.6-1-1.1s-.6-.9-.4-1.5h.1c-.7-.4.3-.7-.5-1.1l.4-.3c-.8-.2.4-.7 0-1.1h-.2c-.2-.4.2-.6.1-.9h.1c-.2-.8.2-1.2-.4-1.2s.2.8 1 .3a32.3 32.3 0 0 1-.5-7.9c.3-.3.3-.5.6-.6s-.1-1-.4-1.2.3-.2.4-.3-.7-.5-.4-1a.5.5 0 0 0 .6.2c-.5-.4-.4-1-.6-1.6s.2.2.4.2.1-1.1-.2-1.6l.4.2c.4-.8-.8-.2-.5-.9s.3.1.4.1-.5-1.7-.7-2.4h.2a8.3 8.3 0 0 0-.2-2.2c.2-.3.9.1.8-.7s-.3-1.3-1.1-.8.4-1.7.1-2.1.9-.3 1 .2l.4-.4c.3.1-.1.4.3.3s-.3-1.1-.2-1.3-1.3-1-1.4-1.8.8-.2.9 0l-1.4-1.1c0-.3.6-.1.4-.4s-.3-.1-.5-.3-.2-1.1.5-1.2.2.4.4.1-.3-.5-.3-1h.1c.1-.3-.3-1-.7-.6s.4-.1.2.2a1.5 1.5 0 0 1-.6-1.3c.1.2.3.1.5.2a5.5 5.5 0 0 1-1-2.1c-.3 0 .6.3.4.4s-.7-2 0-2.8-.5.1-.4.1.5-.4.4-.7-.1-.4-.2-.7.1-.1.2.2a4.6 4.6 0 0 1-.3-3.1c-.2 0-.7-.6-.7-.8h.5c.3-.2 0-.8.4-.8s.5 1.9 0 1.2-.7-.9-.1-.8-.5-.9-.1-1.3.6.4.6 0-.2-.2-.4-.7l-.2-.3c-.4 0 .1-.6-.4-.3s-.2-.9.5-.9h.6c0-.3-.6-.5-.9-.7h.3c-.9 0 .1-.7-.6-1s0-1.5.6-1.8-.6-.9-.4-1.4.1.2.3.3 0-.4-.1-.7.5-.6.8-1-.7-.3-1-.3-.6-1.3.2-1.8.4.7.7.3-.6-.8-.2-1.5l-.7.2c.5-.3-.4-1 .3-.9s.2-.8-.5-.7-.4-2.6.9-3.3 0-.5-.4-.5.3.4 0 .5-.2-.2-.3-.2.2-.6.8-.3-1.2-.8-.9-1.7.4 0 .4-.3l-.5-.5c.1-.6.7-.4 1.2-.4s-.1-.7-.4-.9l.6-.4c-.5.3-.3-.3-.4-.4v.2c.2-.1.1-.4 0-.6s-.4.4-.5.7-.2-.4-.4-.7.3-.5.4-.8-.4-.3-.4-.4 0-.5.4-.3-.2.2 0 .4.6-.2.3-.6-1 .1-.7-.5l.5.3.3-.6h-.2c-.5-.2-.1-.8-.7-1s.3-.6.4-.9a.8.8 0 0 0-.2-1h.1a1 1 0 0 0-.3-.8c.3-.4 1.7-.2 1.1-.6s-.8-.7-1.1-.5-.4-1.7.3-2.5-.3 0-.4-.3-.5-2.5.3-3.5.4 0 .7 0 .4-.3-.3-.4-.6 0-.8.3a2.8 2.8 0 0 1 .2-2.2c-.2.2-.3 0-.4-.1s.7-.5.5-.9h-.4l.4-.3c-.1-.2-.8-.2-.4-.6h.4c-.3-.4-.9-1-.5-1.4l.6-.4c-.1-.2-.4-.5-.6-.2s.4-1.3.9-1.5c-1.2-1.3-1.3-3.2-1.2-4.8h.3c.3-.4-.5-.2-.3-.5s.6-.3.9 0-.5-.8-.6-1.1.2.3-.2.2.3-.8-.3-.9a1.2 1.2 0 0 1 .9 0l-.3-.4c.7-.4 1.2 1 2.1.5v-.3c.6-.3.7.9.9 0s-1.1-.7-1.4-.3-1.4-.3-1.3-1.2.1.6.6.5-.3-.8-.1-1.1-.8.1-.9-.2.6.3.6-.3-.6-.6-.8-.2.2-.6-.4-.9 1.2.6 1.5 0-.7-.8-1.5-.5a.6.6 0 0 1 .9-.1c.3-.4-.9-.9.1-1h-.5l.6-.5c0-.3-.7-1 .1-1s0-.8-.6-.5.4.5-.3.8-.1-.6-.3-.9h.3c-.1-.2-.1-.5-.4-.6a.3.3 0 0 0 .5-.1l-.5-.2c-.2-.6.8-.1.7-.8l.4.5c-.1-.1.4-.3.2-.6l-1.3-.4c-.2-.3.5-.2 0-.5l.5.4c.1.1.7-.3.7-.8s-.8-.8-1-.3.3-.6.6-.4-.5.1-.7-.4.7-.8 1.1-1.1l.7.5v-.3c.6.4.4-.2 1 0s-.1-.5-.3-.7-1.3-.7-2.2-.5 2.1-.5.8-1.4-.9-.3-.6.3-.9-.4-.5-1 .9-.5 1.4.2-.2.4-.1.5.9 0 .9-.5-.1-.8-.6-.7.1.5-.5.3.6-.8-.3-1-.5.5-.8.5l-.2-.5h.3c.2-.8-.6-.2-.5-1l.7-.4c.6.2-.3 1.1.7 1s-.4-.7-.2-1.1l.2.3c0-.2 1.3-.4.5-1.1s-.3-.1-.7-.1-.5-1-.5-1.5.1-.9.8-.3a1.1 1.1 0 0 0 .3 1.7c.8-.3-.1.6.7.8s.8-.6 1.3-.7-.2-.3-.3-.5-.5.2-1 .2a1.9 1.9 0 0 0-.6-1.8c.2-.2.7-.2.8.1a7.4 7.4 0 0 1 .1-2.5c-.8.5-.2-.9-.9-.5s-.7.8-1.1.6.3 0 .5-.1.7-.5 0-.9 1 .1 1.6.3.4 0 .4-.5a6.1 6.1 0 0 1-.8-1.8c.6-.8 0-2 0-2.6s1-.1 1.1-.5-.8.3-.4-.3h.1c-.2-.2.5-1.2-.5-1.4l.8.2c.1-.1-.1-.2-.2-.3s.5-.2.6.1-.1-.9-.1-1.3l-.5.3c-.4-.8.1-1.3-.1-2.1h.4l-.3-.4c.4.1.7-.3.3-.5l1.2.6c-.3.3-.5-.4-1-.2s-.3.9.2 1 0-.3-.2-.5.6.3 1 .5.2-.3 0-.4a1.2 1.2 0 0 1 .4 1c-.2-.3-.4.2-.6.1s.7.5.6 1 .4 1.1.2 1.7a2.7 2.7 0 0 1-1.2-1c-.3.4 0 .5-.3.9s1 .3 1.3.9h-.4c.2.5.8.5.7 1.1a23.3 23.3 0 0 0-.3 3h-.4c.9.5.3 1.5.7 2.1s.4 2.2-.3 2.8a20.5 20.5 0 0 1 .5 5.3l-.6-.3c.4.3-.3.2-.3.6s.6.5 1 .7 0 1.9.5 2.7h-.5c.8.8.1 1.7 0 2.6s-.5.3-.5.6.6.8 1 1.5a5.6 5.6 0 0 1-.4 2c.9 2.1.3 4.1.9 6.3l-.5.2c1 2.1.1 4.6.6 6.4l-.8-.2c-.3.6.2 1.3.8 1.1s.4 1.4-.3 1.7.4.7.5 1.2a5.1 5.1 0 0 0-.1 2.6v-.3c-.2-.1-.5-.1-.6.1s-.2 1.5.8 1.1c-.6 1.1.5 2.7-.3 3.8s.3.2.5.3-.5 2.1-.1 2.9-.5-.3-.5.2.3 0 .5.3-.5 3.3-.4 4.8.3 5.4.3 7.9h-.2c.7.8-.8 2 .4 2.6s-.1.8-.5.6-.5 1.9.2 2.8 0-.1-.1-.2.2 1.8-.2 2.9-.1-.3-.3-.3.8.9-.1 1.2.5.2.4 0c-.4 2.3.2 4.7.4 7s-1.6.1-.9 1.4.4.1.2.1-1.1.8-.6 1.2.3.2.7.2-.9 1.2-.5 2.1h-.3c.9 1 .4 2.1 1.4 2.9.2 5.3.7 10.3.8 15.4s.3 10-.3 15.2a2.3 2.3 0 0 0-.5 2.6c-.1-.1-.2-.1-.3 0s.1.9.7 1.1a20.7 20.7 0 0 0 .4 5c-.1-.3-.7-.3-.6 0l.5.3h-.2c.1.2.5.4.7.1a25.9 25.9 0 0 1 .7 3.5c.1.6.2 1.3.2 1.9v2.1c0 3-.5 5.4-.5 7.8a5.5 5.5 0 0 0-.2 1.8c0 .6.1 1.4.2 2-.9 3.7-1.6 7-1 10.8a3.1 3.1 0 0 1-1.7-2.1zm-1-163.8c-.3.1-.5.6-.9.2s.6-.2.9-.2z"/><path fill="#fff" d="M720.9 14.9c.1 0-.1.2-.2.2s-.3-.3-.1-.4.2.1.3.2zm-.2 2.9c-.3 0-.5-.7-.6-1zm-1.2 2.7c-.2.2-.4.2-.4-.1zm.7.2c0 .2-.2.3-.3.4s-.2-.4.3-.4zm-.9 6c0 .1.3.5-.1.6s-.3-.7.1-.6zm.5 2.7c0 .1-.1.1 0 .2s-.3 0-.4-.1zm1.1 50.1l-.1-.3.3.1-.2.2zm0 22c.2.3-.3.2-.3.3s.4 0 .3-.3zm1.5 11.8v-.1l.6.1h-.6zM768.7 6.4c-.3-.7-.4.5-.3-.4s.4.1.3.4zm1 182.7a5.4 5.4 0 0 1-.5-1.8 18.3 18.3 0 0 1 0-1.9 7.4 7.4 0 0 0-.5-3.8c-.1-.3.8 0 .6-.6-1.4-2.2-1.4-5.9-.9-8.8h.3c.1-.6-.8-1.1-.8-1.7s.2.1.4 0-.4-1-.7-1.2.5-.3.7-.6l-.6-.3c-1.4-.8-.2-2.2-.9-3.4s.2.2.3.1c-.8-2-.7-4.5-1.1-6.7a.9.9 0 0 0 .8 0c-.6-.1-.8-.8-.9-1.3s-.6-1-.3-1.7h.1c-.6-.5.3-.8-.5-1.2l.4-.4c-.8-.2.4-.8-.1-1.2h-.2c-.2-.4.2-.6 0-1h.1c-.3-.9.1-1.4-.5-1.3s.3.8 1 .3a34.3 34.3 0 0 1-1.2-8.7c.2-.3.3-.6.5-.6s-.2-1.1-.5-1.3.3-.2.3-.4-.7-.6-.4-1.2a.5.5 0 0 0 .6.2c-.5-.5-.4-1.2-.6-1.7s.2.2.4.2.1-1.2-.2-1.7l.4.2c.4-.9-.8-.3-.5-1s.3.1.4.2-.5-1.9-.7-2.6h.2a10.3 10.3 0 0 0-.2-2.5c.2-.3.9.1.8-.7s-.3-1.4-1.1-.9a5.1 5.1 0 0 0 .1-2.3c.3.3.9-.3 1 .2l.4-.5c.3.1-.1.5.3.3s-.3-1.2-.2-1.4-1.3-1.1-1.4-2 .8-.2.9 0l-1.4-1.3c0-.3.6-.1.4-.5s-.3-.2-.5-.3-.2-1.2.5-1.4.2.5.4.2-.3-.6-.3-1.1h.1c.1-.4-.3-1.1-.7-.7s.4-.1.2.3a1.7 1.7 0 0 1-.6-1.4c.1.2.3.2.5.2a6.4 6.4 0 0 1-1-2.4c-.3 0 .6.3.4.4s-.7-2.2 0-3.1-.5.1-.4.1.5-.5.4-.8-.1-.4-.2-.8.1-.1.2.2a5.6 5.6 0 0 1-.3-3.5c-.2 0-.7-.7-.7-.9h.5c.3-.2 0-.8.4-.9s.5 2.1 0 1.4-.7-1-.1-.9-.5-1-.1-1.5.6.4.6 0-.2-.2-.4-.8l-.2-.4c-.4 0 .1-.6-.4-.4s-.2-1.1.5-1h.6c0-.3-.6-.5-.9-.8h.3c-.9-.1.1-.7-.6-1.1s0-1.7.6-2-.6-1-.4-1.5.1.3.3.3 0-.5-.1-.8.5-.7.8-1.1-.7-.3-1-.4-.6-1.4.2-2 .4.7.7.3-.6-.9-.2-1.7l-.7.2c.5-.3-.4-1.1.3-1s.2-.9-.5-.8-.4-2.9.9-3.7 0-.6-.4-.5.3.4 0 .5-.2-.2-.3-.2.2-.7.8-.3-1.2-.9-.9-1.9.4 0 .4-.3l-.5-.6c.1-.7.7-.4 1.2-.4s-.1-.8-.4-1l.6-.4c-.5.3-.3-.3-.4-.5v.2c.2-.1.1-.5 0-.7s-.4.5-.5.7-.2-.5-.4-.7.3-.6.4-.9-.4-.4-.4-.5 0-.5.4-.3-.2.3 0 .5.6-.2.3-.7-1 .1-.7-.6l.5.3.3-.6h-.2c-.5-.2-.1-.9-.7-1.1s.3-.7.4-1a.9.9 0 0 0-.2-1.1h.1a1.2 1.2 0 0 0-.3-.9c.3-.5 1.7-.2 1.1-.7s-.8-.8-1.1-.6-.4-1.9.2-2.8-.3 0-.4-.3-.6-2.8.2-3.9.4 0 .7 0 .4-.4-.3-.5-.6 0-.7.4a3.4 3.4 0 0 1 .1-2.5c-.2.2-.3.1-.4-.1s.7-.6.5-1h-.3l.4-.3c-.1-.2-.8-.2-.5-.6h.4c-.3-.5-.9-1.1-.5-1.6l.6-.4c-.1-.2-.4-.6-.6-.2s.4-1.4.9-1.7c-1.2-1.5-1.1-3.8-.8-5.6h.3c.3-.5-.5-.3-.2-.6s.6-.3.9.1-.4-1-.4-1.4.2.4-.3.2.4-.9-.1-1.1.7.1.9.2l-.2-.5c.8-.4 1 1.4 1.9 1v-.4c.7-.2.5 1.1.9.2s-1-1-1.3-.6-1.3-.7-1.1-1.6-.1.8.4.7-.1-.9.2-1.3-.8-.1-.8-.4.5.4.7-.2l-.4-.5h-.4c-.3-.3-.3-.3-.2-.4s.2-.2-.1-.3 1.2.6 1.5.2-.6-.7-1.4-.5a.8.8 0 0 1 .9 0c.3-.3-.9-.7.1-.8h-.5l.6-.5c0-.3-.8-1 0-1s-.1-.9-.6-.6.4.5-.3.9-.1-.7-.4-1h.3c-.1-.2-.1-.6-.4-.7a.3.3 0 0 0 .5-.1l-.5-.2c-.3-.8.8-.2.7-1l.4.6c-.1-.1.3-.4.2-.8l-1.3-.7c-.1-.6.5-.2.1-.8l.5.7c.1.1.7-.4.8-1.1s-.5-1.3-.9-.6.5-1.1.7-.5 0-.6-.1-.6-.3.1-.2-.6l1.1-.8.6-.3h.3l.2.3a1.9 1.9 0 0 1 .1.5l.2-.3c.2.6.5.1.8.7s.2-.4.1-.6a1.4 1.4 0 0 1-1-.6 2 2 0 0 0-.9-.6h1.1c.2 0 .2-.2-.3-.3s-.9-.1-.6 0-.9 0-.5-.5.9-.5 1.4.1-.2.4-.1.4.9.1.9-.5-.2-.8-.6-.7.1.5-.4.3.5-.9-.4-1.1-.4.6-.7.7l-.3-.5h.3c.1-.5-.1-.6-.3-.6s-.4-.1-.4-.7l.7-.5a.3.3 0 0 1 .2.3 4.6 4.6 0 0 1 0 .5c0 .3 0 .6.5.5a2 2 0 0 0-.2-.8.8.8 0 0 1 0-.7l.2.4c0-.2 1.3-.4.5-1.2s-.3-.1-.7-.1-.4-1.2-.5-1.8.1-1 .8-.4a1.4 1.4 0 0 0 .2 1.9c.8-.3-.1.7.7.9s.8-.7 1.3-.8-.2-.4-.3-.5-.5.2-1 .2a2.3 2.3 0 0 0-.6-2c.3-.3.7-.2.8.2a9.1 9.1 0 0 1 .2-2.8c-.8.5-.2-1-.8-.6s-.8.9-1.1.6.3 0 .5-.1.7-.6 0-1 1 .2 1.6.4.4 0 .5-.6a7.4 7.4 0 0 1-.7-2.1c.6-.8.1-2.1 0-2.9s1-.1 1.1-.6-.8.4-.4-.4h.1c-.2-.2.4-1.4-.6-1.6l.8.2c.1-.1-.1-.3-.2-.4s.5-.2.6 0-.1-1-.2-1.5l-.4.4c-.4-.8 0-1.4-.3-2.2h.4l-.3-.5c.4.1.6-.4.2-.6l1.5 1.5c-.2.4-.6-.3-1 0s-.1 1 .3 1.1-.1-.3-.3-.5.6.3 1.1.5.1-.4-.1-.4a1.5 1.5 0 0 1 .5 1.1c-.3-.3-.4.2-.6.1s.7.5.6 1.1.4 1.2.3 1.9a2.9 2.9 0 0 1-1.2-1.1c-.3.5 0 .5-.2 1s1 .4 1.3 1h-.4c.2.5.8.6.7 1.3s-.2 2.4-.3 3.3h-.4c.9.5.3 1.7.6 2.4s.3 2.5-.4 3.1l.4 2.9a16.1 16.1 0 0 1 .3 3l-.6-.4c.5.4-.3.3-.2.7s.6.6.9 1.1l-.2.5c-.2.6-.4 1.2-.7 1.7l-.4.8a.4.4 0 0 0 .1.4l-.3-.2c.6.3-.2.9-.3 1.8s-.6.3-.5.6.6.8 1.1 1.5a6.7 6.7 0 0 1-.3 2.4 5.3 5.3 0 0 1 .3 2.1 7.5 7.5 0 0 1-.1 1.1v.8a10.6 10.6 0 0 0-.3 3.3h-.5c.7 2.3-.4 4.9.1 6.8l-.8-.2c-.3.6.2 1.4.8 1.2s.4 1.5-.3 1.9.4.8.5 1.3a6 6 0 0 0 0 2.9v-.3c-.2-.1-.5-.1-.6.2s-.2 1.6.8 1.2c-.5 1.3.5 3-.2 4.2s.3.2.5.3-.5 2.4 0 3.2-.5-.3-.5.2.3 0 .5.3-.5 3.7-.4 5.3.3 6 .3 8.8h-.2c.7.9-.8 2.2.4 2.9s-.1.8-.5.7-.5 2.1.2 3.2 0-.2-.1-.3.2 2.1-.2 3.2-.1-.3-.3-.4.8 1.1-.1 1.3.5.2.4 0c-.4 2.5.2 5.2.4 7.8s-1.6.1-.9 1.6.4.1.2.1-1.1.9-.6 1.3.3.3.7.3-.9 1.4-.5 2.3h-.3c.9 1.1.4 2.3 1.4 3.2.2 5.9.7 11.5.8 17.2 0 1.4-.1 2.8 0 4.2v4.1c.1 2.7.2 5.4.2 8.3a2.7 2.7 0 0 0-.2 2.9c-.1 0-.2-.1-.3 0s.1 1 .8 1.1c.1 2.1.4 4.1.5 6.3-.1-.4-.6-.5-.6-.1l.4.4h-.2c.1.3.5.6.6.3a25.5 25.5 0 0 1 .3 4.3v2c0 .6 0 1.2-.1 1.8a39 39 0 0 0 .6 7.8 19 19 0 0 0 .8 4.5l-.5 6.4c-.2 2.1-.3 4.3-.6 6.7a4 4 0 0 1-.8-.7 4.1 4.1 0 0 1-.9-2.1zM769 7.2c-.3.2-.4.7-.9.4s.6-.4.9-.4z"/><path fill="#fff" d="M766.1 20.1c.1 0-.1.2-.2.2s-.3-.3-.1-.4.2.1.3.2zm-.3 3.2c-.3-.1-.5-.8-.5-1.2zm-1.3 3.1c-.3.3-.4.2-.4-.2zm.7.2a.6.6 0 0 1-.3.5c.2 0-.2-.6.3-.5zm-.7 4.7s.2.2-.1 0-.3-.2.1 0zm-1.4 4c0 .1-.1.2 0 .4s-.3-.1-.3-.3zm-.2 56.2l-.1-.4.3.1-.2.3zm0 24.4c.2.3-.3.2-.3.3s.4.1.3-.3zm1.5 13.2v-.1h.6l-.6.1zm-52.7-78c-.3.1.2.5-.2.2s0-.4.2-.2zm66.4 29a1.4 1.4 0 0 1-1.6 0c-.4-.3-.9-.6-1.5-.3s.3-.8 0-.7-2.5-.3-3.1-1.5v-.2c-.1-.2-.7.4-.8.2s.2-.2.2-.4-.4 0-.7.3.2-.5.2-.8l-.4.4c-.5.5-.6.3-.8.1s-.2-.5-.6-.4l.2-.3c-1.1.1-1.8-.5-2.7-.8a2.2 2.2 0 0 0 .4-.6.9.9 0 0 1-.9.4c.2-.6-.6.2-.7-.2h.1c-.5.4-.1-.5-.6.1V75c-.5.7 0-.5-.4-.2v.2c-.2.1-.1-.3-.3-.3-.4 0-.4-.5-.7.1s.4 0 .6-.8a6.6 6.6 0 0 1-3.3-1.2 1.5 1.5 0 0 1 .1-.6c-.2.1-.4-.1-.7.1s.1-.3.1-.4-.5.5-.6.1a1 1 0 0 0 .4-.5c-.4.3-.6.1-.9.2l.3-.3c-.5.4-.3-.3-.7-.1l.3-.3c-.1-.6-.5.6-.6.2l.3-.3c-.6.4-.9 0-1.2.1h.1c-.3-.1-.5-.4-.9-.4s.5-.8.1-.8-.6 0-.9.8-.4-.7-.7-.6.3-.9.6-.8v-.5c.2-.3.1.2.2-.2s-.6 0-.6-.1-1 .9-1.4.8.3-.8.5-.8l-1.1 1c-.1 0 .3-.5 0-.4l-.3.4c0-.1-.5-.1-.2-.7s.2 0 .3-.3-.3.1-.5 0c-.1-.2-.5.1-.6.5s.2-.4.2-.1a.6.6 0 0 1-.8.2l.3-.4a2.4 2.4 0 0 1-1.3.4c-.2.3.4-.5.4-.3s-1.1.1-1-.6-.2.4-.2.4.1-.6-.1-.5-.2 0-.3 0 0-.1.2-.1-1.1.2-1.3-.4-.5.5-.6.5l.2-.4c0-.3-.3-.1-.1-.5s.9-.1.5.2-.7.5-.3 0-.6.3-.5-.1.4-.5.3-.5-.2.2-.4.2h-.3c-.2.4-.2-.2-.3.3s-.4.1-.1-.6l.3-.5c-.1 0-.4.5-.6.7v-.3c-.4.8-.2-.2-.6.4s-.6-.3-.5-.8-.5.4-.7.2l.2-.2c0-.3-.2-.1-.3 0s-.1-.6-.1-.9-.4.7-.5.9-.7.4-.6-.5.4-.3.3-.6-.5.5-.7 0l-.2.7c0-.5-.5.3-.3-.4s-.2-.3-.4.4-1.2 0-1.1-1.3-.2-.1-.3.3.2-.2.2 0-.1.2-.2.3-.2-.3.1-.8-.7 1.1-1 .7.1-.4 0-.4l-.4.4c-.2-.2 0-.7.2-1.2s-.3 0-.5.3v-.6c0 .5-.2.3-.3.4h.1c0-.2-.2-.1-.3-.1a.7.7 0 0 0 .1.6l-.4.3c.1-.5-.1-.4-.2-.5s-.2.4-.3.4-.2-.1 0-.4 0 .3.2.1.1-.6-.2-.4-.2.9-.4.6l.2-.5-.2-.3v.4a1.4 1.4 0 0 1 0-.2c-.2.4-.4.1-.5.6s-.2-.4-.3-.4c-.1-.3-.3-.2-.5.1-.1 0-.3 0-.4.2s.3-1.7-.1-1.2-.5.7-.4 1-.8.3-1-.5-.1.3-.2.4-1.2.3-1.5-.6.1-.4.1-.7-.1-.4-.3.2-.1.6 0 .8a.7.7 0 0 1-1-.4.4.4 0 0 1-.1.4c.2-.6 0-.8-.3-.6-.1.1-.3.8-.4.4a2 2 0 0 0 0-.4c-.3.3-.7.7-.8.3v-.6c-.1 0-.3.3-.2.5s-.5-.5-.5-1.1a2 2 0 0 1-2.6.3v-.3c-.1-.3-.3.4-.4.2s.1-.6.4-.9-.6.3-.8.4.2-.2 0 .3-.2-.4-.5.1a2.4 2.4 0 0 1 .4-.8l-.3.2c.1-.7 1-.9 1.1-1.7h-.2c.1-.6.7-.5.4-.8a2.2 2.2 0 0 0-.7 1.2c-.4 0-.8 1.2-1.1 1s.3.1.5-.4-.4.1-.5-.1-.3.7-.5.8.4-.4.1-.6-.5.4-.4.7-.1-.3-.5.1.8-1 .7-1.3-.6.5-.9 1.2a1.3 1.3 0 0 1 .4-.8c0-.4-.8.7-.4-.3l-.3.4c0-.2 0-.3.1-.6s-.7.4-.4-.3-.3-.1-.5.4.4-.3.1.5-.3-.1-.5.1v-.3c-.1.1-.2-.1-.4.2a.6.6 0 0 0 .2-.4l-.3.4c-.4.1.3-.8 0-.8l.3-.2c-.1 0 0-.4-.1-.3l-.8 1c-.2.1.2-.5-.2-.1l.4-.4c.1-.1.2-.7 0-.8s-.6.5-.6.8-.1-.3.1-.6-.2.4-.5.6 0-.8.1-1.2l.5-.5h.8c.4-.4.1-.4.5-.9s-.2 0-.4.1-.9 1-1.2 1.9.8-2-.2-1-.5.8-.2.6-.5.7-.6.3.2-.9.7-1.2 0 .3.1.2.4-.8.2-.9-.4-.1-.5.4.2 0-.1.5 0-.7-.5.1 0 .5-.2.8h-.3l.2-.3c-.2-.4-.4.5-.6.3l.2-.7c.3-.5.3.4.7-.4s-.4.3-.5 0h.2c-.1-.1.4-1.2-.2-.7s-.2.3-.3.6-.6.2-.8.2-.3-.2.2-.8.4.6.8 0 .2.2.6-.5.1-.8.3-1.3l-.3.2a9.1 9.1 0 0 0-.4.9c-.2-.2-.6-.1-.9.2s.2-.7.4-.7a1.4 1.4 0 0 1-1-.5c-.1.8-.4 0-.5.7a1.4 1.4 0 0 1-.2 1.1c-.1-.1.1-.3.2-.5s.1-.7-.3-.1.4-.9.7-1.4.2-.4 0-.5l-1 .4c-.1-.7-.8-.3-1-.3s.3-1 .1-1.2-.1.8-.3.4h.1c-.1.1-.4-.6-.7.3l.3-.7c0-.1-.1.1-.2.1s.1-.5.2-.6-.4 0-.6 0v.5c-.4.3-.5-.2-.8-.1v-.4l-.2.2c.1-.4-.1-.7-.2-.4l.6-1c.1.3-.2.5-.2 1s.3.3.5-.1-.1 0-.2.2.2-.6.4-1-.1-.2-.2 0 .3-.3.5-.3 0 .4-.1.6.4-.6.6-.4.6-.3.8 0a3.5 3.5 0 0 1-.8 1c.1.3.2 0 .3.4s.4-1 .8-1.1V52c.3-.1.5-.7.7-.5a6.7 6.7 0 0 0 1.2.7v.4c.5-.7.8 0 1.2-.3s1.1.1 1 .8a4.2 4.2 0 0 1 2.4.6l-.4.5c.3-.3-.1.3.1.3s.5-.5.7-.7.8.3 1.3.1l-.2.4c.6-.5.7.3 1 .6s-.1.5 0 .6.6-.4 1.1-.6a1.4 1.4 0 0 1 .6.8c1.2-.4 1.8.6 2.7.4v.5c1.1-.6 1.7.6 2.5.3l-.3.8c.1.3.5-.1.6-.6s.6-.2.6.4.4-.3.6-.4.6.4 1 .3h-.1c-.1.2-.2.5-.1.6s.6.3.6-.6c.4.7 1.2-.2 1.5.6s.1-.3.2-.5.8.7 1.2.3-.2.4 0 .5.1-.3.2-.5 1.4.8 2.1.8a4.6 4.6 0 0 1 1.9.2l1.7.5v.2c.6-.6.6 1 1.3 0s.3.2.1.5.7.7 1.3.3h-.1c.3.6.9.1 1.2.7l-.3.3c0 .4.7-.6.5.3s.2-.4.2-.4 2.1.6 3.3.9-.7 1.4.2 1.1.2-.3.1-.1-.2 1.1.2.8.3-.2.4-.5.1 1.1.6.9l-.2.2c.8-.5 1 .1 1.8-.6 2.1 1 4.3 1.7 6.3 2.7a27.7 27.7 0 0 0 2.8 1.7 14.4 14.4 0 0 1 2.8 1.8c.1 1 .1 1 .8 1l-.2.2c.3-.6.4.2.8-.4s1.5.8 2.3 1.3-.5.4-.3.5l.4-.3v.2a.6.6 0 0 0 .4-.5 5.3 5.3 0 0 1 1.6.9l.7.7h.2v.2a3.2 3.2 0 0 0 1.9 1.3c.3.4 1.1.4 1.6.4a16.1 16.1 0 0 0 2.1 1.9 8.8 8.8 0 0 0 2.6 1.3s-1.5 1.3-2.4 1.3zm-66-29c.1.3.3.5.1.9s-.2-.6-.1-.9z"/><path fill="#fff" d="M716.1 55.6v.2c0 .1-.2.2-.2.1zm1 .6a.7.7 0 0 1-.6.3zm.5 1.6c0 .3-.1.4-.2.3zm.4-.6c.1 0 .1.2 0 .4s-.2 0 0-.4zm1.9 1.9c.1 0 .3-.2.2.2s-.5.2-.2-.2zm1.2.1h.1a.4.4 0 0 1-.2.3zm21.8 5.8l-.1.1.1-.3v.2zm8.3 3.9c.2-.1-.1.3-.1.3s.3-.2.1-.3zm5.3 1.5l-.1-.1.3-.5-.2.6z"/></svg>
