<?xml version="1.0" encoding="utf-8"?>
<!-- Generator: Adobe Illustrator 21.1.0, SVG Export Plug-In . SVG Version: 6.00 Build 0)  -->
<svg version="1.1" id="Layer_1" xmlns="http://www.w3.org/2000/svg" xmlns:xlink="http://www.w3.org/1999/xlink" x="0px" y="0px"
	 viewBox="0 0 130 148.2" style="enable-background:new 0 0 130 148.2;" xml:space="preserve">
<style type="text/css">
	.st0{fill:#26374C;}
</style>
<title>scribbles</title>
<path class="st0" d="M108.3,128.3c-0.5-0.1-1,0.1-1.4,0.4c-0.3,0.3-0.6,0.8-0.8,1.2l-0.3,0.6c-0.1,0.2-0.3,0.2-0.5,0.1
	c-0.4-0.1-0.8-0.4-1.1-0.8c-0.6-0.7-1.1-1.5-1.6-2.3l-0.2-0.3c-0.1-0.1-0.2,0-0.3,0.1c0,0,0,0.1,0,0.1l-0.2,0.7l-0.4,1.4
	c-0.2,0.9-0.5,1.7-0.9,2.5c-0.4,0.8-0.9,1.6-1.6,2.1c-0.8,0.5-1.7,0.7-2.6,0.5l-2.6-0.5c-1.7-0.5-3.6-0.5-5.3-0.8
	c-1.7-0.3-3.4-0.6-5-1.1c-1.2-0.3,0.4-0.3-2.2-1c-1.3-0.3-2.6-0.7-3.8-1.2l-1.9-1.1l-0.9-0.7c-0.1-0.1-0.3-0.3-0.3-0.5
	c0-0.2,0-0.4,0.1-0.6c0.4-0.9,1.2-1.6,2.2-1.9c0.9-0.4,1.9-0.6,2.9-0.8l3-0.6c1-0.2,1.9-0.6,2.7-1.3c0.2-0.2,0.3-0.4,0.4-0.7
	c0.1-0.2,0.2-0.5,0-0.8c-0.2-0.3-0.5-0.2-0.7-0.3l-0.7-0.2l-3-1c-1-0.3-1.9-0.8-2.7-1.3c-0.4-0.3-0.7-0.6-1-1
	c-0.1-0.2,0-0.4,0.1-0.6L78,116c1.3-1,2.6-1.8,4-2.5l-0.6,0.5c1.2-0.6,2.2-1.5,3-2.5c0.4-0.6,0.7-1.3,0.8-2c0.1-0.7-0.1-1.4-0.5-2
	c0.1-0.1,0.5,0.7,0.3,0.1l-0.8-0.8c-0.4-0.4-0.9-0.7-1.4-0.9c-0.6-0.3-1.2-0.5-1.8-0.5l-1.3,0.2h-1l-0.9-0.2c-0.4,0-0.7-0.1-1-0.4
	c-0.4-0.4-0.6-0.9-0.7-1.4c-0.1-0.6-0.2-1.2-0.2-1.8c0-0.7-0.1-1.3-0.3-1.9c-0.1-0.3-0.3-0.6-0.6-0.8L74,98.6h-0.3v-0.4
	c0-0.3,0-0.6,0.1-0.9c0.2-0.6,0.4-1.2,0.6-1.7c0.5-1.2,1.1-2.3,1.7-3.4c-0.1,0.2-0.3,0.7,0,0.4c1.1-2,2.4-3.9,3.7-5.7
	c0.7-1,1.4-2,1.9-3.1c0.3-0.5,0.4-1.1,0.4-1.7c0-0.6-0.5-1.2-1.1-1.3L79.6,80l-1.8-0.4L76,78.8l-1.7-0.7c-0.6-0.1-1.2,0-1.6,0.4
	c-0.5,0.4-0.9,0.8-1.3,1.3c-0.8,0.9-1.4,2-2.3,2.9c-0.9,0.9,0.3-0.7-0.1-0.4c-0.1,0.3-0.2,0.5-0.4,0.7l-0.5,0.4l-0.4,0.2h-0.5
	c-0.1-0.1-0.3-0.2-0.3-0.4v-0.5c-0.1-0.3-0.1-0.7-0.1-1c0-0.3,0-0.7,0-1v-0.9c0.2-0.9,0.2-1.9,0-2.8c0-0.6-0.2-1.1-0.4-1.6L66.2,75
	l-0.3-0.4c-0.2-0.2-0.6-0.2-0.8,0l0.2-0.3c-0.3,0.4-0.6,0.8-0.8,1.3l-0.4,0.8c-0.3,0.6-0.5,1.3-0.6,2l-0.6,0.9c0,1-1.5,2.9-2,4.7
	h0.1c-0.6,1.6-1.1,2.4-1.7,3.9h-0.1c-0.7,1.7-1.1,3.2-1.4,4.1c-0.3,0.9-0.4,1.5-0.2,1.5s0.9-3.5,0-1.7c-0.9,1.8-0.9,3.6-1.5,5.4
	c-0.3,0.9-0.6,1.8-1,2.6c-0.4,0.9-1.1,1.7-2,2.1c-0.3,0.1-0.7,0.1-1,0c-0.2-0.1-0.2-0.3-0.2-0.5v-0.4c0.3-0.5,0.6-1,0.9-1.5l1.9-2.7
	l2.9-5.9l3.2-5.7l2.8-6c0.4-0.8,0.9-1.6,1.4-2.3c0.8-1.8,1.4-3.7,2-5.5c-0.1,0.4,0.4-0.7,0.7-1.3c0.3-0.7,0.5-1.5,0.6-2.3
	c0.1-0.9,0.3-1.7,0.5-2.5c-0.1,1-0.1,1.3,0.1,1c0.2-0.3,0.3-2.3,0.5-3.6s0.1-1.3,0.1-1.9v-0.5c0-0.1,0-0.2-0.1-0.3
	c-0.2-0.2-0.4-0.2-0.6-0.1h0.7c-0.2-0.2-0.6-0.2-0.9,0c0,0,0,0-0.1,0.1l-0.5,0.8l-0.9,1.6c-0.5,1.1-0.9,2.2-1.2,3.4v-0.9
	c-1.5,3.6,0.1,1.2-1.2,4.4c0.3-0.8,0.1-0.5,0.1-0.7c-0.1,0.4-0.2,0.8-0.4,1.2l-0.7,1c-0.6,0.8-1.2,1.7-1.7,2.5
	c-0.5,0.9-0.9,1.8-1.2,2.7l-0.7,2.6c0-0.2,0-0.2,0-0.2c-1,3.3-2.3,6.6-3.6,10.2c-0.6,1.2-0.2-0.6-1.5,2.8c0.4,0-2.2,5.7-1,3.9
	c-1.3,2.8-3.3,7.3-4,9.3c0.4-1.3-1,1.2,0-1.2l-1,1.7c0-0.3,0.8-1.8,0.4-1.3l-1.2,2.9c-0.4,1.1-0.9,2.3-1.1,2.9
	c-0.2,1.2-0.3,2.5-0.3,3.7c-0.1,1.6-0.3,3.3-0.7,4.8c0.4-1.8-0.7,0.9-0.4-0.3c-0.1,0.9-0.4,1.8-0.9,2.6c-0.4,0.5-1,0.7-1.6,0.5
	c-0.6-0.1-1.2-0.5-1.5-1c-0.1-0.3-0.2-0.6-0.1-0.9v-0.3c0.1-0.1,0.2-0.4,0.5-1.3s0.2-0.7,0.3-1.3l0.4-0.9c0.1-0.2,0.2-0.5,0.2-0.7
	v-1c0.1-1,0.4-2,0.8-2.9c0.3-0.5-0.4,2.1,0.1,0.7c0.5-1.4,0.4-2.4,0.8-4.8h0.1c0.3-1.5,0.8-4.6,0.2-2.9s0.3-0.4-0.1,1.2
	c0.2-2.1,0.6-4.2,1.2-6.2c-0.1,0.4-0.1,0.7,0,1.1c0.5-3.2,1.4-6.4,2.2-10c-0.2-0.1-0.1,1.4-0.3,1.8c1.5-4.3,2.3-9.2,3.3-12.8
	c-0.1,0.6-0.3,0.3-0.2,0.2c0.4-2.1,0.6-2,0.6-3.3c0.1-0.3,0.1-0.7,0-1c0-0.2-0.1-0.5-0.2-0.7l-0.2-0.2l0,0c0-0.3,0-0.2,0-0.1l0,0
	c0-0.1,0,0-0.1,0.3l0,0c0-0.1,0-0.1,0-0.2h0.1v0.2l-0.2,0.5c-0.2,1.2-0.4,2.5-0.4,3.7c-0.1,1.4-0.2,3-0.4,4.5
	c-0.1,0.8-0.3,1.5-0.6,2.2l-0.5,1.8c0,1.4-0.2,2.7-0.4,4v-0.5c-0.3,0.9-0.7,3.6-1,3.8c-0.3,0.2,0.4-1.1,0.7-3.2s0.7-4.1,0.5-2.6
	c-0.2,1.5-0.5,4.4-0.7,3.7c-0.2,1.1-0.4,2.2-0.7,3.3c-0.3,1.1-0.7,2.2-1.4,3.1c0.2-0.3,0.4-0.6,0.4-1c0-0.2-0.1-0.1-0.6,0.8
	c-0.3,0.4-0.7,0.7-1.2,1l-0.5,0.3l-0.4,0.2c-0.3,0.1-0.7,0.1-1-0.1c-0.3-0.2-0.4-0.5-0.5-0.8c0-0.2,0-0.5,0-0.7
	c0.1-0.6,0.2-1.2,0.4-1.8c-0.2-0.2,1.2-2.6,0.5-1.6c0.4-0.7,0.7-1.4,1-2.1l0.2-0.6l0.2-0.6c0.1-0.3,0.2-0.5,0.3-0.4v0.5
	c0.3-1.1,0.5-2.2,0.7-3.3c0.1-0.2,0.2-0.5,0.3-0.4c0.1,0.1,1-3.1,1.2-4.7s2.3-6.9,2.9-8c0.5-2.2,1.1-4.3,1.9-6.4
	c-0.2,0.4-0.3,0.9-0.3,1.3c0.5-1,0.8-2.1,1.1-3.2c0.3-0.5,0.6-1,0.8-1.5l1.4-2.9c0.6-2.1,0.1-1.4,0.1-1.7c0.6-1.2,1.1-2.5,1.4-3.8
	l0.3-1.1v-0.2H58l0.7,0.8h-0.1l-0.3,0.3l-1.1,1.5c0.3-0.7,1.4-2.5,0.4-1.3c-0.7,0.7-1.2,1.6-1.5,2.6c-0.4,1.3-0.9,2.5-1.5,3.7
	l0.6-0.6c-0.8,1.2-1.6,4.4-1.8,3.9s-1.6,3.4-1.1,3.2c-1.2,2.4-2.4,5.3-3.9,8c-1.5,2.6-2.7,4.8-3.6,6.1c-0.9,1.3-1.1,2.3-0.8,2.1
	c0.3-0.2,0.6-1.6,0.9-2c0.3-0.4-0.3,0.8-0.2,0.9s-1.3,2.6-0.9,1.1c-0.6,1.1-1.1,2.3-1.3,3.5c-0.3,1.5-0.8,3-1.5,4.4
	c0-0.1-0.1-0.1-0.2,0.1L40,95.1l-0.4,0.6L39,96.4l-0.4,0.3L38.1,97h-1.7l-0.4-0.3c-0.2-0.2-0.4-0.4-0.5-0.7
	c-0.1-0.3-0.1-0.6-0.1-0.9c0-0.3,0-0.5,0.1-0.8c0.1-0.4,0.2-0.5,0.3-0.5s0.2,0.3,0.3,0.3c0.4-1.7,1.2-3.4,1.4-4.2l1.1-1.6
	c-0.4,0.6-0.3,0.3-0.1-0.3c0.3-0.5,0.5-1.1,0.6-1.6l-0.2,0.7c0.4-1,0.7-1.9,0.9-2.9c-0.5,1.1-0.9,2.2-1.2,3.3c0.1-0.7,0.5-2,0.7-3
	c0.2-1,0.9-2.4,1.4-3.6c0.2-0.6,0.4-1.3,0.5-2c0.1,0,0.8-2.2,0.6-1.1c-0.2,0.6-0.4,1.2-0.6,1.8c0.5-0.8,0.9-1.7,1.1-2.6
	c0.4-1.5-0.6,0.2,0.5-2.4c-0.1,0.5-0.2,1-0.3,1.5l1-2.5l-0.2-0.2c0.2-0.3,0.1-0.1,0.2-0.2c0.1-0.1,1.5-3.8,1.5-4.5
	c0-0.7,1.3-2.5,1.8-3.7V65c0.8-1.5,1.5-3,2-4.6l0,0c0.4-0.8,1.2-2.6,1.6-3.6c0.4-1,1.1-0.3,1.9-2.6c0.8-2.3,1.2-3.3,0.6-2.5
	c1.9-3.5,3.6-7.7,5.7-10.7c0.1-0.5,0.3-0.9,0.5-1.3l1.1-1.9l1-1.9l1.9-4c1.1-2.5,2.5-5,4.1-7.2c-0.9,1.5,0.1,0.2,0.2,0.3
	c0.1,0.1,1.2-1.2,1.2-1.8c0-0.6-0.2-0.2-1.3,1.1c1-1.5,2.3-3.1,3.1-4.7l0.2-1L71,18c0.1-0.3,0.2-0.5,0.2-0.8c0,0.2-0.1,0.3-0.1,0.3
	l-0.3-0.3c0.2-0.2,0.1-0.5-0.2-0.4L70,17l-0.3,0.2l-0.4,0.3v0.3l-1.1,0.6c-0.5,0.7-1.2,1.3-1.9,1.8l-0.5,0.2c-1.4,1.4-3,3.5-4.5,5
	l-1.3,1.1c-0.5,0.7-1.2,2.1-0.3,0.8c-2.2,2.8-3.2,4.9-4,5.8c-2.5,5.8-6.6,14.1-9.9,20.8v-0.2c-1,1.7-0.2,1-0.9,2.2
	c0.1-0.6-0.9,1.2-0.4-0.2c-0.8,1.6-1.5,3.4-2,5.1c0.1,0.3,0.5-1.4,0.6-1c0.1,0.4-1.7,3.5-1.5,4c0.2,0.5-0.4,0-0.3-0.4l-0.5,1.6
	c-0.5,0.9-0.3-0.2,0-1.4s0.6-2.3-0.1-1.4l-0.5,1.5c-0.8,1.3,1.2-4-0.3-0.4c-0.5,1.7-0.5,3.2,0.1,1.8c-0.3,0.8-0.5,1.7-0.4,2.6
	c0,1-0.3,2-0.7,2.9c-0.3,0.5,0-0.3,0.3-1.1s0.5-1.6,0.2-1.3s-0.6,1.7-1,2.7l-0.2,0.4c-0.1,0.2-0.2,0.4-0.4,0.6h-0.1l-0.4,0.2h-0.7
	L35.9,72c-0.2-0.2-0.3-0.4-0.4-0.7c0-0.1,0-0.3,0-0.4c0-0.5,0-0.9,0.1-1.4c-0.3,1.9-0.5,0.2-0.3-1c0.2-1.2,0,1.3,0.6-1.5
	c-0.1-0.5,0.3-3.1-0.2-0.9c-0.2-1.1,0.7-2.8,0.8-4.4c0.1-1.6,0,2.9,0.8,0c-0.4,0.4,0.5-3.8-0.2-2.3c0.3-1.2,0.6-1.2,0.5-0.3
	c0.5-1.6,0.4-4.2,1-4.6v-0.6l0.7-2.1c0.3-1.5,0.5-4.8,0.9-4.6c0.4,0.2,0.5-3.8,0.1-2.6c-0.4,1.2-0.2,2.4-0.7,3.5
	c0.4-1.4,0.6-2.8,0.5-4.2l0.2-0.2c0.1-0.9,0.1-1.8,0-2.7c0.1,0.5,0.2,0.3,0.2-0.3l-0.2-0.7c-0.1-1.3-0.1-1.3,0-1.5
	c0.1-0.1,0.1-0.2,0.1-0.3v-0.2h0.2l0.6-0.7l0,0l-0.7,0.8h-0.1c0.1,0.2,0.2,0.5,0.3,0.7v-0.7l0,0l0.6-0.7l0,0l0.7,0.6H42
	c-0.1,0.6-0.2,1.2-0.2,1.8c-0.4,1.3-0.5,0.5-0.6,2c0.1-0.6,0.2-1.3,0.3-1.9c0-0.3-0.8,1-1.2,3.1c-0.4,2.1-0.4,3.7,0.2,1.4
	c-0.2,1.1-0.7,2.7-0.7,1.7c-0.6,2.5,0.3-0.3-0.1,1.9c-0.4,2.2-1.4,3.5-2.1,5l0.4-2.3L37.5,52c0.3-1.9-0.5,0.9-0.5-0.3
	c-0.4,1-0.7,2.1-0.9,3.1c1.4-2.7-0.5,3.4,0.3,2.7c-0.3,1.1-0.7,2.1-1.3,3c-0.3,0.6-0.6,1.2-0.8,3.4c0.3-0.7,0.2,1.4,0.6-1.2
	c-0.6,2.5,0.1,1.8-0.7,4.7c0.3-2.2-0.9,2.2-0.5-0.9c0.1,0.2,0.5-1.7,0.5-2.2c0-0.5-0.4-0.3-0.9,2.2s-0.7,3.7-0.4,3.4
	c0.3-0.3,0.4-2.4,0.5-1.3c-0.5,3.1-1,3.6-0.8,5c0.4-2,0.7-2.4,0.9-2.4L33,73.7v-0.5c-0.3,0.8-0.4,1.6-0.4,2.4c0,0.2,0,0.4,0,0.6
	l-0.2,0.7c-0.1,0.5-0.3,0.9-0.5,1.3l-0.2,0.4l-0.6,0.6c-0.3,0.3-0.8,0.5-1.2,0.5H29l-0.6-0.3l-0.3-0.3l-0.2-0.3l-0.2-0.4
	c-0.2-0.5-0.2-1.1-0.1-1.7c0,0.2,0,0.4,0.1,0.7v0.7l0.3,0.6l0.6,0.5h1.3l0.5-0.2l0.3-0.2l0.3-0.3l0.3-0.4l0.3-0.6l0.3-1
	c0.3-1.2,0.5-2.1,0.2-1.8s-0.4,2-0.7,2.9L31.2,78c-0.1,0.2-0.2,0.4-0.4,0.6l-0.3,0.3h-2.3l-0.5-0.4c-0.2-0.1-0.3-0.3-0.4-0.5
	l-0.2-0.5v-0.7c0-0.3,0-0.6,0.1-0.9c0,0.3,0,0.6,0,1c0,0.2,0,0.5,0.1,0.7V78l0.3,0.6l-0.2-0.5c0-0.1-0.1-0.2-0.1-0.3
	c0-0.2,0-0.4,0-0.6c0-0.4,0.1-0.7,0.2-1.1c0.3-1.2,0.5-2.3,0.6-3.5c0.2-1.7-0.1-0.5-0.2-0.6c0.3-1.3,0.5-2.7,0.6-4
	c0.1-1,0.1-2,0.3-3.2c0.3,0.5,0.7-4.3,0.6-1.5c-0.3,1.3-0.6,2.7-0.7,4c-0.1,1.6-0.4,3.2-0.4,3.9c0.7-1.3-0.7,2.9-0.4,3.8
	c0.6-3,1-2.8,1.3-3.2c0.1-0.7,0.3-1.4,0.3-2.1c-0.2-0.4-0.4,0.7-0.6,0.7c0.2-0.8,0.3-1.6,0.4-2.4l0.2-2.3c0.2-1.5,0.3-2.8,0.3-3.7
	c0-0.9,0.5-0.7,0.3,0.6c0.3-2,0.5-4,0.6-6v-1.5h0.5l0.3,0.3h-0.2l-0.2,0.2c-0.5,0.8-1,1.6-1.4,2.4c0.7-1,0.3-0.1-0.2,1
	C29,60,28.6,61.1,29,60.4c0.4-0.7,1.9-3.2,1.6-2.2c-0.3,1-0.1-0.1-0.4,0.3c-0.3,0.4-1.4,2.4-1.7,4c1.3-3.4-0.2-0.8-0.2-1.6
	c-0.9,2.5-0.2-0.2-1.2,2.2c-1,2.4-1,2.6-1.5,4.1l-0.9,2.1l-0.2,0.5l-0.3,0.6l-0.8,1.3c-0.4,0.6-1,1.2-1.6,1.6
	c-0.3,0.2-0.6,0.5-1,0.3c-0.4-0.2-0.7-0.5-0.9-0.8c-0.5-0.8-0.8-1.6-0.9-2.5c-0.1-0.5-0.2-0.9-0.2-1.4v-1.2c0-1.4-0.1-2.9-0.1-3.9
	c0-1,0.5-0.6,0.5-2.4c0-1.8-0.2,1.6-0.4-1.6v0.3c-0.1-0.2-0.1-0.7-0.2-1.3l-0.2-1v-0.4l0,0l0,0h-0.1L18,57.5l-0.2,0.4
	c-0.1,0.3-0.2,0.6-0.3,0.9c-0.1,0.4-0.1,0.9,0,1.3l-0.2-1c-0.1,0.5-0.2,1.1-0.2,1.6c-0.1,0-0.3,0.7-0.3-0.3
	c-0.3,1.1-0.4,2.1-0.4,3.2c0,1.1-0.1,2.2-0.2,3.2l0.4-1.4c-0.1,1.5-0.3,3-0.6,4.5c-0.1,0.7-0.3,1.4-0.5,2.1l-0.2,0.5l0,0l-0.4,0.2
	c-0.2,0.1-0.3,0.1-0.5,0.1l-0.8-1c-0.2-0.3-0.3-0.7-0.4-1h0.2c-0.2-0.7-0.3-1.3-0.3-2c0.2,0.5,0.4-1.5,0.2-2.6
	c0.1,0.9,0.2,1.9,0.3,2.8c0.1,0.9,0.3,1.8,0.8,2.5l0,0c0.3,0.5,0.1,0.4-0.2,0.1c-0.3-0.3-0.6-1.1-0.5-0.5c0,0.2,0.1,0.5,0.2,0.7
	l0.7,0.9l0.3,0.2h0.3v-0.2l0.2-0.6c0.2-0.6,0.2-1.1,0.2-1.7c-0.3,1.3-0.2,1.3-0.4,2.3c-0.2,1-0.1-0.2-0.1-0.8
	c0.1-0.6,0.1-1.1,0.1-1.7c-0.1,0.7-0.4,1.6-0.3,1.7l0.6-4.7c-0.1,1.5,0.3-0.8,0.3-0.2c0,0.6-0.1-0.7-0.1-1.6v-1.7
	c0-0.6,0.1-1.2,0.1-1.9c0-0.7,0.3-2.3,0.7-3.7c0.1-0.4,0.3-0.8,0.5-1.1l0.2-0.3h0.1l0.3-0.2c0.5-0.2,1,0,1.3,0.5v0.2h0.5v0.3
	l0.2,0.6c0.1,0.4,0.2,0.8,0.2,1.2l-0.9-2.1c-0.1-0.2-0.2-0.3-0.3-0.4h-0.4L17.8,57l-0.2,0.3c-0.3,0.4-0.5,0.8-0.6,1.3
	c0.2-0.4,0.4-0.8,0.6-1.1l0.3-0.3l0.4-0.2l0.3,0.2v0.4c0.2,0.4,0.3,0.8,0.4,1.2c0.7,1.3,1,2.8,1,4.2h-0.2c0.1,1.2,0.1,1.8,0.2,2.4
	c0.1,0.6,0.1,0.7,0.1,1.1c0,0.4,0,1,0,1.8v0.7c0,0.2,0,0.4,0,0.7c0,0.4,0.1,0.8,0.3,1.2l0.3,0.4c0.1,0.1,0.3,0.1,0.4,0.1l0.7-0.7
	c0.4-0.5,0.7-1,1-1.6c0.8-1.5,1.5-3,2-4.3h0.2c1.1-3.3,2.4-6.4,3.9-9.5l0.6-0.8l0.4-0.4l0.2-0.2l0.7-0.3c0.5,0,1,0.3,1.1,0.8v0.2
	l0,0v0.2c0,0.3,0,0.7,0,1s-0.1,2.6-0.3,3.8c-0.2,1.9-0.5,3.9-1,5.7l-0.1,3.4C30.5,70,30.3,71,30.1,72c-0.2,1-0.4,2-0.5,3
	c-0.1,1-0.1,1-0.2,1.5c0,0.2,0,0.4,0,0.6h-0.5l-0.2-0.3l-0.2-0.2h0.1v-0.3l0.2-0.7l0.4-1.5l0.6-3.1c0.4-2.1,0.8-4.2,1.3-6.4v1.6
	c0.1-1.6,0.4-1,0.7-2.6c-0.6,1.7,0.1-2.2,0.3-3.4l1-3.1l1-3.2c0.7-2.1,1.3-4.2,1.7-5.9H36c0.3-1.8,0.8-3.6,1.2-5.7
	c0.2-1.1,0.5-2.2,0.9-3.2c0.2-0.6,0.4-1.1,0.7-1.6l0.5-0.8l0.3-0.4v-0.2h0.1l0.2-0.2c0.4-0.2,0.8-0.3,1.2-0.2l0.3,0.2h0.2l0.3,0.4
	c0.3,0.6,0.5,1.2,0.6,1.9c0.3,1.1,0.4,2.3,0.4,3.4c0,1.1-0.1,2.3-0.2,4.2c-0.1,1.9-0.5,3-0.9,4.7c-0.4,1.7-0.7,3.4-1,4.7
	s-0.9,4.9-1.4,7.4c-0.5,2.4-1,4.9-1.4,7.4c0,0.3-0.1,0.6-0.1,0.8c0,0,0,0.1,0,0.1h-1.1c-0.2-0.3-0.5-0.6-0.8-0.8
	c-0.1-0.1,0-0.1,0.1-0.3l0.2-0.4l0.3-0.8c0.4-1.1,0.7-2.4,1.1-3.6s1.8-4.9,2.8-7.4l0.5-0.6c3.8-9.3,9.7-20,13.6-27.7V30
	c1.4-2.3,3.2-5.3,2.6-4.9c-0.6,0.4,1.9-2.5,2.9-3.7c0.8-1,1.8-1.9,2.8-2.7c2.1-1.8,2.4-2.4,4.3-3.9l0.9-0.6l1.2,0.1
	c0.7-0.4,1.5-0.7,2.3-0.7c0.7-0.1,1.3,0.2,1.8,0.6c0.4,0.5,0.6,1,0.7,1.6c0,0.3,0,0.7,0,1c0,0.4-0.1,0.7-0.2,1.1
	c-0.1,0.4-0.2,0.7-0.3,1.1l-0.3,0.9c-0.5,1.1-1.1,2.2-1.8,3.2l0.8-1.1c0.2-0.6,0.1-0.7-0.6,0.4c-0.7,1.1-1.6,2.3-2.3,3.3
	c-0.7,1-1,1.7-0.3,1.1c-1.6,2.5-3,5.2-4.1,8c-0.7,1.5-1.4,2.9-2.1,4.3l-2.2,3.7c0.3-0.3-0.3,0.9-0.5,1.4c-2.2,4.2-4.8,8.7-6.2,12.2
	c-0.4,0.7,0.3-1.2-0.5,0.6s0.1,0.1-0.4,1.4c-1.6,3.5-3.2,7.2-4.9,10.7c-1.6,3.3-3,6.8-4.1,10.3l-2.8,9.3c-0.7,1.6-1.3,3-1.9,4.4
	c-0.3,0.7-0.5,1.3-0.7,2v0.4h-1.6l0.3-0.8c-0.1,0,0,0.3-0.1,0.1l-0.2-0.4l0.2-0.2l0.5-0.7c0.3-0.6,0.7-1.3,0.9-1.9
	c0.6-1.4,1.1-2.9,1.8-4.4c0.7-1.5,2.6-5.4,4.1-8.2v0.2c0.4-1,1-2,1.5-2.9l1.6-2.9c1-1.8,1.7-3.6,2.2-5.5c0.5-0.8,1.4-3.3,1.3-2.6
	c0.7-2,1.6-4,2.5-5.8c0.6-1.2,1.2-2.5,1.9-3.6l0.7-0.9l0.4-0.5h0.1c0.4-0.3,0.8-0.4,1.3-0.3l0.6,0.3l0.2,0.2l0.3,0.5v0.3
	c0,0.1,0,0.1,0,0.2v0.3l0,0v0.3l-0.5,1.8c0.1-0.4,0.2-0.8,0.3-1.2l-2.4,6.5l-2.4,6.6c0.2-0.5,0.3-1,0.4-1.5
	c-0.8,1.7-1.1,4.4-1.8,5.2c-0.7,0.8,0,0.8,0.2,0.2l-2.6,7.9c-0.9,2.7-1.7,5.3-2.5,8.1l-0.6,2c-0.2,0.7-0.5,1.4-0.8,2.1
	c-0.6,1.3-1.2,2.6-1.5,3.8v0.4h-1.5c0-0.1,0-0.2,0-0.3v-0.9l0,0c0.3-0.2,0.6-0.4,0.7-0.7c0.6-1.1,1-2.3,1.2-3.5
	c0.5-1.9,0.8-2.9,1-3.4c0.2-0.5,0.3-0.5,0.3-0.4s0.1,0.4,0.5-2.8c0.2-0.5-0.1-0.4,0-0.5c0.1-0.6,0.2-1.2,0.4-1.7l0.5-1.3
	c0.3-0.7,0.5-1.5,0.5-2.3c-0.4,0.7-0.1-1.1-0.2-1.2c0.2-1.8,0.5-3.7,0.9-5.4c0.1-0.4,0.2-0.8,0.4-1.2c0.2-0.3,0.4-0.5,0.6-0.7
	l0.6-0.3h0.7c0.8,0.2,1.4,0.8,1.6,1.6c0.2,0.5,0.4,1.1,0.4,1.7l-0.2-0.3c0.2,1.3,0.2,2.6,0,3.8c-0.2,1.2-0.4,2.5-0.6,3.6
	s-1.1,4.6-1.3,6.5c-1.7,6.1-3.6,12.2-4.6,18.1c-0.2,1.6-0.6,3.2-0.9,4.6c-0.3,1.4-0.3,1.5-0.4,2.2l-0.2,1.1c0,0.5-0.2,1-0.3,1.5
	c-0.3,0.8-0.6,1.6-1,2.3l-0.3,0.7h-0.7l0.2-0.2l0.3-0.4h0.1c-0.1,0.2-0.1,0.5-0.1,0.7c0,0,0,0.1,0,0h-0.2l-0.2-0.2h-0.1v-0.2
	l0.3-0.7c0.4-1.4,0.7-2.8,0.9-4.2c0.2-1.6,0.6-3.2,1-4.8c0.3-1,0.6-1.6,0.9-2.3l0.9-2.1l1.8-4.2c2.4-5.6,4.8-11.3,7-17l1.5-4.2
	l0.7-2.1l0.3-1.1l0.4-1.3c0.7-1.6,1.6-3.1,2.6-4.4l0.7-0.9l0.4-0.5h0.2l0.6,0.5h-0.1l-0.3-0.3l-0.2-0.2l0,0c0.3-0.6,0.5-1.2,0.7-1.8
	c0.5-1.4,0.9-2.9,1.5-4.4c0.3-0.8,0.7-1.6,1.1-2.3l0.8-1.2v-0.2l0.4-0.4c1.2-1,3-0.8,4,0.5c0.3,0.4,0.5,0.8,0.6,1.3
	c0,0.1,0,0.2,0,0.3l0,0V62c-0.1,0.8-0.2,1.6-0.3,2.4c-0.3,1.6-0.6,3.1-1.1,4.6c-1.9,6-4.7,11.6-7.3,17L59,94.3l-1,2.1l-0.5,1v0.3
	l-0.2,0.4l-0.4,0.6l-1.4,1.9l-0.6,0.9l-0.4,0.7h-0.1l-0.5-0.2H53v-0.2c0-0.2,0-0.5,0-0.7v-0.4h0.1c0.1,0.1,0.6-0.4,0.9-1
	c0.3-0.6,0.6-1.2,0.8-1.8c0.5-1.3,0.9-2.9,1.6-5.6c0,0.3-0.1,0.7,0.1,0.3c0-0.8,0.2-1.6,0.5-2.4c0.3-0.9,0.6-1.8,0.8-2.7l2.6-6.2
	c0.5-1.1,0.7-1.6,1.7-4c0.1-1.2,0.3-2.3,0.6-3.4c0.3-0.6,0.7-1.2,1.1-1.7c0.3-0.3,0.8-0.6,1.2-0.7h0.7l1,0.2c1.1,0.5,1.8,1.5,2,2.7
	c0.1,0.4,0.2,0.7,0.2,1.1c0.1,0.5,0.1,0.9,0.1,1.4c0,1-0.1,2.1-0.2,3.2v1c0,0.3,0,0.5,0,0.7c0,0.2,0,0.4,0,0.6l0,0l-1.5,0.3l0,0
	l1.4-0.3l0,0V82c0-0.1-0.1,0-0.1,0.1c0,0.1,0,0.2,0,0.3v0.2l0,0l-1.2,0.2l0,0l-0.2-1.1v-0.2h0.4l0.8-1.1c0.1-0.3,0.1-0.3-0.3,0.1
	l1.3-1.7c0.6-0.8,1.3-1.4,2-2c0.6-0.4,1.2-0.7,1.9-0.8h1.1l1,0.2l1.2,0.5l0.6,0.3l0.3,0.2h0.1l1.6,0.6h2.3c0.7,0.1,1.4,0.4,1.9,0.8
	l0.7,0.8c0.2,0.3,0.3,0.6,0.4,0.9c0.1,0.3,0.2,0.7,0.2,1c0,0.4,0,0.7-0.1,1.1c-0.1,0.4-0.2,0.8-0.3,1.1l-0.3,0.7
	c-0.4,0.8-0.8,1.5-1.3,2.2l-1.3,1.8l-2.7,3.6c-0.8,1.1-1.4,2.3-2,3.5l-0.4,0.8l-0.2,0.6v0.1h0.4l0.4,0.3c0.2,0.2,0.4,0.5,0.6,0.8
	c0.4,0.8,0.6,1.7,0.6,2.6c-0.1,0.9,0,1.8,0.2,2.6h0.9c0.7-0.1,1.5-0.2,2.2-0.1c0.9,0.1,1.7,0.4,2.4,0.8c0.8,0.5,1.4,1.1,1.9,1.8
	c0.6,0.8,1,1.7,1.1,2.7c0.1,1.8-0.7,3.5-2.1,4.6c-1,0.8-2,1.6-3.1,2.2l-1.4,0.9l-0.3,0.2H80c-0.1,0.1-0.1,0.1-0.1,0.2l0.2,0.2h0.2
	l0.7,0.3l1.5,0.5l0.5,0.2l0.9,0.3l1.8,0.6c0.5,0.2,0.9,0.4,1.3,0.8l0.4,0.4l0.3,0.5c0.1,0.5,0.1,1,0,1.5c-0.1,0.5-0.4,0.9-0.7,1.3
	c-0.8,0.9-1.9,1.6-3.1,1.9l-1,0.3l-0.7,0.2L81,126l-2.2,0.5l-1,0.3l-0.4,0.2h-0.2l-0.2,0.2c0,0.1,0,0.1,0.1,0.1h0.1l0.3,0.2l1.5,0.8
	l3.5,1.3l3.6,1.2l3.6,0.8l1.8,0.2l2.1,0.4c1.2,0.3,2.3,0.6,3.5,0.7l1.2-0.2c0.4-0.2,0.7-0.5,0.9-0.8c0.3-0.4,0.5-0.9,0.7-1.4
	l0.2-0.6l0.2-0.7l0.4-1.6c0.1-0.4,0.3-0.7,0.5-1l0.5-0.6l0.2-0.2l0.3-0.2h0.6c0.5,0.5,0.9,1.1,1.1,1.7l0.8,1.2l0.4,0.6h0.3v0.6l0,0
	v-0.2l0,0l-0.6-0.3h0.1l0.2-0.4l0.3-0.5c0.2-0.4,0.5-0.7,0.9-1c0.3-0.3,0.8-0.5,1.2-0.5h2.4l0.4-0.2l0.6-0.5l0.9-0.6l0.6-0.3
	l0.4-0.2c0.7-0.3,1.4-0.6,2.1-0.7c0.5-0.1,1-0.1,1.5,0h0.4l0.6,0.4l0.5,0.6l-0.4-0.4l-0.5-0.3h-1.8c-0.9,0.2-1.7,0.6-2.4,1.1
	l-0.3,0.2l-0.4,0.3l-0.7,0.6c-0.4,0.4-0.9,0.8-1.4,1C109.6,128.1,108.9,128.2,108.3,128.3z"/>
<path class="st0" d="M11.9,64.1c0.4-0.1,0.8-0.1,1.1,0.1c0.3,0.2,0.4,0.5,0.5,0.8c0,0.2,0,0.4,0,0.3l-0.4-0.4c0-0.3-0.3-0.6-0.6-0.7
	C12.1,64.1,11.8,64.3,11.9,64.1z"/>
<path class="st0" d="M27.9,63c0.1-0.3,0.3-0.6,0.5-0.8c-0.2,0.6-0.4,1.2-0.7,1.7C27.8,63.6,27.9,63.3,27.9,63z"/>
<path class="st0" d="M30,58.9c-0.1-0.6-0.1-1.3,0-1.9c0-0.5,0-1,0-1.5v-0.6l0,0v0.3c0,0.4,0,0.8,0.1,1.2C30.2,56.7,30.1,58,30,58.9z
	"/>
<path class="st0" d="M27.6,71.6c-0.3,1.1-0.3,0.8,0-0.7C27.9,69.4,27.6,71.3,27.6,71.6z"/>
<path class="st0" d="M27.7,72.7c-0.2,0.7-0.4,1.4-0.6,2.1C27.3,74.8,27.5,72.2,27.7,72.7z"/>
<path class="st0" d="M36.4,55.8c0.2-0.9,0.5-1.8,0.9-2.6C37.1,53.8,36.4,56.3,36.4,55.8z"/>
<path class="st0" d="M40,42.7c0.1-0.3,0.2-0.7,0.2-1c0.2-0.7,0.2,0.1,0,0.7L40,42.7z"/>
<polygon class="st0" points="56.1,60.7 55.6,62 55.5,61.8 "/>
<path class="st0" d="M46.2,97c-0.3,1.4-0.4,0.9-0.5,1.2C45.6,98.5,45.8,98.7,46.2,97z"/>
<polygon class="st0" points="55.5,91 55.4,91.4 55.2,91.2 "/>
</svg>
