<svg id="Layer_1" data-name="Layer 1" xmlns="http://www.w3.org/2000/svg" width="422.3" height="395.2" viewBox="0 0 422.3 395.2"><title>self</title><rect x="231.5" y="157.6" width="19" height="38" rx="9.5" ry="9.5" fill="#fff"/><rect x="171.9" y="157.6" width="19" height="38" rx="9.5" ry="9.5" fill="#fff"/><path d="M197.8,144.1l-35.5,6.3a7,7,0,0,1-8.1-5.7h0a7,7,0,0,1,5.7-8.1l34.6-11.2a7,7,0,0,1,8.1,5.7h0C203.3,134.8,201.6,143.4,197.8,144.1Z" fill="#fff"/><path d="M224.7,144.1l35.5,6.3a7,7,0,0,0,8.1-5.7h0a7,7,0,0,0-5.7-8.1L228,125.4a7,7,0,0,0-8.1,5.7h0C219.2,134.8,220.9,143.4,224.7,144.1Z" fill="#fff"/><path d="M199.6,236.8q4.2.4,8.1.4c16.3,0,28.7-4.8,38.4-14.9a5,5,0,1,0-7.2-7c-9.2,9.4-21,13-38.5,11.5a5,5,0,1,0-.9,10Z" fill="#fff"/><path d="M211.1,1C95.3,1,1,95.3,1,211.1a210,210,0,0,0,99.9,178.9l5.7,3.5,1.7-6.5c6.4-24.1,14.9-51.1,21.2-67.4,12.1-31.4,30.9-33.8,36.3-33.8h90.9c5.5,0,24.3,2.4,36.3,33.8,6.2,16.2,14.7,43.1,21.1,67.2l1.7,6.5,5.7-3.5a210,210,0,0,0,99.6-178.7C421.3,95.3,327,1,211.1,1ZM198.4,275.9V264.3h25.4v11.6ZM139.5,87.7c-2.1-2.7-7.9-10.4-9.2-18.3,14.3,7.4,26.4,5.7,42.4,3.5a263.7,263.7,0,0,1,38.4-3.1c42.5,0,63,12.7,69,45.3-16.6-19.3-45.2-26.7-69-26.7-10.8,0-31.6,1.6-49.9,12.6s-27.3,26-30.1,46.1a40.2,40.2,0,0,1-4.8-.6V113.8a5,5,0,0,0-3.7-4.8c-2.5-.7-6.9-4.9-10.5-11.6a43.1,43.1,0,0,1-3.5-8.6c6.5,4,15,7,27,7a5,5,0,0,0,3.9-8.1Zm-15.9,69.4c3.7,0,5,.2,6.9,4.2v34.6c-2.1,3-4.6,4.8-7,4.8-5.5,0-11.6-8.9-11.6-21.8S118.1,157.1,123.6,157.1Zm17,28.3v-33c1.6-19,10.3-33.4,25.8-42.7s35-11.1,44.8-11.1c27.8,0,62.9,10.9,70.9,41.5v45.4a69.1,69.1,0,0,1-69,69h-3.4A69.1,69.1,0,0,1,140.6,185.3ZM385.2,310a201.6,201.6,0,0,1-63.1,67.7c-6.2-22.5-13.9-46.6-19.7-61.6-9.7-25.2-26.8-40.2-45.7-40.2H233.9V261.5A79.3,79.3,0,0,0,289,207a16.6,16.6,0,0,0,10.1,3.6c12.1,0,21.6-14,21.6-31.8s-9.5-31.8-21.6-31.8a20.9,20.9,0,0,0-7,1v-8.9h0c0-56.3-23.5-79.3-80.9-79.3A272.3,272.3,0,0,0,171.3,63c-18.2,2.5-28.2,3.9-42.6-6.3a5,5,0,0,0-7.7,2.7c-2.7,9.1.6,18.4,4.5,25.4-8.9-1.8-14.6-6.1-19.3-10.6a5,5,0,0,0-8.4,2.7c-2.5,13.1,7.4,33.7,18.4,40.2v31.8c-8.4,4.3-14.3,15.9-14.3,30,0,17.8,9.5,31.8,21.6,31.8a16.6,16.6,0,0,0,10.1-3.6,79.3,79.3,0,0,0,54.7,54.4v14.5H165.9c-18.9,0-36,15-45.7,40.2-5.8,15-13.5,39.2-19.7,61.8A200,200,0,0,1,11,211.1C11,100.8,100.8,11,211.1,11s200.1,89.8,200.1,200.1A200.1,200.1,0,0,1,385.2,310ZM292,195.9V161.2c1.9-4,3.2-4.2,6.9-4.2,5.5,0,11.6,8.9,11.6,21.8s-6.1,21.8-11.6,21.8C296.6,200.6,294.1,198.9,292,195.9Z" fill="#fff"/><path d="M385.2,310.1a201.6,201.6,0,0,1-63.1,67.7c-6.2-22.5-13.9-46.6-19.7-61.6-9.7-25.2-26.8-40.2-45.7-40.2H233.9V261.7A79.3,79.3,0,0,0,289,207.2a16.6,16.6,0,0,0,10.1,3.6c12.1,0,21.6-14,21.6-31.8s-9.5-31.8-21.6-31.8a20.9,20.9,0,0,0-7,1v-8.9h0C292,83,268.6,60,211.1,60a272.3,272.3,0,0,0-39.8,3.2c-18.2,2.5-28.2,3.9-42.6-6.3a5,5,0,0,0-7.7,2.7c-2.7,9.1.6,18.4,4.5,25.4-8.9-1.8-14.6-6.1-19.3-10.6A5,5,0,0,0,97.9,77c-2.5,13.1,7.4,33.7,18.4,40.2V149c-8.4,4.3-14.3,15.9-14.3,30,0,17.8,9.5,31.8,21.6,31.8a16.6,16.6,0,0,0,10.1-3.6,79.3,79.3,0,0,0,54.7,54.4v14.5H165.9c-18.9,0-36,15-45.7,40.2-5.8,15-13.5,39.2-19.7,61.8A200,200,0,0,1,11,211.3C11,100.9,100.8,11.1,211.1,11.1s200.1,89.8,200.1,200.1A200.1,200.1,0,0,1,385.2,310.1Z" fill="#333941"/></svg>